<?xml version="1.0" encoding="UTF-8" standalone="no"?>
<!-- Created with Inkscape (http://www.inkscape.org/) -->

<svg
   xmlns:dc="http://purl.org/dc/elements/1.1/"
   xmlns:cc="http://creativecommons.org/ns#"
   xmlns:rdf="http://www.w3.org/1999/02/22-rdf-syntax-ns#"
   xmlns:svg="http://www.w3.org/2000/svg"
   xmlns="http://www.w3.org/2000/svg"
   xmlns:sodipodi="http://sodipodi.sourceforge.net/DTD/sodipodi-0.dtd"
   xmlns:inkscape="http://www.inkscape.org/namespaces/inkscape"
   width="1052.3622"
   height="744.09448"
   id="svg4946"
   version="1.1"
   inkscape:version="0.48.4 r9939"
   sodipodi:docname="long-1d-domain-split.eps">
  <defs
     id="defs4948">
    <marker
       inkscape:stockid="Arrow1Mend"
       orient="auto"
       refY="0.0"
       refX="0.0"
       id="Arrow1Mend"
       style="overflow:visible;">
      <path
         id="path5883"
         d="M 0.0,0.0 L 5.0,-5.0 L -12.5,0.0 L 5.0,5.0 L 0.0,0.0 z "
         style="fill-rule:evenodd;stroke:#000000;stroke-width:1.0pt;"
         transform="scale(0.4) rotate(180) translate(10,0)" />
    </marker>
  </defs>
  <sodipodi:namedview
     id="base"
     pagecolor="#ffffff"
     bordercolor="#666666"
     borderopacity="1.0"
     inkscape:pageopacity="0.0"
     inkscape:pageshadow="2"
     inkscape:zoom="0.9899495"
     inkscape:cx="486.92111"
     inkscape:cy="436.20406"
     inkscape:document-units="px"
     inkscape:current-layer="layer1"
     showgrid="false"
     inkscape:window-width="1366"
     inkscape:window-height="713"
     inkscape:window-x="0"
     inkscape:window-y="30"
     inkscape:window-maximized="1">
    <inkscape:grid
       type="xygrid"
       id="grid5864"
       empspacing="5"
       visible="true"
       enabled="true"
       snapvisiblegridlinesonly="true" />
  </sodipodi:namedview>
  <metadata
     id="metadata4951">
    <rdf:RDF>
      <cc:Work
         rdf:about="">
        <dc:format>image/svg+xml</dc:format>
        <dc:type
           rdf:resource="http://purl.org/dc/dcmitype/StillImage" />
        <dc:title></dc:title>
      </cc:Work>
    </rdf:RDF>
  </metadata>
  <g
     inkscape:label="Layer 1"
     inkscape:groupmode="layer"
     id="layer1"
     transform="translate(0,-308.2677)">
    <rect
       y="636.98364"
       x="589.97241"
       height="174.14757"
       width="426.61432"
       id="rect5025"
       style="opacity:0.75;fill:#ffffff;fill-opacity:1;stroke:#b3b3b3;stroke-width:3.14163136;stroke-linecap:butt;stroke-linejoin:round;stroke-miterlimit:4;stroke-opacity:1;stroke-dasharray:12.5665254, 3.14163135;stroke-dashoffset:0" />
    <path
       inkscape:connector-curvature="0"
       id="path3385"
       d="m 630,724.36218 340,0"
       style="fill:none;stroke:#000000;stroke-width:1px;stroke-linecap:butt;stroke-linejoin:miter;stroke-opacity:1" />
    <rect
       style="opacity:0.75;fill:#ffffff;fill-opacity:1;stroke:#b3b3b3;stroke-width:3.13993907;stroke-linecap:butt;stroke-linejoin:round;stroke-miterlimit:4;stroke-opacity:1;stroke-dasharray:12.55975636, 3.13993909;stroke-dashoffset:0"
       id="rect5023"
       width="428.63626"
       height="173.13937"
       x="32.123272"
       y="636.98279" />
    <path
       style="fill:none;stroke:#000000;stroke-width:1px;stroke-linecap:butt;stroke-linejoin:miter;stroke-opacity:1"
       d="m 70,724.36218 340,0"
       id="path3383"
       inkscape:connector-curvature="0" />
    <path
       style="fill:none;stroke:#000000;stroke-width:1px;stroke-linecap:butt;stroke-linejoin:miter;stroke-opacity:1"
       d="m 150,214.09448 720,0"
       id="path3381"
       inkscape:connector-curvature="0"
       transform="translate(0,308.2677)" />
    <path
       sodipodi:type="arc"
       style="fill:#b3b3b3;fill-opacity:1;stroke:#000000;stroke-width:3.54330707000000000;stroke-linecap:butt;stroke-linejoin:round;stroke-miterlimit:4;stroke-opacity:1;stroke-dasharray:none;stroke-dashoffset:0"
       id="path2991"
       sodipodi:cx="202.5"
       sodipodi:cy="341.59448"
       sodipodi:rx="17.5"
       sodipodi:ry="17.5"
       d="m 220,341.59448 c 0,9.66499 -7.83502,17.5 -17.5,17.5 -9.66498,0 -17.5,-7.83501 -17.5,-17.5 0,-9.66498 7.83502,-17.5 17.5,-17.5 9.66498,0 17.5,7.83502 17.5,17.5 z"
       transform="matrix(0.68550103,0,0,0.68550103,-65.96973,489.62738)" />
    <path
       transform="matrix(0.68550103,0,0,0.68550103,60.58945,489.62738)"
       d="m 220,341.59448 c 0,9.66499 -7.83502,17.5 -17.5,17.5 -9.66498,0 -17.5,-7.83501 -17.5,-17.5 0,-9.66498 7.83502,-17.5 17.5,-17.5 9.66498,0 17.5,7.83502 17.5,17.5 z"
       sodipodi:ry="17.5"
       sodipodi:rx="17.5"
       sodipodi:cy="341.59448"
       sodipodi:cx="202.5"
       id="path2996"
       style="fill:#b3b3b3;fill-opacity:1;stroke:#000000;stroke-width:3.54330707000000000;stroke-linecap:butt;stroke-linejoin:round;stroke-miterlimit:4;stroke-opacity:1;stroke-dasharray:none;stroke-dashoffset:0"
       sodipodi:type="arc" />
    <path
       sodipodi:type="arc"
       style="fill:#b3b3b3;fill-opacity:1;stroke:#000000;stroke-width:3.54330707000000000;stroke-linecap:butt;stroke-linejoin:round;stroke-miterlimit:4;stroke-opacity:1;stroke-dasharray:none;stroke-dashoffset:0"
       id="path2998"
       sodipodi:cx="202.5"
       sodipodi:cy="341.59448"
       sodipodi:rx="17.5"
       sodipodi:ry="17.5"
       d="m 220,341.59448 c 0,9.66499 -7.83502,17.5 -17.5,17.5 -9.66498,0 -17.5,-7.83501 -17.5,-17.5 0,-9.66498 7.83502,-17.5 17.5,-17.5 9.66498,0 17.5,7.83502 17.5,17.5 z"
       transform="matrix(0.68550103,0,0,0.68550103,144.96224,489.62738)" />
    <path
       transform="matrix(0.68550103,0,0,0.68550103,229.33501,489.62738)"
       d="m 220,341.59448 c 0,9.66499 -7.83502,17.5 -17.5,17.5 -9.66498,0 -17.5,-7.83501 -17.5,-17.5 0,-9.66498 7.83502,-17.5 17.5,-17.5 9.66498,0 17.5,7.83502 17.5,17.5 z"
       sodipodi:ry="17.5"
       sodipodi:rx="17.5"
       sodipodi:cy="341.59448"
       sodipodi:cx="202.5"
       id="path3000"
       style="fill:#b3b3b3;fill-opacity:1;stroke:#000000;stroke-width:3.54330707000000000;stroke-linecap:butt;stroke-linejoin:round;stroke-miterlimit:4;stroke-opacity:1;stroke-dasharray:none;stroke-dashoffset:0"
       sodipodi:type="arc" />
    <path
       sodipodi:type="arc"
       style="fill:#b3b3b3;fill-opacity:1;stroke:#000000;stroke-width:3.54330707000000000;stroke-linecap:butt;stroke-linejoin:round;stroke-miterlimit:4;stroke-opacity:1;stroke-dasharray:none;stroke-dashoffset:0"
       id="path3002"
       sodipodi:cx="202.5"
       sodipodi:cy="341.59448"
       sodipodi:rx="17.5"
       sodipodi:ry="17.5"
       d="m 220,341.59448 c 0,9.66499 -7.83502,17.5 -17.5,17.5 -9.66498,0 -17.5,-7.83501 -17.5,-17.5 0,-9.66498 7.83502,-17.5 17.5,-17.5 9.66498,0 17.5,7.83502 17.5,17.5 z"
       transform="matrix(0.68550103,0,0,0.68550103,493.70782,489.62738)" />
    <path
       transform="matrix(0.68550103,0,0,0.68550103,578.08058,489.62738)"
       d="m 220,341.59448 c 0,9.66499 -7.83502,17.5 -17.5,17.5 -9.66498,0 -17.5,-7.83501 -17.5,-17.5 0,-9.66498 7.83502,-17.5 17.5,-17.5 9.66498,0 17.5,7.83502 17.5,17.5 z"
       sodipodi:ry="17.5"
       sodipodi:rx="17.5"
       sodipodi:cy="341.59448"
       sodipodi:cx="202.5"
       id="path3004"
       style="fill:#b3b3b3;fill-opacity:1;stroke:#000000;stroke-width:3.54330707000000000;stroke-linecap:butt;stroke-linejoin:round;stroke-miterlimit:4;stroke-opacity:1;stroke-dasharray:none;stroke-dashoffset:0"
       sodipodi:type="arc" />
    <path
       sodipodi:type="arc"
       style="fill:#b3b3b3;fill-opacity:1;stroke:#000000;stroke-width:3.54330707000000000;stroke-linecap:butt;stroke-linejoin:round;stroke-miterlimit:4;stroke-opacity:1;stroke-dasharray:none;stroke-dashoffset:0"
       id="path3006"
       sodipodi:cx="202.5"
       sodipodi:cy="341.59448"
       sodipodi:rx="17.5"
       sodipodi:ry="17.5"
       d="m 220,341.59448 c 0,9.66499 -7.83502,17.5 -17.5,17.5 -9.66498,0 -17.5,-7.83501 -17.5,-17.5 0,-9.66498 7.83502,-17.5 17.5,-17.5 9.66498,0 17.5,7.83502 17.5,17.5 z"
       transform="matrix(0.68550103,0,0,0.68550103,662.45336,489.62738)" />
    <path
       transform="matrix(0.68550103,0,0,0.68550103,-23.78334,489.62738)"
       d="m 220,341.59448 c 0,9.66499 -7.83502,17.5 -17.5,17.5 -9.66498,0 -17.5,-7.83501 -17.5,-17.5 0,-9.66498 7.83502,-17.5 17.5,-17.5 9.66498,0 17.5,7.83502 17.5,17.5 z"
       sodipodi:ry="17.5"
       sodipodi:rx="17.5"
       sodipodi:cy="341.59448"
       sodipodi:cx="202.5"
       id="path4924"
       style="fill:#b3b3b3;fill-opacity:1;stroke:#000000;stroke-width:3.54330707000000000;stroke-linecap:butt;stroke-linejoin:round;stroke-miterlimit:4;stroke-opacity:1;stroke-dasharray:none;stroke-dashoffset:0"
       sodipodi:type="arc" />
    <path
       sodipodi:type="arc"
       style="fill:#b3b3b3;fill-opacity:1;stroke:#000000;stroke-width:3.54330707000000000;stroke-linecap:butt;stroke-linejoin:round;stroke-miterlimit:4;stroke-opacity:1;stroke-dasharray:none;stroke-dashoffset:0"
       id="path4926"
       sodipodi:cx="202.5"
       sodipodi:cy="341.59448"
       sodipodi:rx="17.5"
       sodipodi:ry="17.5"
       d="m 220,341.59448 c 0,9.66499 -7.83502,17.5 -17.5,17.5 -9.66498,0 -17.5,-7.83501 -17.5,-17.5 0,-9.66498 7.83502,-17.5 17.5,-17.5 9.66498,0 17.5,7.83502 17.5,17.5 z"
       transform="matrix(0.68550103,0,0,0.68550103,18.40305,489.62738)" />
    <path
       transform="matrix(0.68550103,0,0,0.68550103,102.77584,489.62738)"
       d="m 220,341.59448 c 0,9.66499 -7.83502,17.5 -17.5,17.5 -9.66498,0 -17.5,-7.83501 -17.5,-17.5 0,-9.66498 7.83502,-17.5 17.5,-17.5 9.66498,0 17.5,7.83502 17.5,17.5 z"
       sodipodi:ry="17.5"
       sodipodi:rx="17.5"
       sodipodi:cy="341.59448"
       sodipodi:cx="202.5"
       id="path4928"
       style="fill:#b3b3b3;fill-opacity:1;stroke:#000000;stroke-width:3.54330707000000000;stroke-linecap:butt;stroke-linejoin:round;stroke-miterlimit:4;stroke-opacity:1;stroke-dasharray:none;stroke-dashoffset:0"
       sodipodi:type="arc" />
    <path
       sodipodi:type="arc"
       style="fill:#b3b3b3;fill-opacity:1;stroke:#000000;stroke-width:3.54330707000000000;stroke-linecap:butt;stroke-linejoin:round;stroke-miterlimit:4;stroke-opacity:1;stroke-dasharray:none;stroke-dashoffset:0"
       id="path4930"
       sodipodi:cx="202.5"
       sodipodi:cy="341.59448"
       sodipodi:rx="17.5"
       sodipodi:ry="17.5"
       d="m 220,341.59448 c 0,9.66499 -7.83502,17.5 -17.5,17.5 -9.66498,0 -17.5,-7.83501 -17.5,-17.5 0,-9.66498 7.83502,-17.5 17.5,-17.5 9.66498,0 17.5,7.83502 17.5,17.5 z"
       transform="matrix(0.68550103,0,0,0.68550103,187.14863,489.62738)" />
    <path
       transform="matrix(0.68550103,0,0,0.68550103,271.52142,489.62738)"
       d="m 220,341.59448 c 0,9.66499 -7.83502,17.5 -17.5,17.5 -9.66498,0 -17.5,-7.83501 -17.5,-17.5 0,-9.66498 7.83502,-17.5 17.5,-17.5 9.66498,0 17.5,7.83502 17.5,17.5 z"
       sodipodi:ry="17.5"
       sodipodi:rx="17.5"
       sodipodi:cy="341.59448"
       sodipodi:cx="202.5"
       id="path4932"
       style="fill:#b3b3b3;fill-opacity:1;stroke:#000000;stroke-width:3.54330707000000000;stroke-linecap:butt;stroke-linejoin:round;stroke-miterlimit:4;stroke-opacity:1;stroke-dasharray:none;stroke-dashoffset:0"
       sodipodi:type="arc" />
    <path
       sodipodi:type="arc"
       style="fill:#b3b3b3;fill-opacity:1;stroke:#000000;stroke-width:3.54330707000000000;stroke-linecap:butt;stroke-linejoin:round;stroke-miterlimit:4;stroke-opacity:1;stroke-dasharray:none;stroke-dashoffset:0"
       id="path4934"
       sodipodi:cx="202.5"
       sodipodi:cy="341.59448"
       sodipodi:rx="17.5"
       sodipodi:ry="17.5"
       d="m 220,341.59448 c 0,9.66499 -7.83502,17.5 -17.5,17.5 -9.66498,0 -17.5,-7.83501 -17.5,-17.5 0,-9.66498 7.83502,-17.5 17.5,-17.5 9.66498,0 17.5,7.83502 17.5,17.5 z"
       transform="matrix(0.68550103,0,0,0.68550103,535.89421,489.62738)" />
    <path
       transform="matrix(0.68550103,0,0,0.68550103,620.26699,489.62738)"
       d="m 220,341.59448 c 0,9.66499 -7.83502,17.5 -17.5,17.5 -9.66498,0 -17.5,-7.83501 -17.5,-17.5 0,-9.66498 7.83502,-17.5 17.5,-17.5 9.66498,0 17.5,7.83502 17.5,17.5 z"
       sodipodi:ry="17.5"
       sodipodi:rx="17.5"
       sodipodi:cy="341.59448"
       sodipodi:cx="202.5"
       id="path4936"
       style="fill:#b3b3b3;fill-opacity:1;stroke:#000000;stroke-width:3.54330707000000000;stroke-linecap:butt;stroke-linejoin:round;stroke-miterlimit:4;stroke-opacity:1;stroke-dasharray:none;stroke-dashoffset:0"
       sodipodi:type="arc" />
    <path
       sodipodi:type="arc"
       style="fill:#b3b3b3;fill-opacity:1;stroke:#000000;stroke-width:3.54330707000000000;stroke-linecap:butt;stroke-linejoin:round;stroke-miterlimit:4;stroke-opacity:1;stroke-dasharray:none;stroke-dashoffset:0"
       id="path4938"
       sodipodi:cx="202.5"
       sodipodi:cy="341.59448"
       sodipodi:rx="17.5"
       sodipodi:ry="17.5"
       d="m 220,341.59448 c 0,9.66499 -7.83502,17.5 -17.5,17.5 -9.66498,0 -17.5,-7.83501 -17.5,-17.5 0,-9.66498 7.83502,-17.5 17.5,-17.5 9.66498,0 17.5,7.83502 17.5,17.5 z"
       transform="matrix(0.68550103,0,0,0.68550103,789.01254,489.62738)" />
    <path
       transform="matrix(0.68550103,0,0,0.68550103,831.19896,489.62738)"
       d="m 220,341.59448 c 0,9.66499 -7.83502,17.5 -17.5,17.5 -9.66498,0 -17.5,-7.83501 -17.5,-17.5 0,-9.66498 7.83502,-17.5 17.5,-17.5 9.66498,0 17.5,7.83502 17.5,17.5 z"
       sodipodi:ry="17.5"
       sodipodi:rx="17.5"
       sodipodi:cy="341.59448"
       sodipodi:cx="202.5"
       id="path4940"
       style="fill:#b3b3b3;fill-opacity:1;stroke:#000000;stroke-width:3.54330707000000000;stroke-linecap:butt;stroke-linejoin:round;stroke-miterlimit:4;stroke-opacity:1;stroke-dasharray:none;stroke-dashoffset:0"
       sodipodi:type="arc" />
    <path
       sodipodi:type="arc"
       style="fill:#b3b3b3;fill-opacity:1;stroke:#000000;stroke-width:3.54330707000000000;stroke-linecap:butt;stroke-linejoin:round;stroke-miterlimit:4;stroke-opacity:1;stroke-dasharray:none;stroke-dashoffset:0"
       id="path4942"
       sodipodi:cx="202.5"
       sodipodi:cy="341.59448"
       sodipodi:rx="17.5"
       sodipodi:ry="17.5"
       d="m 220,341.59448 c 0,9.66499 -7.83502,17.5 -17.5,17.5 -9.66498,0 -17.5,-7.83501 -17.5,-17.5 0,-9.66498 7.83502,-17.5 17.5,-17.5 9.66498,0 17.5,7.83502 17.5,17.5 z"
       transform="matrix(0.68550103,0,0,0.68550103,704.63977,489.62738)" />
    <path
       transform="matrix(0.68550103,0,0,0.68550103,746.82616,489.62738)"
       d="m 220,341.59448 c 0,9.66499 -7.83502,17.5 -17.5,17.5 -9.66498,0 -17.5,-7.83501 -17.5,-17.5 0,-9.66498 7.83502,-17.5 17.5,-17.5 9.66498,0 17.5,7.83502 17.5,17.5 z"
       sodipodi:ry="17.5"
       sodipodi:rx="17.5"
       sodipodi:cy="341.59448"
       sodipodi:cx="202.5"
       id="path4944"
       style="fill:#b3b3b3;fill-opacity:1;stroke:#000000;stroke-width:3.54330707000000000;stroke-linecap:butt;stroke-linejoin:round;stroke-miterlimit:4;stroke-opacity:1;stroke-dasharray:none;stroke-dashoffset:0"
       sodipodi:type="arc" />
    <path
       sodipodi:type="arc"
       style="fill:#b3b3b3;fill-opacity:1;stroke:#000000;stroke-width:3.54330707000000000;stroke-linecap:butt;stroke-linejoin:round;stroke-miterlimit:4;stroke-opacity:1;stroke-dasharray:none;stroke-dashoffset:0"
       id="path2991-2"
       sodipodi:cx="202.5"
       sodipodi:cy="341.59448"
       sodipodi:rx="17.5"
       sodipodi:ry="17.5"
       d="m 220,341.59448 c 0,9.66499 -7.83502,17.5 -17.5,17.5 -9.66498,0 -17.5,-7.83501 -17.5,-17.5 0,-9.66498 7.83502,-17.5 17.5,-17.5 9.66498,0 17.5,7.83502 17.5,17.5 z"
       transform="matrix(0.68550103,0,0,0.68550103,11.718579,288.87378)" />
    <path
       transform="matrix(0.68550103,0,0,0.68550103,138.27776,288.87378)"
       d="m 220,341.59448 c 0,9.66499 -7.83502,17.5 -17.5,17.5 -9.66498,0 -17.5,-7.83501 -17.5,-17.5 0,-9.66498 7.83502,-17.5 17.5,-17.5 9.66498,0 17.5,7.83502 17.5,17.5 z"
       sodipodi:ry="17.5"
       sodipodi:rx="17.5"
       sodipodi:cy="341.59448"
       sodipodi:cx="202.5"
       id="path2996-5"
       style="fill:#b3b3b3;fill-opacity:1;stroke:#000000;stroke-width:3.54330707000000000;stroke-linecap:butt;stroke-linejoin:round;stroke-miterlimit:4;stroke-opacity:1;stroke-dasharray:none;stroke-dashoffset:0"
       sodipodi:type="arc" />
    <path
       sodipodi:type="arc"
       style="fill:#b3b3b3;fill-opacity:1;stroke:#000000;stroke-width:3.54330707000000000;stroke-linecap:butt;stroke-linejoin:round;stroke-miterlimit:4;stroke-opacity:1;stroke-dasharray:none;stroke-dashoffset:0"
       id="path2998-0"
       sodipodi:cx="202.5"
       sodipodi:cy="341.59448"
       sodipodi:rx="17.5"
       sodipodi:ry="17.5"
       d="m 220,341.59448 c 0,9.66499 -7.83502,17.5 -17.5,17.5 -9.66498,0 -17.5,-7.83501 -17.5,-17.5 0,-9.66498 7.83502,-17.5 17.5,-17.5 9.66498,0 17.5,7.83502 17.5,17.5 z"
       transform="matrix(0.68550103,0,0,0.68550103,222.65055,288.87378)" />
    <path
       transform="matrix(0.68550103,0,0,0.68550103,307.02332,288.87378)"
       d="m 220,341.59448 c 0,9.66499 -7.83502,17.5 -17.5,17.5 -9.66498,0 -17.5,-7.83501 -17.5,-17.5 0,-9.66498 7.83502,-17.5 17.5,-17.5 9.66498,0 17.5,7.83502 17.5,17.5 z"
       sodipodi:ry="17.5"
       sodipodi:rx="17.5"
       sodipodi:cy="341.59448"
       sodipodi:cx="202.5"
       id="path3000-1"
       style="fill:#b3b3b3;fill-opacity:1;stroke:#000000;stroke-width:3.54330707000000000;stroke-linecap:butt;stroke-linejoin:round;stroke-miterlimit:4;stroke-opacity:1;stroke-dasharray:none;stroke-dashoffset:0"
       sodipodi:type="arc" />
    <path
       sodipodi:type="arc"
       style="fill:#b3b3b3;fill-opacity:1;stroke:#000000;stroke-width:3.54330707000000000;stroke-linecap:butt;stroke-linejoin:round;stroke-miterlimit:4;stroke-opacity:1;stroke-dasharray:none;stroke-dashoffset:0"
       id="path3002-4"
       sodipodi:cx="202.5"
       sodipodi:cy="341.59448"
       sodipodi:rx="17.5"
       sodipodi:ry="17.5"
       d="m 220,341.59448 c 0,9.66499 -7.83502,17.5 -17.5,17.5 -9.66498,0 -17.5,-7.83501 -17.5,-17.5 0,-9.66498 7.83502,-17.5 17.5,-17.5 9.66498,0 17.5,7.83502 17.5,17.5 z"
       transform="matrix(0.68550103,0,0,0.68550103,391.39613,288.87378)" />
    <path
       transform="matrix(0.68550103,0,0,0.68550103,475.76889,288.87378)"
       d="m 220,341.59448 c 0,9.66499 -7.83502,17.5 -17.5,17.5 -9.66498,0 -17.5,-7.83501 -17.5,-17.5 0,-9.66498 7.83502,-17.5 17.5,-17.5 9.66498,0 17.5,7.83502 17.5,17.5 z"
       sodipodi:ry="17.5"
       sodipodi:rx="17.5"
       sodipodi:cy="341.59448"
       sodipodi:cx="202.5"
       id="path3004-6"
       style="fill:#b3b3b3;fill-opacity:1;stroke:#000000;stroke-width:3.54330707000000000;stroke-linecap:butt;stroke-linejoin:round;stroke-miterlimit:4;stroke-opacity:1;stroke-dasharray:none;stroke-dashoffset:0"
       sodipodi:type="arc" />
    <path
       sodipodi:type="arc"
       style="fill:#b3b3b3;fill-opacity:1;stroke:#000000;stroke-width:3.54330707000000000;stroke-linecap:butt;stroke-linejoin:round;stroke-miterlimit:4;stroke-opacity:1;stroke-dasharray:none;stroke-dashoffset:0"
       id="path3006-3"
       sodipodi:cx="202.5"
       sodipodi:cy="341.59448"
       sodipodi:rx="17.5"
       sodipodi:ry="17.5"
       d="m 220,341.59448 c 0,9.66499 -7.83502,17.5 -17.5,17.5 -9.66498,0 -17.5,-7.83501 -17.5,-17.5 0,-9.66498 7.83502,-17.5 17.5,-17.5 9.66498,0 17.5,7.83502 17.5,17.5 z"
       transform="matrix(0.68550103,0,0,0.68550103,560.14167,288.87378)" />
    <path
       transform="matrix(0.68550103,0,0,0.68550103,53.904969,288.87378)"
       d="m 220,341.59448 c 0,9.66499 -7.83502,17.5 -17.5,17.5 -9.66498,0 -17.5,-7.83501 -17.5,-17.5 0,-9.66498 7.83502,-17.5 17.5,-17.5 9.66498,0 17.5,7.83502 17.5,17.5 z"
       sodipodi:ry="17.5"
       sodipodi:rx="17.5"
       sodipodi:cy="341.59448"
       sodipodi:cx="202.5"
       id="path4924-1"
       style="fill:#b3b3b3;fill-opacity:1;stroke:#000000;stroke-width:3.54330707000000000;stroke-linecap:butt;stroke-linejoin:round;stroke-miterlimit:4;stroke-opacity:1;stroke-dasharray:none;stroke-dashoffset:0"
       sodipodi:type="arc" />
    <path
       sodipodi:type="arc"
       style="fill:#b3b3b3;fill-opacity:1;stroke:#000000;stroke-width:3.54330707000000000;stroke-linecap:butt;stroke-linejoin:round;stroke-miterlimit:4;stroke-opacity:1;stroke-dasharray:none;stroke-dashoffset:0"
       id="path4926-6"
       sodipodi:cx="202.5"
       sodipodi:cy="341.59448"
       sodipodi:rx="17.5"
       sodipodi:ry="17.5"
       d="m 220,341.59448 c 0,9.66499 -7.83502,17.5 -17.5,17.5 -9.66498,0 -17.5,-7.83501 -17.5,-17.5 0,-9.66498 7.83502,-17.5 17.5,-17.5 9.66498,0 17.5,7.83502 17.5,17.5 z"
       transform="matrix(0.68550103,0,0,0.68550103,96.091359,288.87378)" />
    <path
       transform="matrix(0.68550103,0,0,0.68550103,180.46415,288.87378)"
       d="m 220,341.59448 c 0,9.66499 -7.83502,17.5 -17.5,17.5 -9.66498,0 -17.5,-7.83501 -17.5,-17.5 0,-9.66498 7.83502,-17.5 17.5,-17.5 9.66498,0 17.5,7.83502 17.5,17.5 z"
       sodipodi:ry="17.5"
       sodipodi:rx="17.5"
       sodipodi:cy="341.59448"
       sodipodi:cx="202.5"
       id="path4928-5"
       style="fill:#b3b3b3;fill-opacity:1;stroke:#000000;stroke-width:3.54330707000000000;stroke-linecap:butt;stroke-linejoin:round;stroke-miterlimit:4;stroke-opacity:1;stroke-dasharray:none;stroke-dashoffset:0"
       sodipodi:type="arc" />
    <path
       sodipodi:type="arc"
       style="fill:#b3b3b3;fill-opacity:1;stroke:#000000;stroke-width:3.54330707000000000;stroke-linecap:butt;stroke-linejoin:round;stroke-miterlimit:4;stroke-opacity:1;stroke-dasharray:none;stroke-dashoffset:0"
       id="path4930-4"
       sodipodi:cx="202.5"
       sodipodi:cy="341.59448"
       sodipodi:rx="17.5"
       sodipodi:ry="17.5"
       d="m 220,341.59448 c 0,9.66499 -7.83502,17.5 -17.5,17.5 -9.66498,0 -17.5,-7.83501 -17.5,-17.5 0,-9.66498 7.83502,-17.5 17.5,-17.5 9.66498,0 17.5,7.83502 17.5,17.5 z"
       transform="matrix(0.68550103,0,0,0.68550103,264.83694,288.87378)" />
    <path
       transform="matrix(0.68550103,0,0,0.68550103,349.20973,288.87378)"
       d="m 220,341.59448 c 0,9.66499 -7.83502,17.5 -17.5,17.5 -9.66498,0 -17.5,-7.83501 -17.5,-17.5 0,-9.66498 7.83502,-17.5 17.5,-17.5 9.66498,0 17.5,7.83502 17.5,17.5 z"
       sodipodi:ry="17.5"
       sodipodi:rx="17.5"
       sodipodi:cy="341.59448"
       sodipodi:cx="202.5"
       id="path4932-1"
       style="fill:#b3b3b3;fill-opacity:1;stroke:#000000;stroke-width:3.54330707000000000;stroke-linecap:butt;stroke-linejoin:round;stroke-miterlimit:4;stroke-opacity:1;stroke-dasharray:none;stroke-dashoffset:0"
       sodipodi:type="arc" />
    <path
       sodipodi:type="arc"
       style="fill:#b3b3b3;fill-opacity:1;stroke:#000000;stroke-width:3.54330707000000000;stroke-linecap:butt;stroke-linejoin:round;stroke-miterlimit:4;stroke-opacity:1;stroke-dasharray:none;stroke-dashoffset:0"
       id="path4934-4"
       sodipodi:cx="202.5"
       sodipodi:cy="341.59448"
       sodipodi:rx="17.5"
       sodipodi:ry="17.5"
       d="m 220,341.59448 c 0,9.66499 -7.83502,17.5 -17.5,17.5 -9.66498,0 -17.5,-7.83501 -17.5,-17.5 0,-9.66498 7.83502,-17.5 17.5,-17.5 9.66498,0 17.5,7.83502 17.5,17.5 z"
       transform="matrix(0.68550103,0,0,0.68550103,433.58252,288.87378)" />
    <path
       transform="matrix(0.68550103,0,0,0.68550103,517.9553,288.87378)"
       d="m 220,341.59448 c 0,9.66499 -7.83502,17.5 -17.5,17.5 -9.66498,0 -17.5,-7.83501 -17.5,-17.5 0,-9.66498 7.83502,-17.5 17.5,-17.5 9.66498,0 17.5,7.83502 17.5,17.5 z"
       sodipodi:ry="17.5"
       sodipodi:rx="17.5"
       sodipodi:cy="341.59448"
       sodipodi:cx="202.5"
       id="path4936-9"
       style="fill:#b3b3b3;fill-opacity:1;stroke:#000000;stroke-width:3.54330707000000000;stroke-linecap:butt;stroke-linejoin:round;stroke-miterlimit:4;stroke-opacity:1;stroke-dasharray:none;stroke-dashoffset:0"
       sodipodi:type="arc" />
    <path
       sodipodi:type="arc"
       style="fill:#b3b3b3;fill-opacity:1;stroke:#000000;stroke-width:3.54330707000000000;stroke-linecap:butt;stroke-linejoin:round;stroke-miterlimit:4;stroke-opacity:1;stroke-dasharray:none;stroke-dashoffset:0"
       id="path4938-4"
       sodipodi:cx="202.5"
       sodipodi:cy="341.59448"
       sodipodi:rx="17.5"
       sodipodi:ry="17.5"
       d="m 220,341.59448 c 0,9.66499 -7.83502,17.5 -17.5,17.5 -9.66498,0 -17.5,-7.83501 -17.5,-17.5 0,-9.66498 7.83502,-17.5 17.5,-17.5 9.66498,0 17.5,7.83502 17.5,17.5 z"
       transform="matrix(0.68550103,0,0,0.68550103,686.70085,288.87378)" />
    <path
       transform="matrix(0.68550103,0,0,0.68550103,728.88727,288.87378)"
       d="m 220,341.59448 c 0,9.66499 -7.83502,17.5 -17.5,17.5 -9.66498,0 -17.5,-7.83501 -17.5,-17.5 0,-9.66498 7.83502,-17.5 17.5,-17.5 9.66498,0 17.5,7.83502 17.5,17.5 z"
       sodipodi:ry="17.5"
       sodipodi:rx="17.5"
       sodipodi:cy="341.59448"
       sodipodi:cx="202.5"
       id="path4940-8"
       style="fill:#b3b3b3;fill-opacity:1;stroke:#000000;stroke-width:3.54330707000000000;stroke-linecap:butt;stroke-linejoin:round;stroke-miterlimit:4;stroke-opacity:1;stroke-dasharray:none;stroke-dashoffset:0"
       sodipodi:type="arc" />
    <path
       sodipodi:type="arc"
       style="fill:#b3b3b3;fill-opacity:1;stroke:#000000;stroke-width:3.54330707000000000;stroke-linecap:butt;stroke-linejoin:round;stroke-miterlimit:4;stroke-opacity:1;stroke-dasharray:none;stroke-dashoffset:0"
       id="path4942-6"
       sodipodi:cx="202.5"
       sodipodi:cy="341.59448"
       sodipodi:rx="17.5"
       sodipodi:ry="17.5"
       d="m 220,341.59448 c 0,9.66499 -7.83502,17.5 -17.5,17.5 -9.66498,0 -17.5,-7.83501 -17.5,-17.5 0,-9.66498 7.83502,-17.5 17.5,-17.5 9.66498,0 17.5,7.83502 17.5,17.5 z"
       transform="matrix(0.68550103,0,0,0.68550103,602.32808,288.87378)" />
    <path
       transform="matrix(0.68550103,0,0,0.68550103,644.51447,288.87378)"
       d="m 220,341.59448 c 0,9.66499 -7.83502,17.5 -17.5,17.5 -9.66498,0 -17.5,-7.83501 -17.5,-17.5 0,-9.66498 7.83502,-17.5 17.5,-17.5 9.66498,0 17.5,7.83502 17.5,17.5 z"
       sodipodi:ry="17.5"
       sodipodi:rx="17.5"
       sodipodi:cy="341.59448"
       sodipodi:cx="202.5"
       id="path4944-7"
       style="fill:#b3b3b3;fill-opacity:1;stroke:#000000;stroke-width:3.54330707000000000;stroke-linecap:butt;stroke-linejoin:round;stroke-miterlimit:4;stroke-opacity:1;stroke-dasharray:none;stroke-dashoffset:0"
       sodipodi:type="arc" />
    <path
       style="fill:none;stroke:#000000;stroke-width:1px;stroke-linecap:butt;stroke-linejoin:miter;stroke-opacity:1;marker-end:url(#Arrow1Mend)"
       d="m 435,557.36218 -50,60"
       id="path5866"
       inkscape:connector-curvature="0" />
    <path
       inkscape:connector-curvature="0"
       id="path6314"
       d="m 584.60982,557.36218 50,60"
       style="fill:none;stroke:#000000;stroke-width:1px;stroke-linecap:butt;stroke-linejoin:miter;stroke-opacity:1;marker-end:url(#Arrow1Mend)" />
    <flowRoot
       xml:space="preserve"
       id="flowRoot6316"
       style="font-size:20px;font-style:normal;font-variant:normal;font-weight:normal;font-stretch:normal;line-height:125%;letter-spacing:0px;word-spacing:0px;fill:#000000;fill-opacity:1;stroke:none;font-family:Latin Modern Math;-inkscape-font-specification:Latin Modern Math"
       transform="matrix(1.4409222,0,0,1.4409222,-39.698865,306.4873)"><flowRegion
         id="flowRegion6318"><rect
           id="rect6320"
           width="267.69043"
           height="48.487324"
           x="66.670067"
           y="240.02837" /></flowRegion><flowPara
         id="flowPara6322">Process 1</flowPara></flowRoot>    <flowRoot
       transform="matrix(1.4409222,0,0,1.4409222,522.30113,306.4873)"
       style="font-size:20px;font-style:normal;font-variant:normal;font-weight:normal;font-stretch:normal;line-height:125%;letter-spacing:0px;word-spacing:0px;fill:#000000;fill-opacity:1;stroke:none;font-family:Latin Modern Math;-inkscape-font-specification:Latin Modern Math"
       id="flowRoot6324"
       xml:space="preserve"><flowRegion
         id="flowRegion6326"><rect
           y="240.02837"
           x="66.670067"
           height="48.487324"
           width="267.69043"
           id="rect6328" /></flowRegion><flowPara
         id="flowPara6330">Process 2</flowPara></flowRoot>    <text
       xml:space="preserve"
       style="font-size:20px;font-style:normal;font-variant:normal;font-weight:normal;font-stretch:normal;line-height:125%;letter-spacing:0px;word-spacing:0px;fill:#000000;fill-opacity:1;stroke:none;font-family:Latin Modern Math;-inkscape-font-specification:Latin Modern Math"
       x="963.68555"
       y="536.16913"
       id="text6332"
       sodipodi:linespacing="125%"><tspan
         sodipodi:role="line"
         id="tspan6334"
         x="963.68555"
         y="536.16913" /></text>
  </g>
</svg>
