<?xml version="1.0" encoding="UTF-8" standalone="no"?>
<!-- Created with Inkscape (http://www.inkscape.org/) -->

<svg
   xmlns:dc="http://purl.org/dc/elements/1.1/"
   xmlns:cc="http://creativecommons.org/ns#"
   xmlns:rdf="http://www.w3.org/1999/02/22-rdf-syntax-ns#"
   xmlns:svg="http://www.w3.org/2000/svg"
   xmlns="http://www.w3.org/2000/svg"
   xmlns:sodipodi="http://sodipodi.sourceforge.net/DTD/sodipodi-0.dtd"
   xmlns:inkscape="http://www.inkscape.org/namespaces/inkscape"
   width="1052.3622"
   height="744.09448"
   id="svg5117"
   version="1.1"
   inkscape:version="0.48.4 r9939"
   sodipodi:docname="single-line-of-processes.eps">
  <defs
     id="defs5119">
    <inkscape:path-effect
       effect="construct_grid"
       id="path-effect5255"
       is_visible="true"
       nr_x="4"
       nr_y="4" />
    <inkscape:path-effect
       nr_y="4"
       nr_x="4"
       is_visible="true"
       id="path-effect5253"
       effect="construct_grid" />
    <inkscape:path-effect
       effect="construct_grid"
       id="path-effect5251"
       is_visible="true"
       nr_x="4"
       nr_y="4" />
    <inkscape:path-effect
       nr_y="4"
       nr_x="4"
       is_visible="true"
       id="path-effect5249"
       effect="construct_grid" />
    <inkscape:path-effect
       nr_y="4"
       nr_x="4"
       is_visible="true"
       id="path-effect5231"
       effect="construct_grid" />
    <inkscape:path-effect
       effect="construct_grid"
       id="path-effect5229"
       is_visible="true"
       nr_x="4"
       nr_y="4" />
    <inkscape:path-effect
       nr_y="4"
       nr_x="4"
       is_visible="true"
       id="path-effect5227"
       effect="construct_grid" />
    <inkscape:path-effect
       effect="construct_grid"
       id="path-effect5225"
       is_visible="true"
       nr_x="4"
       nr_y="4" />
    <inkscape:path-effect
       effect="construct_grid"
       id="path-effect5207"
       is_visible="true"
       nr_x="4"
       nr_y="4" />
    <inkscape:path-effect
       nr_y="4"
       nr_x="4"
       is_visible="true"
       id="path-effect5205"
       effect="construct_grid" />
    <inkscape:path-effect
       effect="construct_grid"
       id="path-effect5203"
       is_visible="true"
       nr_x="4"
       nr_y="4" />
    <inkscape:path-effect
       nr_y="4"
       nr_x="4"
       is_visible="true"
       id="path-effect5201"
       effect="construct_grid" />
    <inkscape:path-effect
       nr_y="4"
       nr_x="4"
       is_visible="true"
       id="path-effect5183"
       effect="construct_grid" />
    <inkscape:path-effect
       effect="construct_grid"
       id="path-effect5177"
       is_visible="true"
       nr_x="4"
       nr_y="4" />
    <inkscape:path-effect
       nr_y="4"
       nr_x="4"
       is_visible="true"
       id="path-effect5171"
       effect="construct_grid" />
    <inkscape:path-effect
       effect="construct_grid"
       id="path-effect3152"
       is_visible="true"
       nr_x="4"
       nr_y="4" />
  </defs>
  <sodipodi:namedview
     id="base"
     pagecolor="#ffffff"
     bordercolor="#666666"
     borderopacity="1.0"
     inkscape:pageopacity="0.0"
     inkscape:pageshadow="2"
     inkscape:zoom="0.7"
     inkscape:cx="350.43666"
     inkscape:cy="433.11209"
     inkscape:document-units="px"
     inkscape:current-layer="layer1"
     showgrid="false"
     inkscape:window-width="1366"
     inkscape:window-height="713"
     inkscape:window-x="0"
     inkscape:window-y="30"
     inkscape:window-maximized="1">
    <inkscape:grid
       type="xygrid"
       id="grid5257"
       empspacing="5"
       visible="true"
       enabled="true"
       snapvisiblegridlinesonly="true" />
  </sodipodi:namedview>
  <metadata
     id="metadata5122">
    <rdf:RDF>
      <cc:Work
         rdf:about="">
        <dc:format>image/svg+xml</dc:format>
        <dc:type
           rdf:resource="http://purl.org/dc/dcmitype/StillImage" />
        <dc:title></dc:title>
      </cc:Work>
    </rdf:RDF>
  </metadata>
  <g
     inkscape:label="Layer 1"
     inkscape:groupmode="layer"
     id="layer1"
     transform="translate(0,-308.2677)">
    <rect
       y="-337.51181"
       x="434.09219"
       height="90.144295"
       width="90.144295"
       id="rect3148"
       style="fill:#ffffff;fill-opacity:1;stroke:#241f1c;stroke-width:3.99261141;stroke-linecap:butt;stroke-linejoin:round;stroke-miterlimit:4;stroke-opacity:1;stroke-dasharray:none;stroke-dashoffset:0"
       transform="matrix(0,1,-1,0,0,0)" />
    <path
       style="fill:none;stroke:#000000;stroke-width:1.12680376px;stroke-linecap:butt;stroke-linejoin:miter;stroke-opacity:1"
       d="m 247.36752,434.09218 90.14432,-4e-5 m -90.14431,22.53611 90.14432,-4e-5 m -90.14431,22.53611 90.14432,-4e-5 m -90.14431,22.53611 90.14432,-4e-5 m -90.14431,22.53611 90.14432,-4e-5 m -90.14436,-90.14424 4e-5,90.14428 m 22.53604,-90.14429 4e-5,90.14428 m 22.53604,-90.14429 4e-5,90.14428 m 22.53604,-90.14429 4e-5,90.14428 m 22.53604,-90.14429 4e-5,90.14428"
       id="path3150"
       inkscape:connector-curvature="0"
       inkscape:path-effect="#path-effect3152"
       inkscape:original-d="m 269.9036,434.09217 -22.53608,10e-6 10e-6,22.53607 22.53607,0 z" />
    <path
       style="fill:none;stroke:#000000;stroke-width:1px;stroke-linecap:butt;stroke-linejoin:miter;stroke-opacity:1"
       d="m 274.28571,397.8864 440,0 -10,-10"
       id="path3245"
       inkscape:connector-curvature="0" />
    <path
       style="fill:none;stroke:#000000;stroke-width:1px;stroke-linecap:butt;stroke-linejoin:miter;stroke-opacity:1"
       d="m 714.28571,397.8864 -10,10"
       id="path3247"
       inkscape:connector-curvature="0" />
    <flowRoot
       xml:space="preserve"
       id="flowRoot3249"
       style="font-size:20px;font-style:normal;font-variant:normal;font-weight:normal;font-stretch:normal;line-height:125%;letter-spacing:0px;word-spacing:0px;fill:#000000;fill-opacity:1;stroke:none;font-family:Latin Modern Math;-inkscape-font-specification:Latin Modern Math"
       transform="translate(94.285714,105.5242)"><flowRegion
         id="flowRegion3251"><rect
           id="rect3253"
           width="380"
           height="51.428566"
           x="260"
           y="252.36218" /></flowRegion><flowPara
         id="flowPara3255">Direction of derivative evalutaion</flowPara></flowRoot>    <rect
       transform="matrix(0,1,-1,0,0,0)"
       style="fill:#ffffff;fill-opacity:1;stroke:#241f1c;stroke-width:3.99261141;stroke-linecap:butt;stroke-linejoin:round;stroke-miterlimit:4;stroke-opacity:1;stroke-dasharray:none;stroke-dashoffset:0"
       id="rect5167"
       width="90.144295"
       height="90.144295"
       x="434.09219"
       y="-477.51181" />
    <path
       inkscape:original-d="m 409.9036,434.09217 -22.53608,10e-6 10e-6,22.53607 22.53607,0 z"
       inkscape:path-effect="#path-effect5171"
       inkscape:connector-curvature="0"
       id="path5169"
       d="m 387.36752,434.09218 90.14432,-4e-5 m -90.14431,22.53611 90.14432,-4e-5 m -90.14431,22.53611 90.14432,-4e-5 m -90.14431,22.53611 90.14432,-4e-5 m -90.14431,22.53611 90.14432,-4e-5 m -90.14436,-90.14424 4e-5,90.14428 m 22.53604,-90.14429 4e-5,90.14428 m 22.53604,-90.14429 4e-5,90.14428 m 22.53604,-90.14429 4e-5,90.14428 m 22.53604,-90.14429 4e-5,90.14428"
       style="fill:none;stroke:#000000;stroke-width:1.12680376px;stroke-linecap:butt;stroke-linejoin:miter;stroke-opacity:1" />
    <rect
       y="-617.51184"
       x="434.09219"
       height="90.144295"
       width="90.144295"
       id="rect5173"
       style="fill:#ffffff;fill-opacity:1;stroke:#241f1c;stroke-width:3.99261141;stroke-linecap:butt;stroke-linejoin:round;stroke-miterlimit:4;stroke-opacity:1;stroke-dasharray:none;stroke-dashoffset:0"
       transform="matrix(0,1,-1,0,0,0)" />
    <path
       style="fill:none;stroke:#000000;stroke-width:1.12680376px;stroke-linecap:butt;stroke-linejoin:miter;stroke-opacity:1"
       d="m 527.36752,434.09218 90.14432,-4e-5 m -90.14431,22.53611 90.14432,-4e-5 m -90.14431,22.53611 90.14432,-4e-5 m -90.14431,22.53611 90.14432,-4e-5 m -90.14431,22.53611 90.14432,-4e-5 m -90.14436,-90.14424 4e-5,90.14428 m 22.53604,-90.14429 4e-5,90.14428 m 22.53604,-90.14429 4e-5,90.14428 m 22.53604,-90.14429 4e-5,90.14428 m 22.53604,-90.14429 4e-5,90.14428"
       id="path5175"
       inkscape:connector-curvature="0"
       inkscape:path-effect="#path-effect5177"
       inkscape:original-d="m 549.9036,434.09217 -22.53608,10e-6 10e-6,22.53607 22.53607,0 z" />
    <rect
       transform="matrix(0,1,-1,0,0,0)"
       style="fill:#ffffff;fill-opacity:1;stroke:#241f1c;stroke-width:3.99261141;stroke-linecap:butt;stroke-linejoin:round;stroke-miterlimit:4;stroke-opacity:1;stroke-dasharray:none;stroke-dashoffset:0"
       id="rect5179"
       width="90.144295"
       height="90.144295"
       x="434.09219"
       y="-757.51184" />
    <path
       inkscape:original-d="m 689.9036,434.09217 -22.53608,10e-6 10e-6,22.53607 22.53607,0 z"
       inkscape:path-effect="#path-effect5183"
       inkscape:connector-curvature="0"
       id="path5181"
       d="m 667.36752,434.09218 90.14432,-4e-5 m -90.14431,22.53611 90.14432,-4e-5 m -90.14431,22.53611 90.14432,-4e-5 m -90.14431,22.53611 90.14432,-4e-5 m -90.14431,22.53611 90.14432,-4e-5 m -90.14436,-90.14424 4e-5,90.14428 m 22.53604,-90.14429 4e-5,90.14428 m 22.53604,-90.14429 4e-5,90.14428 m 22.53604,-90.14429 4e-5,90.14428 m 22.53604,-90.14429 4e-5,90.14428"
       style="fill:none;stroke:#000000;stroke-width:1.12680376px;stroke-linecap:butt;stroke-linejoin:miter;stroke-opacity:1" />
    <rect
       transform="matrix(0,1,-1,0,0,0)"
       style="fill:#ffffff;fill-opacity:1;stroke:#241f1c;stroke-width:3.99261141;stroke-linecap:butt;stroke-linejoin:round;stroke-miterlimit:4;stroke-opacity:1;stroke-dasharray:none;stroke-dashoffset:0"
       id="rect5185"
       width="90.144295"
       height="90.144295"
       x="574.09216"
       y="-337.51181" />
    <path
       inkscape:original-d="m 269.9036,574.09217 -22.53608,10e-6 10e-6,22.53607 22.53607,0 z"
       inkscape:path-effect="#path-effect5201"
       inkscape:connector-curvature="0"
       id="path5187"
       d="m 247.36752,574.09218 90.14432,-4e-5 m -90.14431,22.53611 90.14432,-4e-5 m -90.14431,22.53611 90.14432,-4e-5 m -90.14431,22.53611 90.14432,-4e-5 m -90.14431,22.53611 90.14432,-4e-5 m -90.14436,-90.14424 4e-5,90.14428 m 22.53604,-90.14429 4e-5,90.14428 m 22.53604,-90.14429 4e-5,90.14428 m 22.53604,-90.14429 4e-5,90.14428 m 22.53604,-90.14429 4e-5,90.14428"
       style="fill:none;stroke:#000000;stroke-width:1.12680376px;stroke-linecap:butt;stroke-linejoin:miter;stroke-opacity:1" />
    <rect
       y="-477.51181"
       x="574.09216"
       height="90.144295"
       width="90.144295"
       id="rect5189"
       style="fill:#ffffff;fill-opacity:1;stroke:#241f1c;stroke-width:3.99261141;stroke-linecap:butt;stroke-linejoin:round;stroke-miterlimit:4;stroke-opacity:1;stroke-dasharray:none;stroke-dashoffset:0"
       transform="matrix(0,1,-1,0,0,0)" />
    <path
       style="fill:none;stroke:#000000;stroke-width:1.12680376px;stroke-linecap:butt;stroke-linejoin:miter;stroke-opacity:1"
       d="m 387.36752,574.09218 90.14432,-4e-5 m -90.14431,22.53611 90.14432,-4e-5 m -90.14431,22.53611 90.14432,-4e-5 m -90.14431,22.53611 90.14432,-4e-5 m -90.14431,22.53611 90.14432,-4e-5 m -90.14436,-90.14424 4e-5,90.14428 m 22.53604,-90.14429 4e-5,90.14428 m 22.53604,-90.14429 4e-5,90.14428 m 22.53604,-90.14429 4e-5,90.14428 m 22.53604,-90.14429 4e-5,90.14428"
       id="path5191"
       inkscape:connector-curvature="0"
       inkscape:path-effect="#path-effect5203"
       inkscape:original-d="m 409.9036,574.09217 -22.53608,10e-6 10e-6,22.53607 22.53607,0 z" />
    <rect
       transform="matrix(0,1,-1,0,0,0)"
       style="fill:#ffffff;fill-opacity:1;stroke:#241f1c;stroke-width:3.99261141;stroke-linecap:butt;stroke-linejoin:round;stroke-miterlimit:4;stroke-opacity:1;stroke-dasharray:none;stroke-dashoffset:0"
       id="rect5193"
       width="90.144295"
       height="90.144295"
       x="574.09216"
       y="-617.51184" />
    <path
       inkscape:original-d="m 549.9036,574.09217 -22.53608,10e-6 10e-6,22.53607 22.53607,0 z"
       inkscape:path-effect="#path-effect5205"
       inkscape:connector-curvature="0"
       id="path5195"
       d="m 527.36752,574.09218 90.14432,-4e-5 m -90.14431,22.53611 90.14432,-4e-5 m -90.14431,22.53611 90.14432,-4e-5 m -90.14431,22.53611 90.14432,-4e-5 m -90.14431,22.53611 90.14432,-4e-5 m -90.14436,-90.14424 4e-5,90.14428 m 22.53604,-90.14429 4e-5,90.14428 m 22.53604,-90.14429 4e-5,90.14428 m 22.53604,-90.14429 4e-5,90.14428 m 22.53604,-90.14429 4e-5,90.14428"
       style="fill:none;stroke:#000000;stroke-width:1.12680376px;stroke-linecap:butt;stroke-linejoin:miter;stroke-opacity:1" />
    <rect
       y="-757.51184"
       x="574.09216"
       height="90.144295"
       width="90.144295"
       id="rect5197"
       style="fill:#ffffff;fill-opacity:1;stroke:#241f1c;stroke-width:3.99261141;stroke-linecap:butt;stroke-linejoin:round;stroke-miterlimit:4;stroke-opacity:1;stroke-dasharray:none;stroke-dashoffset:0"
       transform="matrix(0,1,-1,0,0,0)" />
    <path
       style="fill:none;stroke:#000000;stroke-width:1.12680376px;stroke-linecap:butt;stroke-linejoin:miter;stroke-opacity:1"
       d="m 667.36752,574.09218 90.14432,-4e-5 m -90.14431,22.53611 90.14432,-4e-5 m -90.14431,22.53611 90.14432,-4e-5 m -90.14431,22.53611 90.14432,-4e-5 m -90.14431,22.53611 90.14432,-4e-5 m -90.14436,-90.14424 4e-5,90.14428 m 22.53604,-90.14429 4e-5,90.14428 m 22.53604,-90.14429 4e-5,90.14428 m 22.53604,-90.14429 4e-5,90.14428 m 22.53604,-90.14429 4e-5,90.14428"
       id="path5199"
       inkscape:connector-curvature="0"
       inkscape:path-effect="#path-effect5207"
       inkscape:original-d="m 689.9036,574.09217 -22.53608,10e-6 10e-6,22.53607 22.53607,0 z" />
    <rect
       y="-337.51181"
       x="714.09216"
       height="90.144295"
       width="90.144295"
       id="rect5209"
       style="fill:#ffffff;fill-opacity:1;stroke:#241f1c;stroke-width:3.99261141;stroke-linecap:butt;stroke-linejoin:round;stroke-miterlimit:4;stroke-opacity:1;stroke-dasharray:none;stroke-dashoffset:0"
       transform="matrix(0,1,-1,0,0,0)" />
    <path
       style="fill:none;stroke:#000000;stroke-width:1.12680376px;stroke-linecap:butt;stroke-linejoin:miter;stroke-opacity:1"
       d="m 247.36752,714.09218 90.14432,-4e-5 m -90.14431,22.53611 90.14432,-4e-5 m -90.14431,22.53611 90.14432,-4e-5 m -90.14431,22.53611 90.14432,-4e-5 m -90.14431,22.53611 90.14432,-4e-5 m -90.14436,-90.14424 4e-5,90.14428 m 22.53604,-90.14429 4e-5,90.14428 m 22.53604,-90.14429 4e-5,90.14428 m 22.53604,-90.14429 4e-5,90.14428 m 22.53604,-90.14429 4e-5,90.14428"
       id="path5211"
       inkscape:connector-curvature="0"
       inkscape:path-effect="#path-effect5225"
       inkscape:original-d="m 269.9036,714.09217 -22.53608,10e-6 10e-6,22.53607 22.53607,0 z" />
    <rect
       transform="matrix(0,1,-1,0,0,0)"
       style="fill:#ffffff;fill-opacity:1;stroke:#241f1c;stroke-width:3.99261141;stroke-linecap:butt;stroke-linejoin:round;stroke-miterlimit:4;stroke-opacity:1;stroke-dasharray:none;stroke-dashoffset:0"
       id="rect5213"
       width="90.144295"
       height="90.144295"
       x="714.09216"
       y="-477.51181" />
    <path
       inkscape:original-d="m 409.9036,714.09217 -22.53608,10e-6 10e-6,22.53607 22.53607,0 z"
       inkscape:path-effect="#path-effect5227"
       inkscape:connector-curvature="0"
       id="path5215"
       d="m 387.36752,714.09218 90.14432,-4e-5 m -90.14431,22.53611 90.14432,-4e-5 m -90.14431,22.53611 90.14432,-4e-5 m -90.14431,22.53611 90.14432,-4e-5 m -90.14431,22.53611 90.14432,-4e-5 m -90.14436,-90.14424 4e-5,90.14428 m 22.53604,-90.14429 4e-5,90.14428 m 22.53604,-90.14429 4e-5,90.14428 m 22.53604,-90.14429 4e-5,90.14428 m 22.53604,-90.14429 4e-5,90.14428"
       style="fill:none;stroke:#000000;stroke-width:1.12680376px;stroke-linecap:butt;stroke-linejoin:miter;stroke-opacity:1" />
    <rect
       y="-617.51184"
       x="714.09216"
       height="90.144295"
       width="90.144295"
       id="rect5217"
       style="fill:#ffffff;fill-opacity:1;stroke:#241f1c;stroke-width:3.99261141;stroke-linecap:butt;stroke-linejoin:round;stroke-miterlimit:4;stroke-opacity:1;stroke-dasharray:none;stroke-dashoffset:0"
       transform="matrix(0,1,-1,0,0,0)" />
    <path
       style="fill:none;stroke:#000000;stroke-width:1.12680376px;stroke-linecap:butt;stroke-linejoin:miter;stroke-opacity:1"
       d="m 527.36752,714.09218 90.14432,-4e-5 m -90.14431,22.53611 90.14432,-4e-5 m -90.14431,22.53611 90.14432,-4e-5 m -90.14431,22.53611 90.14432,-4e-5 m -90.14431,22.53611 90.14432,-4e-5 m -90.14436,-90.14424 4e-5,90.14428 m 22.53604,-90.14429 4e-5,90.14428 m 22.53604,-90.14429 4e-5,90.14428 m 22.53604,-90.14429 4e-5,90.14428 m 22.53604,-90.14429 4e-5,90.14428"
       id="path5219"
       inkscape:connector-curvature="0"
       inkscape:path-effect="#path-effect5229"
       inkscape:original-d="m 549.9036,714.09217 -22.53608,10e-6 10e-6,22.53607 22.53607,0 z" />
    <rect
       transform="matrix(0,1,-1,0,0,0)"
       style="fill:#ffffff;fill-opacity:1;stroke:#241f1c;stroke-width:3.99261141;stroke-linecap:butt;stroke-linejoin:round;stroke-miterlimit:4;stroke-opacity:1;stroke-dasharray:none;stroke-dashoffset:0"
       id="rect5221"
       width="90.144295"
       height="90.144295"
       x="714.09216"
       y="-757.51184" />
    <path
       inkscape:original-d="m 689.9036,714.09217 -22.53608,10e-6 10e-6,22.53607 22.53607,0 z"
       inkscape:path-effect="#path-effect5231"
       inkscape:connector-curvature="0"
       id="path5223"
       d="m 667.36752,714.09218 90.14432,-4e-5 m -90.14431,22.53611 90.14432,-4e-5 m -90.14431,22.53611 90.14432,-4e-5 m -90.14431,22.53611 90.14432,-4e-5 m -90.14431,22.53611 90.14432,-4e-5 m -90.14436,-90.14424 4e-5,90.14428 m 22.53604,-90.14429 4e-5,90.14428 m 22.53604,-90.14429 4e-5,90.14428 m 22.53604,-90.14429 4e-5,90.14428 m 22.53604,-90.14429 4e-5,90.14428"
       style="fill:none;stroke:#000000;stroke-width:1.12680376px;stroke-linecap:butt;stroke-linejoin:miter;stroke-opacity:1" />
    <rect
       transform="matrix(0,1,-1,0,0,0)"
       style="fill:#ffffff;fill-opacity:1;stroke:#241f1c;stroke-width:3.99261141;stroke-linecap:butt;stroke-linejoin:round;stroke-miterlimit:4;stroke-opacity:1;stroke-dasharray:none;stroke-dashoffset:0"
       id="rect5233"
       width="90.144295"
       height="90.144295"
       x="854.09216"
       y="-337.51181" />
    <path
       inkscape:original-d="m 269.9036,854.09217 -22.53608,10e-6 10e-6,22.53607 22.53607,0 z"
       inkscape:path-effect="#path-effect5249"
       inkscape:connector-curvature="0"
       id="path5235"
       d="m 247.36752,854.09218 90.14432,-4e-5 m -90.14431,22.53611 90.14432,-4e-5 m -90.14431,22.53611 90.14432,-4e-5 m -90.14431,22.53611 90.14432,-4e-5 m -90.14431,22.53611 90.14432,-4e-5 m -90.14436,-90.14424 4e-5,90.14428 m 22.53604,-90.14429 4e-5,90.14428 m 22.53604,-90.14429 4e-5,90.14428 m 22.53604,-90.14429 4e-5,90.14428 m 22.53604,-90.14429 4e-5,90.14428"
       style="fill:none;stroke:#000000;stroke-width:1.12680376px;stroke-linecap:butt;stroke-linejoin:miter;stroke-opacity:1" />
    <rect
       y="-477.51181"
       x="854.09216"
       height="90.144295"
       width="90.144295"
       id="rect5237"
       style="fill:#ffffff;fill-opacity:1;stroke:#241f1c;stroke-width:3.99261141;stroke-linecap:butt;stroke-linejoin:round;stroke-miterlimit:4;stroke-opacity:1;stroke-dasharray:none;stroke-dashoffset:0"
       transform="matrix(0,1,-1,0,0,0)" />
    <path
       style="fill:none;stroke:#000000;stroke-width:1.12680376px;stroke-linecap:butt;stroke-linejoin:miter;stroke-opacity:1"
       d="m 387.36752,854.09218 90.14432,-4e-5 m -90.14431,22.53611 90.14432,-4e-5 m -90.14431,22.53611 90.14432,-4e-5 m -90.14431,22.53611 90.14432,-4e-5 m -90.14431,22.53611 90.14432,-4e-5 m -90.14436,-90.14424 4e-5,90.14428 m 22.53604,-90.14429 4e-5,90.14428 m 22.53604,-90.14429 4e-5,90.14428 m 22.53604,-90.14429 4e-5,90.14428 m 22.53604,-90.14429 4e-5,90.14428"
       id="path5239"
       inkscape:connector-curvature="0"
       inkscape:path-effect="#path-effect5251"
       inkscape:original-d="m 409.9036,854.09217 -22.53608,10e-6 10e-6,22.53607 22.53607,0 z" />
    <rect
       transform="matrix(0,1,-1,0,0,0)"
       style="fill:#ffffff;fill-opacity:1;stroke:#241f1c;stroke-width:3.99261141;stroke-linecap:butt;stroke-linejoin:round;stroke-miterlimit:4;stroke-opacity:1;stroke-dasharray:none;stroke-dashoffset:0"
       id="rect5241"
       width="90.144295"
       height="90.144295"
       x="854.09216"
       y="-617.51184" />
    <path
       inkscape:original-d="m 549.9036,854.09217 -22.53608,10e-6 10e-6,22.53607 22.53607,0 z"
       inkscape:path-effect="#path-effect5253"
       inkscape:connector-curvature="0"
       id="path5243"
       d="m 527.36752,854.09218 90.14432,-4e-5 m -90.14431,22.53611 90.14432,-4e-5 m -90.14431,22.53611 90.14432,-4e-5 m -90.14431,22.53611 90.14432,-4e-5 m -90.14431,22.53611 90.14432,-4e-5 m -90.14436,-90.14424 4e-5,90.14428 m 22.53604,-90.14429 4e-5,90.14428 m 22.53604,-90.14429 4e-5,90.14428 m 22.53604,-90.14429 4e-5,90.14428 m 22.53604,-90.14429 4e-5,90.14428"
       style="fill:none;stroke:#000000;stroke-width:1.12680376px;stroke-linecap:butt;stroke-linejoin:miter;stroke-opacity:1" />
    <rect
       y="-757.51184"
       x="854.09216"
       height="90.144295"
       width="90.144295"
       id="rect5245"
       style="fill:#ffffff;fill-opacity:1;stroke:#241f1c;stroke-width:3.99261141;stroke-linecap:butt;stroke-linejoin:round;stroke-miterlimit:4;stroke-opacity:1;stroke-dasharray:none;stroke-dashoffset:0"
       transform="matrix(0,1,-1,0,0,0)" />
    <path
       style="fill:none;stroke:#000000;stroke-width:1.12680376px;stroke-linecap:butt;stroke-linejoin:miter;stroke-opacity:1"
       d="m 667.36752,854.09218 90.14432,-4e-5 m -90.14431,22.53611 90.14432,-4e-5 m -90.14431,22.53611 90.14432,-4e-5 m -90.14431,22.53611 90.14432,-4e-5 m -90.14431,22.53611 90.14432,-4e-5 m -90.14436,-90.14424 4e-5,90.14428 m 22.53604,-90.14429 4e-5,90.14428 m 22.53604,-90.14429 4e-5,90.14428 m 22.53604,-90.14429 4e-5,90.14428 m 22.53604,-90.14429 4e-5,90.14428"
       id="path5247"
       inkscape:connector-curvature="0"
       inkscape:path-effect="#path-effect5255"
       inkscape:original-d="m 689.9036,854.09217 -22.53608,10e-6 10e-6,22.53607 22.53607,0 z" />
    <path
       style="fill:none;stroke:#000000;stroke-width:4;stroke-linecap:butt;stroke-linejoin:miter;stroke-miterlimit:4;stroke-opacity:1;stroke-dasharray:32, 4;stroke-dashoffset:0"
       d="m 200,548.36218 600,0 0,140 -600,0 z"
       id="path5259"
       inkscape:connector-curvature="0" />
  </g>
</svg>
