<?xml version="1.0" encoding="UTF-8" standalone="no"?>
<!-- Created with Inkscape (http://www.inkscape.org/) -->

<svg
   xmlns:dc="http://purl.org/dc/elements/1.1/"
   xmlns:cc="http://creativecommons.org/ns#"
   xmlns:rdf="http://www.w3.org/1999/02/22-rdf-syntax-ns#"
   xmlns:svg="http://www.w3.org/2000/svg"
   xmlns="http://www.w3.org/2000/svg"
   xmlns:sodipodi="http://sodipodi.sourceforge.net/DTD/sodipodi-0.dtd"
   xmlns:inkscape="http://www.inkscape.org/namespaces/inkscape"
   width="744.09448"
   height="1052.3622"
   id="svg6326"
   version="1.1"
   inkscape:version="0.48.4 r9939"
   sodipodi:docname="constructing-reduced-system.eps">
  <sodipodi:namedview
     id="base"
     pagecolor="#ffffff"
     bordercolor="#666666"
     borderopacity="1.0"
     inkscape:pageopacity="0.0"
     inkscape:pageshadow="2"
     inkscape:zoom="0.9899495"
     inkscape:cx="415.85208"
     inkscape:cy="502.18122"
     inkscape:document-units="px"
     inkscape:current-layer="layer1"
     showgrid="false"
     inkscape:window-width="1366"
     inkscape:window-height="713"
     inkscape:window-x="0"
     inkscape:window-y="30"
     inkscape:window-maximized="1">
    <inkscape:grid
       snapvisiblegridlinesonly="true"
       enabled="true"
       visible="true"
       empspacing="5"
       id="grid7689"
       type="xygrid" />
  </sodipodi:namedview>
  <defs
     id="defs6328">
    <inkscape:path-effect
       effect="construct_grid"
       id="path-effect5129"
       is_visible="true"
       nr_x="6"
       nr_y="8" />
    <inkscape:path-effect
       effect="construct_grid"
       id="path-effect5127"
       is_visible="true"
       nr_x="8"
       nr_y="8" />
    <inkscape:path-effect
       effect="construct_grid"
       id="path-effect5125"
       is_visible="true"
       nr_x="6"
       nr_y="8" />
    <marker
       style="overflow:visible"
       id="Arrow1Mend"
       refX="0"
       refY="0"
       orient="auto"
       inkscape:stockid="Arrow1Mend">
      <path
         transform="matrix(-0.4,0,0,-0.4,-4,0)"
         style="fill-rule:evenodd;stroke:#000000;stroke-width:1pt"
         d="M 0,0 5,-5 -12.5,0 5,5 0,0 z"
         id="path4682"
         inkscape:connector-curvature="0" />
    </marker>
    <inkscape:path-effect
       effect="construct_grid"
       id="path-effect3489"
       is_visible="true"
       nr_x="8"
       nr_y="8" />
    <inkscape:path-effect
       effect="construct_grid"
       id="path-effect3487"
       is_visible="true"
       nr_x="8"
       nr_y="8" />
    <inkscape:path-effect
       effect="construct_grid"
       id="path-effect3485"
       is_visible="true"
       nr_x="8"
       nr_y="8" />
    <inkscape:path-effect
       nr_y="8"
       nr_x="6"
       is_visible="true"
       id="path-effect8720"
       effect="construct_grid" />
    <inkscape:path-effect
       nr_y="8"
       nr_x="8"
       is_visible="true"
       id="path-effect8716"
       effect="construct_grid" />
    <inkscape:path-effect
       nr_y="8"
       nr_x="6"
       is_visible="true"
       id="path-effect8712"
       effect="construct_grid" />
    <inkscape:path-effect
       effect="construct_grid"
       id="path-effect7775"
       is_visible="true"
       nr_x="8"
       nr_y="8" />
    <inkscape:path-effect
       effect="construct_grid"
       id="path-effect7773"
       is_visible="true"
       nr_x="8"
       nr_y="8" />
    <inkscape:path-effect
       effect="construct_grid"
       id="path-effect7771"
       is_visible="true"
       nr_x="8"
       nr_y="8" />
    <inkscape:path-effect
       nr_y="8"
       nr_x="8"
       is_visible="true"
       id="path-effect7682"
       effect="construct_grid" />
    <inkscape:path-effect
       nr_y="8"
       nr_x="8"
       is_visible="true"
       id="path-effect7677"
       effect="construct_grid" />
    <inkscape:path-effect
       nr_y="8"
       nr_x="8"
       is_visible="true"
       id="path-effect7674"
       effect="construct_grid" />
    <inkscape:path-effect
       effect="construct_grid"
       id="path-effect7537"
       is_visible="true"
       nr_x="8"
       nr_y="8" />
    <inkscape:path-effect
       effect="construct_grid"
       id="path-effect7534"
       is_visible="true"
       nr_x="8"
       nr_y="8" />
    <inkscape:path-effect
       effect="construct_grid"
       id="path-effect7531"
       is_visible="true"
       nr_x="8"
       nr_y="8" />
    <inkscape:path-effect
       effect="construct_grid"
       id="path-effect7528"
       is_visible="true"
       nr_x="8"
       nr_y="8" />
    <inkscape:path-effect
       effect="construct_grid"
       id="path-effect7525"
       is_visible="true"
       nr_x="8"
       nr_y="8" />
    <inkscape:path-effect
       effect="construct_grid"
       id="path-effect7522"
       is_visible="true"
       nr_x="8"
       nr_y="8" />
    <inkscape:path-effect
       effect="construct_grid"
       id="path-effect7519"
       is_visible="true"
       nr_x="8"
       nr_y="8" />
    <inkscape:path-effect
       effect="construct_grid"
       id="path-effect7516"
       is_visible="true"
       nr_x="8"
       nr_y="8" />
    <inkscape:path-effect
       effect="construct_grid"
       id="path-effect7513"
       is_visible="true"
       nr_x="8"
       nr_y="8" />
    <inkscape:path-effect
       effect="construct_grid"
       id="path-effect7510"
       is_visible="true"
       nr_x="8"
       nr_y="8" />
    <inkscape:path-effect
       effect="construct_grid"
       id="path-effect7507"
       is_visible="true"
       nr_x="8"
       nr_y="8" />
    <inkscape:path-effect
       effect="construct_grid"
       id="path-effect7504"
       is_visible="true"
       nr_x="8"
       nr_y="8" />
    <inkscape:path-effect
       effect="construct_grid"
       id="path-effect7501"
       is_visible="true"
       nr_x="8"
       nr_y="8" />
    <inkscape:path-effect
       effect="construct_grid"
       id="path-effect7498"
       is_visible="true"
       nr_x="8"
       nr_y="8" />
    <inkscape:path-effect
       effect="construct_grid"
       id="path-effect7495"
       is_visible="true"
       nr_x="8"
       nr_y="8" />
    <inkscape:path-effect
       effect="construct_grid"
       id="path-effect7492"
       is_visible="true"
       nr_x="8"
       nr_y="8" />
    <inkscape:path-effect
       effect="construct_grid"
       id="path-effect7489"
       is_visible="true"
       nr_x="8"
       nr_y="8" />
    <inkscape:path-effect
       effect="construct_grid"
       id="path-effect7486"
       is_visible="true"
       nr_x="8"
       nr_y="8" />
    <inkscape:path-effect
       effect="construct_grid"
       id="path-effect7483"
       is_visible="true"
       nr_x="8"
       nr_y="8" />
    <inkscape:path-effect
       effect="construct_grid"
       id="path-effect7480"
       is_visible="true"
       nr_x="8"
       nr_y="8" />
    <inkscape:path-effect
       effect="construct_grid"
       id="path-effect7477"
       is_visible="true"
       nr_x="8"
       nr_y="8" />
    <inkscape:path-effect
       effect="construct_grid"
       id="path-effect7228"
       is_visible="true"
       nr_x="8"
       nr_y="8" />
    <inkscape:path-effect
       effect="construct_grid"
       id="path-effect7225"
       is_visible="true"
       nr_x="8"
       nr_y="8" />
    <inkscape:path-effect
       effect="construct_grid"
       id="path-effect7222"
       is_visible="true"
       nr_x="8"
       nr_y="8" />
    <inkscape:path-effect
       nr_y="8"
       nr_x="8"
       is_visible="true"
       id="path-effect3046"
       effect="construct_grid" />
    <inkscape:path-effect
       nr_y="8"
       nr_x="8"
       is_visible="true"
       id="path-effect3042"
       effect="construct_grid" />
    <inkscape:path-effect
       nr_y="8"
       nr_x="8"
       is_visible="true"
       id="path-effect3038"
       effect="construct_grid" />
    <inkscape:path-effect
       nr_y="8"
       nr_x="8"
       is_visible="true"
       id="path-effect3046-2"
       effect="construct_grid" />
    <inkscape:path-effect
       nr_y="8"
       nr_x="8"
       is_visible="true"
       id="path-effect3042-3"
       effect="construct_grid" />
    <inkscape:path-effect
       nr_y="8"
       nr_x="8"
       is_visible="true"
       id="path-effect3038-0"
       effect="construct_grid" />
  </defs>
  <metadata
     id="metadata6331">
    <rdf:RDF>
      <cc:Work
         rdf:about="">
        <dc:format>image/svg+xml</dc:format>
        <dc:type
           rdf:resource="http://purl.org/dc/dcmitype/StillImage" />
        <dc:title></dc:title>
      </cc:Work>
    </rdf:RDF>
  </metadata>
  <g
     id="layer1"
     inkscape:groupmode="layer"
     inkscape:label="Layer 1">
    <path
       style="fill:none;stroke:#000000;stroke-width:0.74661833px;stroke-linecap:butt;stroke-linejoin:miter;stroke-opacity:1"
       d="m 437.19307,313.12557 -37.33091,29.86474 -14.93237,-29.86474"
       id="path4375"
       inkscape:connector-curvature="0" />
    <path
       inkscape:connector-curvature="0"
       id="path4373"
       d="m 295.33559,313.12557 37.33092,29.86474 14.93236,-29.86474"
       style="fill:none;stroke:#000000;stroke-width:0.74661833px;stroke-linecap:butt;stroke-linejoin:miter;stroke-opacity:1" />
    <path
       inkscape:connector-curvature="0"
       id="path4381"
       d="m 474.52399,313.12557 -82.12802,82.12802"
       style="fill:none;stroke:#000000;stroke-width:0.74661833px;stroke-linecap:butt;stroke-linejoin:miter;stroke-opacity:1" />
    <path
       inkscape:connector-curvature="0"
       id="path4379"
       d="m 399.86216,342.99031 -14.93237,52.26328"
       style="fill:none;stroke:#000000;stroke-width:0.74661833px;stroke-linecap:butt;stroke-linejoin:miter;stroke-opacity:1" />
    <path
       inkscape:connector-curvature="0"
       id="path4377"
       d="m 332.66651,342.99031 22.39855,52.26328"
       style="fill:none;stroke:#000000;stroke-width:0.74661833px;stroke-linecap:butt;stroke-linejoin:miter;stroke-opacity:1" />
    <rect
       style="fill:#ffffff;fill-opacity:1;stroke:#000000;stroke-width:0;stroke-linecap:butt;stroke-linejoin:round;stroke-miterlimit:4;stroke-opacity:1;stroke-dasharray:none;stroke-dashoffset:0"
       id="rect4411"
       width="110.86716"
       height="13.537035"
       x="309.65216"
       y="323.77142" />
    <rect
       y="402.91296"
       x="332.05072"
       height="13.537035"
       width="110.86716"
       id="rect4401"
       style="fill:#ffffff;fill-opacity:1;stroke:#000000;stroke-width:0;stroke-linecap:butt;stroke-linejoin:round;stroke-miterlimit:4;stroke-opacity:1;stroke-dasharray:none;stroke-dashoffset:0" />
    <path
       inkscape:original-d="m 199.51944,304.63448 0,7.53933 7.53933,0 0,-7.53933 -7.53933,0"
       inkscape:path-effect="#path-effect3038-0"
       inkscape:connector-curvature="0"
       id="path3036"
       d="m 199.51944,312.17381 0,-60.31464 m 7.53933,60.31464 0,-60.31464 m 7.53933,60.31464 0,-60.31464 m 7.53933,60.31464 0,-60.31464 m 7.53933,60.31464 0,-60.31464 m 7.53933,60.31464 0,-60.31464 m 7.53933,60.31464 0,-60.31464 m 7.53933,60.31464 0,-60.31464 m 7.53933,60.31464 0,-60.31464 m -60.31464,60.31464 60.31464,0 m -60.31464,-7.53933 60.31464,0 m -60.31464,-7.53933 60.31464,0 m -60.31464,-7.53933 60.31464,0 m -60.31464,-7.53933 60.31464,0 m -60.31464,-7.53933 60.31464,0 m -60.31464,-7.53933 60.31464,0 m -60.31464,-7.53933 60.31464,0 m -60.31464,-7.53933 60.31464,0"
       style="fill:none;stroke:#000000;stroke-width:0.75393397;stroke-linecap:butt;stroke-linejoin:miter;stroke-miterlimit:4;stroke-opacity:1;stroke-dasharray:none" />
    <path
       inkscape:original-d="m 273.01695,238.65015 1.88483,-1.88483 0,7.53934 -1.88483,1.88484"
       inkscape:path-effect="#path-effect3042-3"
       inkscape:connector-curvature="0"
       id="path3040"
       d="m 274.90178,236.76532 -15.07864,15.07864 m 15.07864,-7.5393 -15.07864,15.07864 m 15.07864,-7.5393 -15.07864,15.07864 m 15.07864,-7.5393 -15.07864,15.07864 m 15.07864,-7.5393 -15.07864,15.07864 m 15.07864,-7.5393 -15.07864,15.07864 m 15.07864,-7.5393 -15.07864,15.07864 m 15.07864,-7.5393 -15.07864,15.07864 m 15.07864,-7.5393 -15.07864,15.07864 m 15.07864,-75.39336 0,60.31472 m -1.88483,-58.42989 0,60.31472 m -1.88483,-58.42989 0,60.31472 m -1.88483,-58.42989 0,60.31472 m -1.88483,-58.42989 0,60.31472 m -1.88483,-58.42989 0,60.31472 m -1.88483,-58.42989 0,60.31472 m -1.88483,-58.42989 0,60.31472 m -1.88483,-58.42989 0,60.31472"
       style="fill:none;stroke:#000000;stroke-width:0.75393397;stroke-linecap:butt;stroke-linejoin:miter;stroke-miterlimit:4;stroke-opacity:1;stroke-dasharray:none" />
    <path
       inkscape:original-d="m 222.1688,236.77615 -7.53934,0 -1.88484,1.88483 7.53935,0 z"
       inkscape:path-effect="#path-effect3046-2"
       inkscape:connector-curvature="0"
       id="path3044"
       d="m 214.62946,236.77615 60.31472,0 m -62.19956,1.88483 60.31472,0 m -62.19956,1.88483 60.31472,0 m -62.19956,1.88483 60.31472,0 m -62.19956,1.88483 60.31472,0 m -62.19956,1.88483 60.31472,0 m -62.19956,1.88483 60.31472,0 m -62.19956,1.88483 60.31472,0 m -62.19956,1.88483 60.31472,0 m -45.236,-15.07864 -15.07872,15.07864 m 22.61806,-15.07864 -15.07872,15.07864 m 22.61806,-15.07864 -15.07872,15.07864 m 22.61806,-15.07864 -15.07872,15.07864 m 22.61806,-15.07864 -15.07872,15.07864 m 22.61806,-15.07864 -15.07872,15.07864 m 22.61806,-15.07864 -15.07872,15.07864 m 22.61806,-15.07864 -15.07872,15.07864 m 22.61806,-15.07864 -15.07872,15.07864"
       style="fill:none;stroke:#000000;stroke-width:0.75393397;stroke-linecap:butt;stroke-linejoin:miter;stroke-miterlimit:4;stroke-opacity:1;stroke-dasharray:none" />
    <path
       inkscape:connector-curvature="0"
       id="path7726"
       d="m 252.85003,251.6291 7.22783,0 0,60.19393 -7.22783,0 0,-60.19393"
       style="opacity:0.5;fill:#000080;stroke:#000000;stroke-width:0.36872736px;stroke-linecap:butt;stroke-linejoin:miter;stroke-opacity:1" />
    <path
       inkscape:connector-curvature="0"
       id="path7730"
       d="m 275.15242,236.64223 -15.07868,15.07868 0,60.31471 15.07868,-15.07868 0,-60.31471"
       style="opacity:0.5;fill:#000080;stroke:#000000;stroke-width:0.37696698px;stroke-linecap:butt;stroke-linejoin:miter;stroke-opacity:1" />
    <path
       inkscape:connector-curvature="0"
       id="path7750"
       d="m 275.22889,236.46676 -7.53934,0 -15.07868,15.07868 7.53934,0 z"
       style="opacity:0.5;fill:#000080;stroke:#000000;stroke-width:0.37696698px;stroke-linecap:butt;stroke-linejoin:miter;stroke-opacity:1" />
    <g
       transform="matrix(0.37696698,0,0,0.37696698,178.34837,87.42827)"
       id="g7829">
      <path
         inkscape:original-d="m 296.29259,576.2019 3e-5,20 20,2e-5 0,-20.00003 -20.00003,10e-6"
         inkscape:path-effect="#path-effect7771"
         inkscape:connector-curvature="0"
         id="path7757"
         d="m 296.29262,596.2019 -2.4e-4,-160 m 20.00024,160.00002 -2.4e-4,-160 m 20.00024,160.00002 -2.4e-4,-160 m 20.00024,160.00002 -2.4e-4,-160 m 20.00024,160.00002 -2.4e-4,-160 m 20.00024,160.00002 -2.4e-4,-160 m 20.00024,160.00002 -2.4e-4,-160 m 20.00024,160.00002 -2.4e-4,-160 m 20.00024,160.00002 -2.4e-4,-160 m -159.99976,159.99984 160,1.6e-4 m -160.00003,-20.00016 160,1.6e-4 m -160.00003,-20.00016 160,1.6e-4 m -160.00003,-20.00016 160,1.6e-4 M 296.2925,516.2019 l 160,1.6e-4 m -160.00003,-20.00016 160,1.6e-4 m -160.00003,-20.00016 160,1.6e-4 m -160.00003,-20.00016 160,1.6e-4 m -160.00003,-20.00016 160,1.6e-4"
         style="fill:none;stroke:#000000;stroke-width:2;stroke-linecap:butt;stroke-linejoin:miter;stroke-miterlimit:4;stroke-opacity:1;stroke-dasharray:none" />
      <path
         inkscape:original-d="m 491.26329,401.16186 4.99999,-5.00001 -1e-5,20 -4.99996,5"
         inkscape:path-effect="#path-effect7773"
         inkscape:connector-curvature="0"
         id="path7759"
         d="m 496.26328,396.16185 -39.99992,40.00008 m 39.99991,-20.00008 -39.99992,40.00008 m 39.99991,-20.00008 -39.99992,40.00008 m 39.99991,-20.00008 -39.99992,40.00008 m 39.99991,-20.00008 -39.99992,40.00008 m 39.99991,-20.00008 -39.99992,40.00008 m 39.99991,-20.00008 -39.99992,40.00008 m 39.99991,-20.00008 -39.99992,40.00008 m 39.99991,-20.00008 -39.99992,40.00008 m 40,-200.00008 -8e-5,160 m -4.99991,-154.99999 -8e-5,160 m -4.99991,-154.99999 -8e-5,160 m -4.99991,-154.99999 -8e-5,160 m -4.99991,-154.99999 -8e-5,160 m -4.99991,-154.99999 -8e-5,160 m -4.99991,-154.99999 -8e-5,160 m -4.99991,-154.99999 -8e-5,160 m -4.99991,-154.99999 -8e-5,160"
         style="fill:none;stroke:#000000;stroke-width:2;stroke-linecap:butt;stroke-linejoin:miter;stroke-miterlimit:4;stroke-opacity:1;stroke-dasharray:none" />
      <path
         inkscape:original-d="m 356.37575,396.19059 -19.99999,-3e-5 -5,5.00002 20,-4e-5 z"
         inkscape:path-effect="#path-effect7775"
         inkscape:connector-curvature="0"
         id="path7761"
         d="m 336.37576,396.19056 159.99992,2.4e-4 m -164.99992,4.99978 159.99992,2.4e-4 m -164.99992,4.99978 159.99992,2.4e-4 m -164.99992,4.99978 159.99992,2.4e-4 m -164.99992,4.99978 159.99992,2.4e-4 m -164.99992,4.99978 159.99992,2.4e-4 m -164.99992,4.99978 159.99992,2.4e-4 m -164.99992,4.99978 159.99992,2.4e-4 m -164.99992,4.99978 159.99992,2.4e-4 m -119.99992,-40.0004 -40,40.00016 m 59.99999,-40.00013 -40,40.00016 m 59.99999,-40.00013 -40,40.00016 m 59.99999,-40.00013 -40,40.00016 m 59.99999,-40.00013 -40,40.00016 m 59.99999,-40.00013 -40,40.00016 m 59.99999,-40.00013 -40,40.00016 m 59.99999,-40.00013 -40,40.00016 m 59.99999,-40.00013 -40,40.00016"
         style="fill:none;stroke:#000000;stroke-width:2;stroke-linecap:butt;stroke-linejoin:miter;stroke-miterlimit:4;stroke-opacity:1;stroke-dasharray:none" />
    </g>
    <g
       transform="matrix(0.37696698,0,0,0.37696698,57.71894,87.42827)"
       id="g7780">
      <path
         inkscape:connector-curvature="0"
         id="path7765"
         d="m 617.76534,437.59162 19.17363,0 0,159.67959 -19.17363,0 0,-159.67959"
         style="opacity:0.5;fill:#000080;stroke:#000000;stroke-width:0.97814232px;stroke-linecap:butt;stroke-linejoin:miter;stroke-opacity:1" />
      <path
         inkscape:connector-curvature="0"
         id="path7769"
         d="m 677.1309,397.36968 -20,0 -40,40 20,0 z"
         style="opacity:0.5;fill:#000080;stroke:#000000;stroke-width:1px;stroke-linecap:butt;stroke-linejoin:miter;stroke-opacity:1" />
    </g>
    <g
       transform="matrix(0.37696698,0,0,0.37696698,359.29252,87.42827)"
       id="g7834">
      <path
         style="fill:none;stroke:#000000;stroke-width:2;stroke-linecap:butt;stroke-linejoin:miter;stroke-miterlimit:4;stroke-opacity:1;stroke-dasharray:none"
         d="m 296.29262,596.2019 -2.4e-4,-160 m 20.00024,160.00002 -2.4e-4,-160 m 20.00024,160.00002 -2.4e-4,-160 m 20.00024,160.00002 -2.4e-4,-160 m 20.00024,160.00002 -2.4e-4,-160 m 20.00024,160.00002 -2.4e-4,-160 m 20.00024,160.00002 -2.4e-4,-160 m 20.00024,160.00002 -2.4e-4,-160 m 20.00024,160.00002 -2.4e-4,-160 m -159.99976,159.99984 160,1.6e-4 m -160.00003,-20.00016 160,1.6e-4 m -160.00003,-20.00016 160,1.6e-4 m -160.00003,-20.00016 160,1.6e-4 M 296.2925,516.2019 l 160,1.6e-4 m -160.00003,-20.00016 160,1.6e-4 m -160.00003,-20.00016 160,1.6e-4 m -160.00003,-20.00016 160,1.6e-4 m -160.00003,-20.00016 160,1.6e-4"
         id="path7836"
         inkscape:connector-curvature="0"
         inkscape:path-effect="#path-effect7771"
         inkscape:original-d="m 296.29259,576.2019 3e-5,20 20,2e-5 0,-20.00003 -20.00003,10e-6" />
      <path
         style="fill:none;stroke:#000000;stroke-width:2;stroke-linecap:butt;stroke-linejoin:miter;stroke-miterlimit:4;stroke-opacity:1;stroke-dasharray:none"
         d="m 496.26328,396.16185 -39.99992,40.00008 m 39.99991,-20.00008 -39.99992,40.00008 m 39.99991,-20.00008 -39.99992,40.00008 m 39.99991,-20.00008 -39.99992,40.00008 m 39.99991,-20.00008 -39.99992,40.00008 m 39.99991,-20.00008 -39.99992,40.00008 m 39.99991,-20.00008 -39.99992,40.00008 m 39.99991,-20.00008 -39.99992,40.00008 m 39.99991,-20.00008 -39.99992,40.00008 m 40,-200.00008 -8e-5,160 m -4.99991,-154.99999 -8e-5,160 m -4.99991,-154.99999 -8e-5,160 m -4.99991,-154.99999 -8e-5,160 m -4.99991,-154.99999 -8e-5,160 m -4.99991,-154.99999 -8e-5,160 m -4.99991,-154.99999 -8e-5,160 m -4.99991,-154.99999 -8e-5,160 m -4.99991,-154.99999 -8e-5,160"
         id="path7838"
         inkscape:connector-curvature="0"
         inkscape:path-effect="#path-effect7773"
         inkscape:original-d="m 491.26329,401.16186 4.99999,-5.00001 -1e-5,20 -4.99996,5" />
      <path
         style="fill:none;stroke:#000000;stroke-width:2;stroke-linecap:butt;stroke-linejoin:miter;stroke-miterlimit:4;stroke-opacity:1;stroke-dasharray:none"
         d="m 336.37576,396.19056 159.99992,2.4e-4 m -164.99992,4.99978 159.99992,2.4e-4 m -164.99992,4.99978 159.99992,2.4e-4 m -164.99992,4.99978 159.99992,2.4e-4 m -164.99992,4.99978 159.99992,2.4e-4 m -164.99992,4.99978 159.99992,2.4e-4 m -164.99992,4.99978 159.99992,2.4e-4 m -164.99992,4.99978 159.99992,2.4e-4 m -164.99992,4.99978 159.99992,2.4e-4 m -119.99992,-40.0004 -40,40.00016 m 59.99999,-40.00013 -40,40.00016 m 59.99999,-40.00013 -40,40.00016 m 59.99999,-40.00013 -40,40.00016 m 59.99999,-40.00013 -40,40.00016 m 59.99999,-40.00013 -40,40.00016 m 59.99999,-40.00013 -40,40.00016 m 59.99999,-40.00013 -40,40.00016 m 59.99999,-40.00013 -40,40.00016"
         id="path7840"
         inkscape:connector-curvature="0"
         inkscape:path-effect="#path-effect7775"
         inkscape:original-d="m 356.37575,396.19059 -19.99999,-3e-5 -5,5.00002 20,-4e-5 z" />
    </g>
    <g
       id="g7842"
       transform="matrix(0.37696698,0,0,0.37696698,238.66309,87.42827)">
      <path
         style="opacity:0.5;fill:#000080;stroke:#000000;stroke-width:0.97814232px;stroke-linecap:butt;stroke-linejoin:miter;stroke-opacity:1"
         d="m 617.76534,437.59162 19.17363,0 0,159.67959 -19.17363,0 0,-159.67959"
         id="path7844"
         inkscape:connector-curvature="0" />
      <path
         style="opacity:0.5;fill:#000080;stroke:#000000;stroke-width:1px;stroke-linecap:butt;stroke-linejoin:miter;stroke-opacity:1"
         d="m 677.1309,397.36968 -20,0 -40,40 20,0 z"
         id="path7846"
         inkscape:connector-curvature="0" />
    </g>
    <g
       id="g7848"
       transform="matrix(0.37696698,0,0,0.37696698,268.82045,87.42827)">
      <path
         style="fill:none;stroke:#000000;stroke-width:2;stroke-linecap:butt;stroke-linejoin:miter;stroke-miterlimit:4;stroke-opacity:1;stroke-dasharray:none"
         d="m 296.29262,596.2019 -2.4e-4,-160 m 20.00024,160.00002 -2.4e-4,-160 m 20.00024,160.00002 -2.4e-4,-160 m 20.00024,160.00002 -2.4e-4,-160 m 20.00024,160.00002 -2.4e-4,-160 m 20.00024,160.00002 -2.4e-4,-160 m 20.00024,160.00002 -2.4e-4,-160 m 20.00024,160.00002 -2.4e-4,-160 m 20.00024,160.00002 -2.4e-4,-160 m -159.99976,159.99984 160,1.6e-4 m -160.00003,-20.00016 160,1.6e-4 m -160.00003,-20.00016 160,1.6e-4 m -160.00003,-20.00016 160,1.6e-4 M 296.2925,516.2019 l 160,1.6e-4 m -160.00003,-20.00016 160,1.6e-4 m -160.00003,-20.00016 160,1.6e-4 m -160.00003,-20.00016 160,1.6e-4 m -160.00003,-20.00016 160,1.6e-4"
         id="path7850"
         inkscape:connector-curvature="0"
         inkscape:path-effect="#path-effect7771"
         inkscape:original-d="m 296.29259,576.2019 3e-5,20 20,2e-5 0,-20.00003 -20.00003,10e-6" />
      <path
         style="fill:none;stroke:#000000;stroke-width:2;stroke-linecap:butt;stroke-linejoin:miter;stroke-miterlimit:4;stroke-opacity:1;stroke-dasharray:none"
         d="m 496.26328,396.16185 -39.99992,40.00008 m 39.99991,-20.00008 -39.99992,40.00008 m 39.99991,-20.00008 -39.99992,40.00008 m 39.99991,-20.00008 -39.99992,40.00008 m 39.99991,-20.00008 -39.99992,40.00008 m 39.99991,-20.00008 -39.99992,40.00008 m 39.99991,-20.00008 -39.99992,40.00008 m 39.99991,-20.00008 -39.99992,40.00008 m 39.99991,-20.00008 -39.99992,40.00008 m 40,-200.00008 -8e-5,160 m -4.99991,-154.99999 -8e-5,160 m -4.99991,-154.99999 -8e-5,160 m -4.99991,-154.99999 -8e-5,160 m -4.99991,-154.99999 -8e-5,160 m -4.99991,-154.99999 -8e-5,160 m -4.99991,-154.99999 -8e-5,160 m -4.99991,-154.99999 -8e-5,160 m -4.99991,-154.99999 -8e-5,160"
         id="path7852"
         inkscape:connector-curvature="0"
         inkscape:path-effect="#path-effect7773"
         inkscape:original-d="m 491.26329,401.16186 4.99999,-5.00001 -1e-5,20 -4.99996,5" />
      <path
         style="fill:none;stroke:#000000;stroke-width:2;stroke-linecap:butt;stroke-linejoin:miter;stroke-miterlimit:4;stroke-opacity:1;stroke-dasharray:none"
         d="m 336.37576,396.19056 159.99992,2.4e-4 m -164.99992,4.99978 159.99992,2.4e-4 m -164.99992,4.99978 159.99992,2.4e-4 m -164.99992,4.99978 159.99992,2.4e-4 m -164.99992,4.99978 159.99992,2.4e-4 m -164.99992,4.99978 159.99992,2.4e-4 m -164.99992,4.99978 159.99992,2.4e-4 m -164.99992,4.99978 159.99992,2.4e-4 m -164.99992,4.99978 159.99992,2.4e-4 m -119.99992,-40.0004 -40,40.00016 m 59.99999,-40.00013 -40,40.00016 m 59.99999,-40.00013 -40,40.00016 m 59.99999,-40.00013 -40,40.00016 m 59.99999,-40.00013 -40,40.00016 m 59.99999,-40.00013 -40,40.00016 m 59.99999,-40.00013 -40,40.00016 m 59.99999,-40.00013 -40,40.00016 m 59.99999,-40.00013 -40,40.00016"
         id="path7854"
         inkscape:connector-curvature="0"
         inkscape:path-effect="#path-effect7775"
         inkscape:original-d="m 356.37575,396.19059 -19.99999,-3e-5 -5,5.00002 20,-4e-5 z" />
    </g>
    <g
       id="g7856"
       transform="matrix(0.37696698,0,0,0.37696698,148.19102,87.42827)">
      <path
         style="opacity:0.5;fill:#000080;stroke:#000000;stroke-width:0.97814232px;stroke-linecap:butt;stroke-linejoin:miter;stroke-opacity:1"
         d="m 617.76534,437.59162 19.17363,0 0,159.67959 -19.17363,0 0,-159.67959"
         id="path7858"
         inkscape:connector-curvature="0" />
      <path
         style="opacity:0.5;fill:#000080;stroke:#000000;stroke-width:1px;stroke-linecap:butt;stroke-linejoin:miter;stroke-opacity:1"
         d="m 677.1309,397.36968 -20,0 -40,40 20,0 z"
         id="path7860"
         inkscape:connector-curvature="0" />
    </g>
    <g
       id="g7862"
       transform="matrix(0.37696698,0,0,0.37696698,359.29252,87.42827)">
      <g
         id="g7864"
         transform="translate(-228,-2)">
        <path
           inkscape:connector-curvature="0"
           id="path7866"
           d="m 425.63444,437.58412 19.17363,0 0,159.67959 -19.17363,0 0,-159.67959"
           style="opacity:0.5;fill:#000080;stroke:#000000;stroke-width:0.97814232px;stroke-linecap:butt;stroke-linejoin:miter;stroke-opacity:1" />
        <path
           inkscape:connector-curvature="0"
           id="path7868"
           d="m 484.79715,397.82766 -40,40 0,160 40,-40 0,-160"
           style="opacity:0.5;fill:#000080;stroke:#000000;stroke-width:1px;stroke-linecap:butt;stroke-linejoin:miter;stroke-opacity:1" />
        <path
           inkscape:connector-curvature="0"
           id="path7870"
           d="m 485,397.36218 -20,0 -40,40 20,0 z"
           style="opacity:0.5;fill:#000080;stroke:#000000;stroke-width:1px;stroke-linecap:butt;stroke-linejoin:miter;stroke-opacity:1" />
      </g>
    </g>
    <g
       transform="matrix(0.37696698,0,0,0.37696698,102.88182,93.72999)"
       id="g7953">
      <g
         style="font-style:normal;font-variant:normal;font-weight:normal;font-stretch:normal;letter-spacing:normal;word-spacing:normal;text-anchor:start;fill:none;stroke:#000000;stroke-linecap:butt;stroke-linejoin:miter;stroke-miterlimit:10.43299961;stroke-opacity:1;stroke-dasharray:none;stroke-dashoffset:0"
         word-spacing="normal"
         letter-spacing="normal"
         font-size-adjust="none"
         font-stretch="normal"
         font-weight="normal"
         font-variant="normal"
         font-style="normal"
         stroke-miterlimit="10.433"
         xml:space="preserve"
         transform="matrix(1.0629921,0,0,-1.0629921,-186.02362,789.27165)"
         id="content"><path
           style="fill:#000000;stroke-width:0"
           inkscape:connector-curvature="0"
           id="path7956"
           d="m 457.75,400.12 -0.03,-0.15 -0.04,-0.15 -0.03,-0.14 -0.03,-0.13 -0.04,-0.13 -0.03,-0.11 -0.04,-0.12 -0.03,-0.1 -0.04,-0.1 -0.04,-0.09 -0.04,-0.09 -0.05,-0.08 -0.05,-0.07 -0.05,-0.07 -0.06,-0.07 -0.06,-0.06 -0.07,-0.05 -0.07,-0.05 -0.08,-0.04 -0.09,-0.04 -0.09,-0.04 -0.1,-0.03 -0.11,-0.03 -0.12,-0.02 -0.13,-0.02 -0.06,-0.01 -0.07,-0.01 -0.07,-0.01 -0.08,-0.01 -0.07,0 -0.08,-0.01 -0.08,0 -0.09,-0.01 -0.08,0 -0.09,0 -0.1,0 -0.09,0 -0.1,-0.01 -0.1,0 c -0.6,0 -1.14,0 -1.14,-0.93 0,-0.41 0.25,-0.61 0.64,-0.61 1.36,0 2.79,0.15 4.18,0.15 1.64,0 3.35,-0.15 4.94,-0.15 0.25,0 0.89,0 0.89,1 0,0.54 -0.5,0.54 -1.19,0.54 -2.5,0 -2.5,0.36 -2.5,0.8 0,0.61 2.1,8.72 2.46,9.97 0.64,-1.44 2.03,-3.19 4.58,-3.19 l -0.05,1.1 c -3.3,0 -3.94,4.14 -3.94,4.43 0,0.1 0,0.21 0.14,0.8 l 2.46,9.77 c 0.34,1.34 1.68,2.73 2.57,3.48 1.75,1.55 3.21,1.89 4.05,1.89 1.98,0 3.19,-1.73 3.19,-4.69 0,-2.93 -1.64,-8.65 -2.55,-10.56 -1.69,-3.48 -4.08,-5.12 -5.92,-5.12 l 0.05,-1.1 c 5.78,0 12,7.27 12,14.6 0,4.68 -2.83,7.96 -6.63,7.96 -2.48,0 -4.87,-1.78 -6.51,-3.73 -0.5,2.69 -2.65,3.73 -4.49,3.73 -2.3,0 -3.25,-1.93 -3.69,-2.82 -0.9,-1.71 -1.54,-4.69 -1.54,-4.85 0,-0.5 0.5,-0.5 0.59,-0.5 0.5,0 0.55,0.07 0.84,1.16 0.86,3.53 1.85,5.92 3.64,5.92 0.85,0 1.55,-0.39 1.55,-2.28 0,-1.16 -0.15,-1.7 -0.34,-2.55 z" /><path
           style="fill:#000000;stroke-width:0"
           inkscape:connector-curvature="0"
           id="path7958"
           d="m 528.75,422.5 0.14,0 0.15,0 0.14,0 0.07,0.01 0.08,0 0.07,0.01 0.07,0.01 0.07,0.01 0.07,0.01 0.07,0.01 0.06,0.02 0.07,0.02 0.06,0.02 0.06,0.02 0.06,0.03 0.06,0.03 0.05,0.04 0.05,0.03 0.05,0.05 0.04,0.04 0.04,0.05 0.02,0.03 0.02,0.03 0.01,0.02 0.02,0.03 0.01,0.03 0.02,0.04 0.01,0.03 0.01,0.04 0.01,0.03 0.01,0.04 0,0.04 0.01,0.04 0,0.04 0.01,0.04 0,0.04 0,0.05 c 0,1 -0.95,1 -1.64,1 h -29.84 c -0.71,0 -1.64,0 -1.64,-1 0,-0.98 0.93,-0.98 1.68,-0.98 z" /><path
           style="fill:#000000;stroke-width:0"
           inkscape:connector-curvature="0"
           id="path7960"
           d="m 528.8,412.82 0.07,0 0.06,0 0.14,0.01 0.14,0 0.07,0 0.07,0.01 0.07,0.01 0.07,0 0.06,0.01 0.07,0.02 0.07,0.01 0.06,0.02 0.07,0.02 0.06,0.02 0.06,0.02 0.06,0.03 0.05,0.03 0.05,0.04 0.05,0.04 0.05,0.04 0.04,0.05 0.02,0.02 0.02,0.03 0.02,0.02 0.02,0.03 0.01,0.03 0.02,0.03 0.01,0.03 0.02,0.03 0.01,0.04 0.01,0.03 0.01,0.04 0.01,0.04 0,0.04 0.01,0.04 0,0.04 0.01,0.04 0,0.05 0,0.04 c 0,1 -0.95,1 -1.69,1 H 499 c -0.75,0 -1.68,0 -1.68,-1 0,-1 0.93,-1 1.64,-1 z" /><path
           style="fill:#000000;stroke-width:0"
           inkscape:connector-curvature="0"
           id="path7962"
           d="m 570,422.14 -0.01,0.74 -0.01,0.75 -0.02,0.75 -0.03,0.74 -0.05,0.75 -0.06,0.74 -0.07,0.74 -0.1,0.73 -0.11,0.73 -0.14,0.73 -0.16,0.72 -0.19,0.72 -0.22,0.72 -0.25,0.7 -0.27,0.7 -0.15,0.35 -0.16,0.34 c -2.28,4.8 -6.38,5.6 -8.47,5.6 -2.99,0 -6.63,-1.3 -8.68,-5.94 -1.59,-3.44 -1.84,-7.33 -1.84,-11.31 0,-3.74 0.21,-8.22 2.25,-12 2.14,-4.03 5.78,-5.03 8.22,-5.03 v 1.09 c -1.94,0 -4.89,1.25 -5.78,6.03 -0.55,2.98 -0.55,7.56 -0.55,10.52 0,3.18 0,6.46 0.41,9.15 0.94,5.94 4.67,6.38 5.92,6.38 1.64,0 4.94,-0.89 5.87,-5.83 0.5,-2.78 0.5,-6.58 0.5,-9.7 0,-3.75 0,-7.13 -0.54,-10.32 -0.75,-4.73 -3.59,-6.23 -5.83,-6.23 h 0 v -1.09 c 2.69,0 6.47,1.04 8.67,5.78 1.6,3.43 1.85,7.31 1.85,11.25 z" /></g>    </g>
    <g
       transform="matrix(0.37696698,0,0,0.37696698,199.34147,93.72999)"
       id="g8136">
      <g
         style="font-style:normal;font-variant:normal;font-weight:normal;font-stretch:normal;letter-spacing:normal;word-spacing:normal;text-anchor:start;fill:none;stroke:#000000;stroke-linecap:butt;stroke-linejoin:miter;stroke-miterlimit:10.43299961;stroke-opacity:1;stroke-dasharray:none;stroke-dashoffset:0"
         id="g8138"
         transform="matrix(1.0629921,0,0,-1.0629921,-186.02362,789.27165)"
         xml:space="preserve"
         stroke-miterlimit="10.433"
         font-style="normal"
         font-variant="normal"
         font-weight="normal"
         font-stretch="normal"
         font-size-adjust="none"
         letter-spacing="normal"
         word-spacing="normal"><path
           style="fill:#000000;stroke-width:0"
           inkscape:connector-curvature="0"
           d="m 457.75,400.12 -0.03,-0.15 -0.04,-0.15 -0.03,-0.14 -0.03,-0.13 -0.04,-0.13 -0.03,-0.11 -0.04,-0.12 -0.03,-0.1 -0.04,-0.1 -0.04,-0.09 -0.04,-0.09 -0.05,-0.08 -0.05,-0.07 -0.05,-0.07 -0.06,-0.07 -0.06,-0.06 -0.07,-0.05 -0.07,-0.05 -0.08,-0.04 -0.09,-0.04 -0.09,-0.04 -0.1,-0.03 -0.11,-0.03 -0.12,-0.02 -0.13,-0.02 -0.06,-0.01 -0.07,-0.01 -0.07,-0.01 -0.08,-0.01 -0.07,0 -0.08,-0.01 -0.08,0 -0.09,-0.01 -0.08,0 -0.09,0 -0.1,0 -0.09,0 -0.1,-0.01 -0.1,0 c -0.6,0 -1.14,0 -1.14,-0.93 0,-0.41 0.25,-0.61 0.64,-0.61 1.36,0 2.79,0.15 4.18,0.15 1.64,0 3.35,-0.15 4.94,-0.15 0.25,0 0.89,0 0.89,1 0,0.54 -0.5,0.54 -1.19,0.54 -2.5,0 -2.5,0.36 -2.5,0.8 0,0.61 2.1,8.72 2.46,9.97 0.64,-1.44 2.03,-3.19 4.58,-3.19 l -0.05,1.1 c -3.3,0 -3.94,4.14 -3.94,4.43 0,0.1 0,0.21 0.14,0.8 l 2.46,9.77 c 0.34,1.34 1.68,2.73 2.57,3.48 1.75,1.55 3.21,1.89 4.05,1.89 1.98,0 3.19,-1.73 3.19,-4.69 0,-2.93 -1.64,-8.65 -2.55,-10.56 -1.69,-3.48 -4.08,-5.12 -5.92,-5.12 l 0.05,-1.1 c 5.78,0 12,7.27 12,14.6 0,4.68 -2.83,7.96 -6.63,7.96 -2.48,0 -4.87,-1.78 -6.51,-3.73 -0.5,2.69 -2.65,3.73 -4.49,3.73 -2.3,0 -3.25,-1.93 -3.69,-2.82 -0.9,-1.71 -1.54,-4.69 -1.54,-4.85 0,-0.5 0.5,-0.5 0.59,-0.5 0.5,0 0.55,0.07 0.84,1.16 0.86,3.53 1.85,5.92 3.64,5.92 0.85,0 1.55,-0.39 1.55,-2.28 0,-1.16 -0.15,-1.7 -0.34,-2.55 z"
           id="path8140" /><path
           style="fill:#000000;stroke-width:0"
           inkscape:connector-curvature="0"
           d="m 528.75,422.5 0.14,0 0.15,0 0.14,0 0.07,0.01 0.08,0 0.07,0.01 0.07,0.01 0.07,0.01 0.07,0.01 0.07,0.01 0.06,0.02 0.07,0.02 0.06,0.02 0.06,0.02 0.06,0.03 0.06,0.03 0.05,0.04 0.05,0.03 0.05,0.05 0.04,0.04 0.04,0.05 0.02,0.03 0.02,0.03 0.01,0.02 0.02,0.03 0.01,0.03 0.02,0.04 0.01,0.03 0.01,0.04 0.01,0.03 0.01,0.04 0,0.04 0.01,0.04 0,0.04 0.01,0.04 0,0.04 0,0.05 c 0,1 -0.95,1 -1.64,1 h -29.84 c -0.71,0 -1.64,0 -1.64,-1 0,-0.98 0.93,-0.98 1.68,-0.98 z"
           id="path8142" /><path
           style="fill:#000000;stroke-width:0"
           inkscape:connector-curvature="0"
           d="m 528.8,412.82 0.07,0 0.06,0 0.14,0.01 0.14,0 0.07,0 0.07,0.01 0.07,0.01 0.07,0 0.06,0.01 0.07,0.02 0.07,0.01 0.06,0.02 0.07,0.02 0.06,0.02 0.06,0.02 0.06,0.03 0.05,0.03 0.05,0.04 0.05,0.04 0.05,0.04 0.04,0.05 0.02,0.02 0.02,0.03 0.02,0.02 0.02,0.03 0.01,0.03 0.02,0.03 0.01,0.03 0.02,0.03 0.01,0.04 0.01,0.03 0.01,0.04 0.01,0.04 0,0.04 0.01,0.04 0,0.04 0.01,0.04 0,0.05 0,0.04 c 0,1 -0.95,1 -1.69,1 H 499 c -0.75,0 -1.68,0 -1.68,-1 0,-1 0.93,-1 1.64,-1 z"
           id="path8144" /><path
           style="fill:#000000;stroke-width:0"
           inkscape:connector-curvature="0"
           d="m 561.72,438.09 0,0.05 -0.01,0.06 0,0.05 0,0.05 0,0.05 0,0.05 0,0.04 0,0.05 0,0.04 0,0.04 0,0.04 0,0.04 0,0.04 -0.01,0.03 0,0.04 0,0.03 -0.01,0.07 -0.01,0.06 -0.01,0.05 -0.02,0.05 -0.01,0.05 -0.02,0.04 -0.02,0.04 -0.03,0.03 -0.03,0.03 -0.03,0.03 -0.03,0.03 -0.04,0.02 -0.05,0.02 -0.02,0.01 -0.03,0.01 -0.02,0 -0.03,0.01 -0.03,0.01 -0.03,0 -0.03,0.01 -0.03,0 -0.03,0.01 -0.04,0 -0.03,0 -0.04,0.01 -0.04,0 -0.04,0 -0.04,0 -0.04,0 -0.05,0 -0.05,0.01 -0.04,0 -0.05,0 -0.05,0 -0.06,0 c -3.09,-3.19 -7.47,-3.19 -9.06,-3.19 v -1.55 c 1,0 3.94,0 6.52,1.3 v -25.81 c 0,-1.8 -0.14,-2.39 -4.63,-2.39 h -1.59 v -1.55 c 1.75,0.16 6.08,0.16 8.06,0.16 2,0 6.33,0 8.08,-0.16 v 1.55 h -1.6 c -4.48,0 -4.63,0.54 -4.63,2.39 z"
           id="path8146" /></g>    </g>
    <g
       transform="matrix(0.37696698,0,0,0.37696698,285.30458,93.72999)"
       id="g8332">
      <g
         style="font-style:normal;font-variant:normal;font-weight:normal;font-stretch:normal;letter-spacing:normal;word-spacing:normal;text-anchor:start;fill:none;stroke:#000000;stroke-linecap:butt;stroke-linejoin:miter;stroke-miterlimit:10.43299961;stroke-opacity:1;stroke-dasharray:none;stroke-dashoffset:0"
         word-spacing="normal"
         letter-spacing="normal"
         font-size-adjust="none"
         font-stretch="normal"
         font-weight="normal"
         font-variant="normal"
         font-style="normal"
         stroke-miterlimit="10.433"
         xml:space="preserve"
         transform="matrix(1.0629921,0,0,-1.0629921,-186.02362,789.27165)"
         id="g8334"><path
           style="fill:#000000;stroke-width:0"
           inkscape:connector-curvature="0"
           id="path8336"
           d="m 457.75,400.12 -0.03,-0.15 -0.04,-0.15 -0.03,-0.14 -0.03,-0.13 -0.04,-0.13 -0.03,-0.11 -0.04,-0.12 -0.03,-0.1 -0.04,-0.1 -0.04,-0.09 -0.04,-0.09 -0.05,-0.08 -0.05,-0.07 -0.05,-0.07 -0.06,-0.07 -0.06,-0.06 -0.07,-0.05 -0.07,-0.05 -0.08,-0.04 -0.09,-0.04 -0.09,-0.04 -0.1,-0.03 -0.11,-0.03 -0.12,-0.02 -0.13,-0.02 -0.06,-0.01 -0.07,-0.01 -0.07,-0.01 -0.08,-0.01 -0.07,0 -0.08,-0.01 -0.08,0 -0.09,-0.01 -0.08,0 -0.09,0 -0.1,0 -0.09,0 -0.1,-0.01 -0.1,0 c -0.6,0 -1.14,0 -1.14,-0.93 0,-0.41 0.25,-0.61 0.64,-0.61 1.36,0 2.79,0.15 4.18,0.15 1.64,0 3.35,-0.15 4.94,-0.15 0.25,0 0.89,0 0.89,1 0,0.54 -0.5,0.54 -1.19,0.54 -2.5,0 -2.5,0.36 -2.5,0.8 0,0.61 2.1,8.72 2.46,9.97 0.64,-1.44 2.03,-3.19 4.58,-3.19 l -0.05,1.1 c -3.3,0 -3.94,4.14 -3.94,4.43 0,0.1 0,0.21 0.14,0.8 l 2.46,9.77 c 0.34,1.34 1.68,2.73 2.57,3.48 1.75,1.55 3.21,1.89 4.05,1.89 1.98,0 3.19,-1.73 3.19,-4.69 0,-2.93 -1.64,-8.65 -2.55,-10.56 -1.69,-3.48 -4.08,-5.12 -5.92,-5.12 l 0.05,-1.1 c 5.78,0 12,7.27 12,14.6 0,4.68 -2.83,7.96 -6.63,7.96 -2.48,0 -4.87,-1.78 -6.51,-3.73 -0.5,2.69 -2.65,3.73 -4.49,3.73 -2.3,0 -3.25,-1.93 -3.69,-2.82 -0.9,-1.71 -1.54,-4.69 -1.54,-4.85 0,-0.5 0.5,-0.5 0.59,-0.5 0.5,0 0.55,0.07 0.84,1.16 0.86,3.53 1.85,5.92 3.64,5.92 0.85,0 1.55,-0.39 1.55,-2.28 0,-1.16 -0.15,-1.7 -0.34,-2.55 z" /><path
           style="fill:#000000;stroke-width:0"
           inkscape:connector-curvature="0"
           id="path8338"
           d="m 528.75,422.5 0.14,0 0.15,0 0.14,0 0.07,0.01 0.08,0 0.07,0.01 0.07,0.01 0.07,0.01 0.07,0.01 0.07,0.01 0.06,0.02 0.07,0.02 0.06,0.02 0.06,0.02 0.06,0.03 0.06,0.03 0.05,0.04 0.05,0.03 0.05,0.05 0.04,0.04 0.04,0.05 0.02,0.03 0.02,0.03 0.01,0.02 0.02,0.03 0.01,0.03 0.02,0.04 0.01,0.03 0.01,0.04 0.01,0.03 0.01,0.04 0,0.04 0.01,0.04 0,0.04 0.01,0.04 0,0.04 0,0.05 c 0,1 -0.95,1 -1.64,1 h -29.84 c -0.71,0 -1.64,0 -1.64,-1 0,-0.98 0.93,-0.98 1.68,-0.98 z" /><path
           style="fill:#000000;stroke-width:0"
           inkscape:connector-curvature="0"
           id="path8340"
           d="m 528.8,412.82 0.07,0 0.06,0 0.14,0.01 0.14,0 0.07,0 0.07,0.01 0.07,0.01 0.07,0 0.06,0.01 0.07,0.02 0.07,0.01 0.06,0.02 0.07,0.02 0.06,0.02 0.06,0.02 0.06,0.03 0.05,0.03 0.05,0.04 0.05,0.04 0.05,0.04 0.04,0.05 0.02,0.02 0.02,0.03 0.02,0.02 0.02,0.03 0.01,0.03 0.02,0.03 0.01,0.03 0.02,0.03 0.01,0.04 0.01,0.03 0.01,0.04 0.01,0.04 0,0.04 0.01,0.04 0,0.04 0.01,0.04 0,0.05 0,0.04 c 0,1 -0.95,1 -1.69,1 H 499 c -0.75,0 -1.68,0 -1.68,-1 0,-1 0.93,-1 1.64,-1 z" /><path
           style="fill:#000000;stroke-width:0"
           inkscape:connector-curvature="0"
           id="path8342"
           d="m 553.4,410.04 5.28,5.13 c 7.77,6.87 10.77,9.56 10.77,14.54 0,5.69 -4.48,9.68 -10.56,9.68 -5.64,0 -9.33,-4.6 -9.33,-9.03 0,-2.79 2.5,-2.79 2.64,-2.79 0.86,0 2.59,0.6 2.59,2.64 0,1.3 -0.89,2.6 -2.64,2.6 -0.39,0 -0.5,0 -0.64,-0.05 1.14,3.24 3.83,5.08 6.72,5.08 4.53,0 6.69,-4.05 6.69,-8.13 0,-3.98 -2.5,-7.92 -5.24,-11.01 l -9.56,-10.66 c -0.56,-0.54 -0.56,-0.64 -0.56,-1.84 h 18.48 l 1.41,8.67 h -1.25 c -0.25,-1.5 -0.6,-3.69 -1.1,-4.44 -0.35,-0.39 -3.63,-0.39 -4.73,-0.39 z" /></g>    </g>
    <g
       transform="matrix(0.37696698,0,0,0.37696698,380.271,93.72999)"
       id="g8540">
      <g
         style="font-style:normal;font-variant:normal;font-weight:normal;font-stretch:normal;letter-spacing:normal;word-spacing:normal;text-anchor:start;fill:none;stroke:#000000;stroke-linecap:butt;stroke-linejoin:miter;stroke-miterlimit:10.43299961;stroke-opacity:1;stroke-dasharray:none;stroke-dashoffset:0"
         id="g8542"
         transform="matrix(1.0629921,0,0,-1.0629921,-186.02362,789.27165)"
         xml:space="preserve"
         stroke-miterlimit="10.433"
         font-style="normal"
         font-variant="normal"
         font-weight="normal"
         font-stretch="normal"
         font-size-adjust="none"
         letter-spacing="normal"
         word-spacing="normal"><path
           style="fill:#000000;stroke-width:0"
           inkscape:connector-curvature="0"
           d="m 457.75,400.12 -0.03,-0.15 -0.04,-0.15 -0.03,-0.14 -0.03,-0.13 -0.04,-0.13 -0.03,-0.11 -0.04,-0.12 -0.03,-0.1 -0.04,-0.1 -0.04,-0.09 -0.04,-0.09 -0.05,-0.08 -0.05,-0.07 -0.05,-0.07 -0.06,-0.07 -0.06,-0.06 -0.07,-0.05 -0.07,-0.05 -0.08,-0.04 -0.09,-0.04 -0.09,-0.04 -0.1,-0.03 -0.11,-0.03 -0.12,-0.02 -0.13,-0.02 -0.06,-0.01 -0.07,-0.01 -0.07,-0.01 -0.08,-0.01 -0.07,0 -0.08,-0.01 -0.08,0 -0.09,-0.01 -0.08,0 -0.09,0 -0.1,0 -0.09,0 -0.1,-0.01 -0.1,0 c -0.6,0 -1.14,0 -1.14,-0.93 0,-0.41 0.25,-0.61 0.64,-0.61 1.36,0 2.79,0.15 4.18,0.15 1.64,0 3.35,-0.15 4.94,-0.15 0.25,0 0.89,0 0.89,1 0,0.54 -0.5,0.54 -1.19,0.54 -2.5,0 -2.5,0.36 -2.5,0.8 0,0.61 2.1,8.72 2.46,9.97 0.64,-1.44 2.03,-3.19 4.58,-3.19 l -0.05,1.1 c -3.3,0 -3.94,4.14 -3.94,4.43 0,0.1 0,0.21 0.14,0.8 l 2.46,9.77 c 0.34,1.34 1.68,2.73 2.57,3.48 1.75,1.55 3.21,1.89 4.05,1.89 1.98,0 3.19,-1.73 3.19,-4.69 0,-2.93 -1.64,-8.65 -2.55,-10.56 -1.69,-3.48 -4.08,-5.12 -5.92,-5.12 l 0.05,-1.1 c 5.78,0 12,7.27 12,14.6 0,4.68 -2.83,7.96 -6.63,7.96 -2.48,0 -4.87,-1.78 -6.51,-3.73 -0.5,2.69 -2.65,3.73 -4.49,3.73 -2.3,0 -3.25,-1.93 -3.69,-2.82 -0.9,-1.71 -1.54,-4.69 -1.54,-4.85 0,-0.5 0.5,-0.5 0.59,-0.5 0.5,0 0.55,0.07 0.84,1.16 0.86,3.53 1.85,5.92 3.64,5.92 0.85,0 1.55,-0.39 1.55,-2.28 0,-1.16 -0.15,-1.7 -0.34,-2.55 z"
           id="path8544" /><path
           style="fill:#000000;stroke-width:0"
           inkscape:connector-curvature="0"
           d="m 528.75,422.5 0.14,0 0.15,0 0.14,0 0.07,0.01 0.08,0 0.07,0.01 0.07,0.01 0.07,0.01 0.07,0.01 0.07,0.01 0.06,0.02 0.07,0.02 0.06,0.02 0.06,0.02 0.06,0.03 0.06,0.03 0.05,0.04 0.05,0.03 0.05,0.05 0.04,0.04 0.04,0.05 0.02,0.03 0.02,0.03 0.01,0.02 0.02,0.03 0.01,0.03 0.02,0.04 0.01,0.03 0.01,0.04 0.01,0.03 0.01,0.04 0,0.04 0.01,0.04 0,0.04 0.01,0.04 0,0.04 0,0.05 c 0,1 -0.95,1 -1.64,1 h -29.84 c -0.71,0 -1.64,0 -1.64,-1 0,-0.98 0.93,-0.98 1.68,-0.98 z"
           id="path8546" /><path
           style="fill:#000000;stroke-width:0"
           inkscape:connector-curvature="0"
           d="m 528.8,412.82 0.07,0 0.06,0 0.14,0.01 0.14,0 0.07,0 0.07,0.01 0.07,0.01 0.07,0 0.06,0.01 0.07,0.02 0.07,0.01 0.06,0.02 0.07,0.02 0.06,0.02 0.06,0.02 0.06,0.03 0.05,0.03 0.05,0.04 0.05,0.04 0.05,0.04 0.04,0.05 0.02,0.02 0.02,0.03 0.02,0.02 0.02,0.03 0.01,0.03 0.02,0.03 0.01,0.03 0.02,0.03 0.01,0.04 0.01,0.03 0.01,0.04 0.01,0.04 0,0.04 0.01,0.04 0,0.04 0.01,0.04 0,0.05 0,0.04 c 0,1 -0.95,1 -1.69,1 H 499 c -0.75,0 -1.68,0 -1.68,-1 0,-1 0.93,-1 1.64,-1 z"
           id="path8548" /><path
           style="fill:#000000;stroke-width:0"
           inkscape:connector-curvature="0"
           d="m 561.53,423.73 0.38,0.13 0.37,0.15 0.36,0.15 0.36,0.17 0.35,0.18 0.33,0.19 0.33,0.2 0.33,0.22 0.31,0.22 0.3,0.23 0.29,0.24 0.28,0.25 0.28,0.26 0.26,0.27 0.24,0.27 0.24,0.29 0.23,0.29 0.21,0.3 0.2,0.3 0.19,0.32 0.17,0.32 0.16,0.32 0.15,0.33 0.13,0.34 0.12,0.34 0.1,0.34 0.09,0.35 0.07,0.36 0.06,0.36 0.04,0.36 0.03,0.36 0.01,0.37 c 0,4.08 -4.4,6.88 -9.18,6.88 -5.03,0 -8.81,-3 -8.81,-6.78 0,-1.65 1.09,-2.6 2.55,-2.6 1.53,0 2.53,1.1 2.53,2.55 0,2.48 -2.34,2.48 -3.08,2.48 1.53,2.44 4.83,3.1 6.63,3.1 2.03,0 4.78,-1.1 4.78,-5.58 0,-0.61 -0.11,-3.49 -1.41,-5.69 -1.48,-2.39 -3.19,-2.53 -4.42,-2.59 -0.41,-0.05 -1.59,-0.14 -1.95,-0.14 -0.39,-0.05 -0.75,-0.1 -0.75,-0.6 0,-0.54 0.36,-0.54 1.2,-0.54 h 2.19 c 4.09,0 5.94,-3.39 5.94,-8.29 0,-6.76 -3.44,-8.21 -5.65,-8.21 -2.14,0 -5.87,0.84 -7.6,3.78 1.73,-0.24 3.28,0.86 3.28,2.75 0,1.79 -1.35,2.78 -2.8,2.78 -1.19,0 -2.78,-0.69 -2.78,-2.89 0,-4.53 4.62,-7.81 10.06,-7.81 6.08,0 10.61,4.53 10.61,9.6 0,4.1 -3.14,7.97 -8.31,9.02 z"
           id="path8550" /></g>    </g>
    <path
       style="opacity:0.5;fill:#000080;stroke:#000000;stroke-width:0.91344994px;stroke-linecap:butt;stroke-linejoin:miter;stroke-opacity:1"
       d="m 337.90647,456.50485 44.76251,0 0,59.64921 -44.76251,0 0,-59.64921"
       id="path7823"
       inkscape:connector-curvature="0" />
    <path
       style="opacity:0.5;fill:#000080;stroke:#000000;stroke-width:0.37696698px;stroke-linecap:butt;stroke-linejoin:miter;stroke-opacity:1"
       d="m 397.92071,440.96001 -15.07868,15.07868 0,60.31472 15.07868,-15.07868 0,-60.31472"
       id="path7825"
       inkscape:connector-curvature="0" />
    <path
       inkscape:original-d="m 337.57475,509.01556 c 0,7.53935 0,7.53935 0,7.53935 l 7.53934,0 0,-7.53935 z"
       inkscape:path-effect="#path-effect8712"
       inkscape:connector-curvature="0"
       id="path8710"
       d="m 337.57475,516.55491 0,-60.3148 m 7.53934,60.3148 0,-60.3148 m 7.53934,60.3148 0,-60.3148 m 7.53934,60.3148 0,-60.3148 m 7.53934,60.3148 0,-60.3148 m 7.53934,60.3148 0,-60.3148 m 7.53934,60.3148 0,-60.3148 m -45.23604,60.3148 45.23604,0 m -45.23604,-7.53935 45.23604,0 m -45.23604,-7.53935 45.23604,0 m -45.23604,-7.53935 45.23604,0 m -45.23604,-7.53935 45.23604,0 m -45.23604,-7.53935 45.23604,0 m -45.23604,-7.53935 45.23604,0 m -45.23604,-7.53935 45.23604,0 m -45.23604,-7.53935 45.23604,0"
       style="fill:none;stroke:#000000;stroke-width:0.37696698px;stroke-linecap:butt;stroke-linejoin:miter;stroke-opacity:1" />
    <path
       inkscape:original-d="m 395.97771,443.14058 1.88484,-1.88483 0,7.53934 -1.88484,1.88483"
       inkscape:path-effect="#path-effect8716"
       inkscape:connector-curvature="0"
       id="path8714"
       d="m 397.86255,441.25575 -15.07872,15.07864 m 15.07872,-7.5393 -15.07872,15.07864 m 15.07872,-7.5393 -15.07872,15.07864 m 15.07872,-7.5393 -15.07872,15.07864 m 15.07872,-7.5393 -15.07872,15.07864 m 15.07872,-7.5393 -15.07872,15.07864 m 15.07872,-7.5393 -15.07872,15.07864 m 15.07872,-7.5393 -15.07872,15.07864 m 15.07872,-7.5393 -15.07872,15.07864 m 15.07872,-75.39336 0,60.31472 m -1.88484,-58.42989 0,60.31472 m -1.88484,-58.42989 0,60.31472 m -1.88484,-58.42989 0,60.31472 m -1.88484,-58.42989 0,60.31472 m -1.88484,-58.42989 0,60.31472 m -1.88484,-58.42989 0,60.31472 m -1.88484,-58.42989 0,60.31472 m -1.88484,-58.42989 0,60.31472"
       style="fill:none;stroke:#000000;stroke-width:0.37696698px;stroke-linecap:butt;stroke-linejoin:miter;stroke-opacity:1" />
    <path
       inkscape:original-d="m 350.72245,443.05306 1.88483,-1.88484 7.53934,0 -1.88483,1.88484 -7.53934,0"
       inkscape:path-effect="#path-effect8720"
       inkscape:connector-curvature="0"
       id="path8718"
       d="m 352.60728,441.16822 -15.07864,15.07872 m 22.61798,-15.07872 -15.07864,15.07872 m 22.61798,-15.07872 -15.07864,15.07872 m 22.61798,-15.07872 -15.07864,15.07872 m 22.61798,-15.07872 -15.07864,15.07872 m 22.61798,-15.07872 -15.07864,15.07872 m 22.61798,-15.07872 -15.07864,15.07872 m -30.1574,-15.07872 45.23604,0 m -47.12087,1.88484 45.23604,0 m -47.12087,1.88484 45.23604,0 m -47.12087,1.88484 45.23604,0 m -47.12087,1.88484 45.23604,0 m -47.12087,1.88484 45.23604,0 m -47.12087,1.88484 45.23604,0 m -47.12087,1.88484 45.23604,0 m -47.12087,1.88484 45.23604,0"
       style="fill:none;stroke:#000000;stroke-width:0.37696698px;stroke-linecap:butt;stroke-linejoin:miter;stroke-opacity:1" />
    <path
       inkscape:connector-curvature="0"
       id="path8740"
       d="m 397.88947,441.16151 -45.23603,0 -15.07869,15.07868 45.23604,0 z"
       style="opacity:0.5;fill:#000080;stroke:#000000;stroke-width:0.37696698px;stroke-linecap:butt;stroke-linejoin:miter;stroke-opacity:1" />
    <g
       transform="matrix(0.37696698,0,0,0.37696698,268.82045,87.42827)"
       id="g8762">
      <g
         transform="translate(-228,-2)"
         id="g8764">
        <path
           style="opacity:0.5;fill:#000080;stroke:#000000;stroke-width:0.97814232px;stroke-linecap:butt;stroke-linejoin:miter;stroke-opacity:1"
           d="m 425.63444,437.58412 19.17363,0 0,159.67959 -19.17363,0 0,-159.67959"
           id="path8766"
           inkscape:connector-curvature="0" />
        <path
           style="opacity:0.5;fill:#000080;stroke:#000000;stroke-width:1px;stroke-linecap:butt;stroke-linejoin:miter;stroke-opacity:1"
           d="m 484.79715,397.82766 -40,40 0,160 40,-40 0,-160"
           id="path8768"
           inkscape:connector-curvature="0" />
        <path
           style="opacity:0.5;fill:#000080;stroke:#000000;stroke-width:1px;stroke-linecap:butt;stroke-linejoin:miter;stroke-opacity:1"
           d="m 485,397.36218 -20,0 -40,40 20,0 z"
           id="path8770"
           inkscape:connector-curvature="0" />
      </g>
    </g>
    <path
       inkscape:connector-curvature="0"
       id="path4383"
       d="m 258.00468,313.12557 82.12801,82.12802"
       style="fill:none;stroke:#000000;stroke-width:0.74661833px;stroke-linecap:butt;stroke-linejoin:miter;stroke-opacity:1" />
    <flowRoot
       transform="translate(0,308.2677)"
       style="font-size:20px;font-style:normal;font-variant:normal;font-weight:normal;font-stretch:normal;line-height:125%;letter-spacing:0px;word-spacing:0px;fill:#000000;fill-opacity:1;stroke:none;font-family:Latin Modern Math;-inkscape-font-specification:Latin Modern Math"
       id="flowRoot4385"
       xml:space="preserve"><flowRegion
         id="flowRegion4387"><rect
           y="259.22125"
           x="480.32755"
           height="29.294424"
           width="92.428955"
           id="rect4389" /></flowRegion><flowPara
         id="flowPara4391">copyFacesKernel</flowPara></flowRoot>    <flowRoot
       transform="matrix(0.62255923,0,0,0.62255923,25.43381,152.55049)"
       style="font-size:20px;font-style:normal;font-variant:normal;font-weight:normal;font-stretch:normal;line-height:125%;letter-spacing:0px;word-spacing:0px;fill:#000000;fill-opacity:1;stroke:none;font-family:Latin Modern Math;-inkscape-font-specification:Latin Modern Math"
       id="flowRoot4393"
       xml:space="preserve"><flowRegion
         id="flowRegion4395"><rect
           y="271.84818"
           x="468.71078"
           height="35.355339"
           width="187.3833"
           id="rect4397" /></flowRegion><flowPara
         style="font-style:normal;font-variant:normal;font-weight:normal;font-stretch:normal;font-family:Latin Modern Mono;-inkscape-font-specification:Latin Modern Mono"
         id="flowPara4399">copyFacesKernel</flowPara></flowRoot>    <flowRoot
       xml:space="preserve"
       id="flowRoot4403"
       style="font-size:20px;font-style:normal;font-variant:normal;font-weight:normal;font-stretch:normal;line-height:125%;letter-spacing:0px;word-spacing:0px;fill:#000000;fill-opacity:1;stroke:none;font-family:Latin Modern Math;-inkscape-font-specification:Latin Modern Math"
       transform="matrix(0.62255923,0,0,0.62255923,47.83236,231.69203)"><flowRegion
         id="flowRegion4405"><rect
           id="rect4407"
           width="187.3833"
           height="35.355339"
           x="468.71078"
           y="271.84818" /></flowRegion><flowPara
         id="flowPara4409"
         style="font-style:normal;font-variant:normal;font-weight:normal;font-stretch:normal;font-family:Latin Modern Mono;-inkscape-font-specification:Latin Modern Mono">MPI_Gather</flowPara></flowRoot>    <path
       inkscape:connector-curvature="0"
       id="path4435"
       d="m 366.32128,417.90979 -0.057,17.66119"
       style="fill:none;stroke:#000000;stroke-width:0.74661833px;stroke-linecap:butt;stroke-linejoin:miter;stroke-opacity:1" />
    <flowRoot
       transform="matrix(0.7466183,0,0,0.7466183,-0.37211,138.07581)"
       style="font-size:20px;font-style:normal;font-variant:normal;font-weight:normal;font-stretch:normal;line-height:125%;letter-spacing:0px;word-spacing:0px;fill:#000000;fill-opacity:1;stroke:none;font-family:Latin Modern Math;-inkscape-font-specification:Latin Modern Math"
       id="flowRoot4437"
       xml:space="preserve"><flowRegion
         id="flowRegion4439"><rect
           y="444.07919"
           x="550.53314"
           height="31.314728"
           width="149.50258"
           id="rect4441" /></flowRegion><flowPara
         id="flowPara4443">Reduced systems</flowPara></flowRoot>    <path
       inkscape:connector-curvature="0"
       id="path4487"
       d="m 368,521.22254 0,64.56488"
       style="fill:none;stroke:#000000;stroke-width:1.2283392px;stroke-linecap:butt;stroke-linejoin:miter;stroke-opacity:1;marker-start:none;marker-end:url(#Arrow1Mend)" />
    <path
       inkscape:connector-curvature="0"
       id="path5113"
       d="m 337.90647,608.50485 44.76251,0 0,59.64921 -44.76251,0 0,-59.64921"
       style="opacity:0.5;fill:#008000;stroke:#000000;stroke-width:0.91344994px;stroke-linecap:butt;stroke-linejoin:miter;stroke-opacity:1" />
    <path
       inkscape:connector-curvature="0"
       id="path5115"
       d="m 397.92071,592.96001 -15.07868,15.07868 0,60.31472 15.07868,-15.07868 0,-60.31472"
       style="opacity:0.5;fill:#008000;stroke:#000000;stroke-width:0.37696698px;stroke-linecap:butt;stroke-linejoin:miter;stroke-opacity:1" />
    <path
       style="fill:none;stroke:#000000;stroke-width:0.37696698px;stroke-linecap:butt;stroke-linejoin:miter;stroke-opacity:1"
       d="m 337.57475,668.55491 0,-60.3148 m 7.53934,60.3148 0,-60.3148 m 7.53934,60.3148 0,-60.3148 m 7.53934,60.3148 0,-60.3148 m 7.53934,60.3148 0,-60.3148 m 7.53934,60.3148 0,-60.3148 m 7.53934,60.3148 0,-60.3148 m -45.23604,60.3148 45.23604,0 m -45.23604,-7.53935 45.23604,0 m -45.23604,-7.53935 45.23604,0 m -45.23604,-7.53935 45.23604,0 m -45.23604,-7.53935 45.23604,0 m -45.23604,-7.53935 45.23604,0 m -45.23604,-7.53935 45.23604,0 m -45.23604,-7.53935 45.23604,0 m -45.23604,-7.53935 45.23604,0"
       id="path5117"
       inkscape:connector-curvature="0"
       inkscape:path-effect="#path-effect5125"
       inkscape:original-d="m 337.57475,661.01556 c 0,7.53935 0,7.53935 0,7.53935 l 7.53934,0 0,-7.53935 z" />
    <path
       style="fill:#008000;stroke:#000000;stroke-width:0.37696698px;stroke-linecap:butt;stroke-linejoin:miter;stroke-opacity:1"
       d="m 397.86255,593.25575 -15.07872,15.07864 m 15.07872,-7.5393 -15.07872,15.07864 m 15.07872,-7.5393 -15.07872,15.07864 m 15.07872,-7.5393 -15.07872,15.07864 m 15.07872,-7.5393 -15.07872,15.07864 m 15.07872,-7.5393 -15.07872,15.07864 m 15.07872,-7.5393 -15.07872,15.07864 m 15.07872,-7.5393 -15.07872,15.07864 m 15.07872,-7.5393 -15.07872,15.07864 m 15.07872,-75.39336 0,60.31472 m -1.88484,-58.42989 0,60.31472 m -1.88484,-58.42989 0,60.31472 m -1.88484,-58.42989 0,60.31472 m -1.88484,-58.42989 0,60.31472 m -1.88484,-58.42989 0,60.31472 m -1.88484,-58.42989 0,60.31472 m -1.88484,-58.42989 0,60.31472 m -1.88484,-58.42989 0,60.31472"
       id="path5119"
       inkscape:connector-curvature="0"
       inkscape:path-effect="#path-effect5127"
       inkscape:original-d="m 395.97771,595.14058 1.88484,-1.88483 0,7.53934 -1.88484,1.88483" />
    <path
       style="fill:none;stroke:#000000;stroke-width:0.37696698px;stroke-linecap:butt;stroke-linejoin:miter;stroke-opacity:1"
       d="m 352.60728,593.16822 -15.07864,15.07872 m 22.61798,-15.07872 -15.07864,15.07872 m 22.61798,-15.07872 -15.07864,15.07872 m 22.61798,-15.07872 -15.07864,15.07872 m 22.61798,-15.07872 -15.07864,15.07872 m 22.61798,-15.07872 -15.07864,15.07872 m 22.61798,-15.07872 -15.07864,15.07872 m -30.1574,-15.07872 45.23604,0 m -47.12087,1.88484 45.23604,0 m -47.12087,1.88484 45.23604,0 m -47.12087,1.88484 45.23604,0 m -47.12087,1.88484 45.23604,0 m -47.12087,1.88484 45.23604,0 m -47.12087,1.88484 45.23604,0 m -47.12087,1.88484 45.23604,0 m -47.12087,1.88484 45.23604,0"
       id="path5121"
       inkscape:connector-curvature="0"
       inkscape:path-effect="#path-effect5129"
       inkscape:original-d="m 350.72245,595.05306 1.88483,-1.88484 7.53934,0 -1.88483,1.88484 -7.53934,0" />
    <path
       style="opacity:0.5;fill:#008000;stroke:#000000;stroke-width:0.37696698px;stroke-linecap:butt;stroke-linejoin:miter;stroke-opacity:1"
       d="m 397.88947,593.16151 -45.23603,0 -15.07869,15.07868 45.23604,0 z"
       id="path5123"
       inkscape:connector-curvature="0" />
    <path
       style="fill:none;stroke:#000000;stroke-width:0.74661833px;stroke-linecap:butt;stroke-linejoin:miter;stroke-opacity:1"
       d="M 474.52399,795.25359 392.39597,713.12557"
       id="path5131"
       inkscape:connector-curvature="0" />
    <path
       style="fill:none;stroke:#000000;stroke-width:0.74661833px;stroke-linecap:butt;stroke-linejoin:miter;stroke-opacity:1"
       d="M 399.86216,765.38885 384.92979,713.12557"
       id="path5133"
       inkscape:connector-curvature="0" />
    <path
       style="fill:none;stroke:#000000;stroke-width:0.74661833px;stroke-linecap:butt;stroke-linejoin:miter;stroke-opacity:1"
       d="m 332.66651,765.38885 22.39855,-52.26328"
       id="path5135"
       inkscape:connector-curvature="0" />
    <path
       style="fill:none;stroke:#000000;stroke-width:0.74661833px;stroke-linecap:butt;stroke-linejoin:miter;stroke-opacity:1"
       d="m 258.00468,795.25359 82.12801,-82.12802"
       id="path5137"
       inkscape:connector-curvature="0" />
    <path
       style="fill:none;stroke:#000000;stroke-width:0.74661833px;stroke-linecap:butt;stroke-linejoin:miter;stroke-opacity:1"
       d="m 366.32128,677.90979 -0.057,17.66119"
       id="path5139"
       inkscape:connector-curvature="0" />
    <rect
       style="fill:#ffffff;fill-opacity:1;stroke:#000000;stroke-width:0;stroke-linecap:butt;stroke-linejoin:round;stroke-miterlimit:4;stroke-opacity:1;stroke-dasharray:none;stroke-dashoffset:0"
       id="rect5141"
       width="110.86716"
       height="13.537035"
       x="324.05072"
       y="686.91296" />
    <flowRoot
       transform="matrix(0.62255923,0,0,0.62255923,39.83236,521.69203)"
       style="font-size:20px;font-style:normal;font-variant:normal;font-weight:normal;font-stretch:normal;line-height:125%;letter-spacing:0px;word-spacing:0px;fill:#000000;fill-opacity:1;stroke:none;font-family:Latin Modern Math;-inkscape-font-specification:Latin Modern Math"
       id="flowRoot5143"
       xml:space="preserve"><flowRegion
         id="flowRegion5145"><rect
           y="271.84818"
           x="468.71078"
           height="35.355339"
           width="187.3833"
           id="rect5147" /></flowRegion><flowPara
         style="font-style:normal;font-variant:normal;font-weight:normal;font-stretch:normal;font-family:Latin Modern Mono;-inkscape-font-specification:Latin Modern Mono"
         id="flowPara5149">MPI_Scatter</flowPara></flowRoot>    <flowRoot
       style="font-size:20px;font-style:normal;font-variant:normal;font-weight:normal;font-stretch:normal;line-height:125%;letter-spacing:0px;word-spacing:0px;fill:#000000;fill-opacity:1;stroke:none;font-family:Latin Modern Math;-inkscape-font-specification:Latin Modern Math"
       id="flowRoot5151"
       xml:space="preserve"><flowRegion
         id="flowRegion5153"><rect
           y="516.23737"
           x="461.42856"
           height="22.5"
           width="128.21428"
           id="rect5155" /></flowRegion><flowPara
         id="flowPara5157" /></flowRoot>    <flowRoot
       transform="translate(0,308.2677)"
       style="font-size:20px;font-style:normal;font-variant:normal;font-weight:normal;font-stretch:normal;line-height:125%;letter-spacing:0px;word-spacing:0px;fill:#000000;fill-opacity:1;stroke:none;font-family:Latin Modern Math;-inkscape-font-specification:Latin Modern Math"
       id="flowRoot5159"
       xml:space="preserve"><flowRegion
         id="flowRegion5161"><rect
           y="461.95163"
           x="562.85712"
           height="55"
           width="196.42857"
           id="rect5163" /></flowRegion><flowPara
         id="flowPara5165" /></flowRoot>    <g
       id="g5687"
       transform="matrix(0.25004723,0,0,0.25004723,350.20802,554.82609)">
      <g
         id="g5689"
         transform="matrix(1.0629921,0,0,-1.0629921,-186.02362,789.27165)"
         xml:space="preserve"
         stroke-miterlimit="10.433"
         font-style="normal"
         font-variant="normal"
         font-weight="normal"
         font-stretch="normal"
         font-size-adjust="none"
         letter-spacing="normal"
         word-spacing="normal"
         style="font-style:normal;font-variant:normal;font-weight:normal;font-stretch:normal;letter-spacing:normal;word-spacing:normal;text-anchor:start;fill:none;stroke:#000000;stroke-linecap:butt;stroke-linejoin:miter;stroke-miterlimit:10.43299961;stroke-opacity:1;stroke-dasharray:none;stroke-dashoffset:0"><path
           d="m 479.29,417.96 -0.01,0.37 -0.01,0.35 -0.02,0.35 -0.02,0.34 -0.06,0.65 -0.09,0.63 -0.11,0.59 -0.14,0.57 -0.15,0.54 -0.18,0.51 -0.19,0.49 -0.21,0.45 -0.23,0.44 -0.25,0.4 -0.26,0.38 -0.27,0.36 -0.29,0.33 -0.3,0.31 -0.31,0.29 -0.31,0.26 -0.33,0.24 -0.34,0.22 -0.34,0.2 -0.35,0.18 -0.35,0.16 -0.36,0.14 -0.35,0.12 -0.36,0.11 -0.37,0.09 -0.36,0.06 -0.36,0.06 -0.35,0.04 -0.35,0.02 -0.35,0 -0.05,-1.09 c 4.94,0 4.94,-6.53 4.94,-10.41 0,-1.84 0,-4.73 0.09,-5.57 h 0 c -4.37,-3.85 -8.22,-4.39 -10.2,-4.39 -3,0 -4.49,2.25 -4.49,5.43 0,2.44 1.3,7.82 2.89,10.36 2.33,3.64 5.04,4.58 6.77,4.58 l 0.05,1.09 c -6.82,0 -13.39,-7.12 -13.39,-14.14 0,-4.64 2.98,-8.42 8.06,-8.42 3.14,0 6.73,1.14 10.51,4.19 0.66,-2.64 2.3,-4.19 4.54,-4.19 2.64,0 4.18,2.74 4.18,3.53 0,0.36 -0.29,0.5 -0.59,0.5 -0.36,0 -0.5,-0.14 -0.66,-0.5 -0.89,-2.43 -2.68,-2.43 -2.78,-2.43 -1.54,0 -1.54,3.89 -1.54,5.07 0,1.05 0,1.16 0.5,1.75 4.68,5.88 5.73,11.66 5.73,11.71 0,0.11 -0.06,0.5 -0.61,0.5 -0.5,0 -0.5,-0.14 -0.75,-1.05 -0.89,-3.14 -2.53,-6.92 -4.87,-9.86 z"
           id="path5691"
           inkscape:connector-curvature="0"
           style="fill:#000000;stroke-width:0" /><path
           d="m 490.05,394.51 -0.02,-0.09 -0.02,-0.08 -0.02,-0.09 -0.02,-0.07 -0.02,-0.08 -0.02,-0.07 -0.03,-0.07 -0.02,-0.06 -0.02,-0.06 -0.03,-0.05 -0.03,-0.06 -0.02,-0.05 -0.04,-0.04 -0.03,-0.05 -0.04,-0.04 -0.04,-0.03 -0.04,-0.04 -0.05,-0.03 -0.05,-0.03 -0.05,-0.02 -0.06,-0.03 -0.07,-0.02 -0.07,-0.01 -0.07,-0.02 -0.08,-0.02 -0.05,0 -0.04,-0.01 -0.04,0 -0.05,-0.01 -0.05,0 -0.05,0 -0.05,-0.01 -0.05,0 -0.06,0 -0.06,0 -0.06,-0.01 -0.06,0 -0.06,0 -0.06,0 c -0.46,0 -0.94,0 -0.94,-0.73 0,-0.39 0.31,-0.53 0.48,-0.53 0.91,0 2.07,0.14 3,0.14 1.19,0 2.5,-0.14 3.66,-0.14 0.31,0 0.7,0.11 0.7,0.76 0,0.5 -0.5,0.5 -0.9,0.5 -0.78,0 -1.72,0 -1.72,0.41 0,0.19 0.25,1.09 0.39,1.61 0.42,1.84 0.91,3.73 1.28,5.18 0.42,-0.68 1.5,-2.04 3.59,-2.04 v 0.97 c -2.46,0 -3.09,2.68 -3.09,3.03 0,0.14 0.06,0.39 0.09,0.53 l 1.75,7 c 2.02,2.69 3.77,3.2 4.88,3.2 1.36,0 2.55,-1.01 2.55,-3.37 0,-1.44 -0.77,-4.99 -1.82,-7.02 -0.87,-1.7 -2.57,-3.37 -4.36,-3.37 v -0.97 c 4.25,0 8.96,4.7 8.96,9.89 0,4.08 -2.83,5.81 -5.22,5.81 -2.17,0 -4.02,-1.45 -4.95,-2.44 -0.6,1.99 -2.55,2.44 -3.6,2.44 -1.36,0 -2.19,-0.91 -2.75,-1.84 -0.7,-1.19 -1.25,-3.27 -1.25,-3.49 0,-0.45 0.49,-0.45 0.6,-0.45 0.48,0 0.51,0.11 0.76,1.05 0.52,2.03 1.19,3.76 2.55,3.76 0.9,0 1.14,-0.76 1.14,-1.7 0,-0.39 -0.06,-0.84 -0.11,-1.05 z"
           id="path5693"
           inkscape:connector-curvature="0"
           style="fill:#000000;stroke-width:0" /></g>    </g>
    <g
       id="g6047"
       transform="matrix(0.25004723,0,0,0.25004723,370.3493,557.12072)">
      <g
         word-spacing="normal"
         letter-spacing="normal"
         font-size-adjust="none"
         font-stretch="normal"
         font-weight="normal"
         font-variant="normal"
         font-style="normal"
         stroke-miterlimit="10.433"
         xml:space="preserve"
         transform="matrix(1.0629921,0,0,-1.0629921,-186.02362,789.27165)"
         id="g6049"
         style="font-style:normal;font-variant:normal;font-weight:normal;font-stretch:normal;letter-spacing:normal;word-spacing:normal;text-anchor:start;fill:none;stroke:#000000;stroke-linecap:butt;stroke-linejoin:miter;stroke-miterlimit:10.43299961;stroke-opacity:1;stroke-dasharray:none;stroke-dashoffset:0"><path
           id="path6051"
           d="m 484.16,434.54 -0.01,0.35 -0.02,0.35 -0.04,0.33 -0.06,0.34 -0.06,0.33 -0.09,0.32 -0.1,0.32 -0.11,0.31 -0.13,0.3 -0.14,0.29 -0.15,0.29 -0.17,0.27 -0.18,0.27 -0.19,0.26 -0.2,0.25 -0.22,0.24 -0.23,0.22 -0.24,0.22 -0.25,0.2 -0.26,0.2 -0.28,0.17 -0.28,0.17 -0.29,0.15 -0.31,0.14 -0.31,0.12 -0.32,0.11 -0.34,0.09 -0.34,0.08 -0.35,0.06 -0.35,0.05 -0.37,0.02 -0.38,0.01 c -2.89,0 -4.28,-0.8 -6.03,-2.09 -2.73,-1.99 -5.48,-6.83 -6.42,-10.61 l -7.92,-31.64 c -0.06,-0.19 0.19,-0.5 0.59,-0.5 0.39,0 0.55,0.11 0.6,0.25 l 3.48,13.75 c 0.95,-2.99 3.14,-4.83 6.78,-4.83 l -0.15,1.09 c -3.78,0 -5.68,2.89 -5.68,6.44 0,0.48 0,1.23 0.25,2.19 l 3.19,12.61 c 1.1,4.28 4.69,12.2 10.66,12.2 2.89,0 4.64,-1.55 4.64,-4.53 h 0 c 0,-3.5 -1.89,-7.08 -4.49,-8.63 -1.34,0.5 -2.34,0.6 -3.84,0.6 -1.05,0 -3.83,0.04 -3.83,-1.6 -0.04,-1.39 2.53,-1.23 3.44,-1.23 l 0.14,1.09 c -0.69,0 -1.69,-0.06 -2.19,0.19 0.11,0.5 1.89,0.41 2.44,0.41 1.05,0 1.5,0 2.14,-0.25 h 0 c -0.64,-0.25 -1.19,-0.35 -2.39,-0.35 l -0.14,-1.09 c 1.84,0 2.59,0.05 4.08,0.64 1.89,-1.8 2.14,-3.34 2.2,-5.62 0.1,-2.9 -1.11,-6.63 -2.5,-8.58 -1.94,-2.69 -5.28,-4.49 -8.12,-4.49 l 0.15,-1.09 c 3.64,0 7.38,1.75 9.61,3.94 2.39,2.29 4,5.48 4,9.17 0,3.58 -1.84,6.17 -3.64,7.42 2.89,1.64 5.72,4.73 5.72,8.31 z"
           inkscape:connector-curvature="0"
           style="fill:#000000;stroke-width:0" /><path
           id="path6053"
           d="m 486.33,394.51 -0.02,-0.09 -0.02,-0.08 -0.02,-0.09 -0.03,-0.07 -0.02,-0.08 -0.02,-0.07 -0.02,-0.07 -0.02,-0.06 -0.03,-0.06 -0.02,-0.05 -0.03,-0.06 -0.03,-0.05 -0.03,-0.04 -0.03,-0.05 -0.04,-0.04 -0.04,-0.03 -0.04,-0.04 -0.05,-0.03 -0.05,-0.03 -0.06,-0.02 -0.06,-0.03 -0.06,-0.02 -0.07,-0.01 -0.07,-0.02 -0.09,-0.02 -0.04,0 -0.04,-0.01 -0.05,0 -0.04,-0.01 -0.05,0 -0.05,0 -0.05,-0.01 -0.06,0 -0.05,0 -0.06,0 -0.06,-0.01 -0.06,0 -0.06,0 -0.07,0 c -0.45,0 -0.93,0 -0.93,-0.73 0,-0.39 0.31,-0.53 0.48,-0.53 0.91,0 2.06,0.14 3,0.14 1.19,0 2.5,-0.14 3.66,-0.14 0.31,0 0.7,0.11 0.7,0.76 0,0.5 -0.5,0.5 -0.91,0.5 -0.78,0 -1.71,0 -1.71,0.41 0,0.19 0.25,1.09 0.39,1.61 0.42,1.84 0.9,3.73 1.28,5.18 0.42,-0.68 1.5,-2.04 3.59,-2.04 v 0.97 c -2.47,0 -3.09,2.68 -3.09,3.03 0,0.14 0.06,0.39 0.09,0.53 l 1.75,7 c 2.02,2.69 3.77,3.2 4.88,3.2 1.36,0 2.54,-1.01 2.54,-3.37 0,-1.44 -0.76,-4.99 -1.81,-7.02 -0.87,-1.7 -2.58,-3.37 -4.36,-3.37 v -0.97 c 4.25,0 8.95,4.7 8.95,9.89 0,4.08 -2.82,5.81 -5.21,5.81 -2.18,0 -4.02,-1.45 -4.96,-2.44 -0.59,1.99 -2.54,2.44 -3.59,2.44 -1.36,0 -2.19,-0.91 -2.75,-1.84 -0.7,-1.19 -1.25,-3.27 -1.25,-3.49 0,-0.45 0.48,-0.45 0.59,-0.45 0.49,0 0.52,0.11 0.77,1.05 0.51,2.03 1.19,3.76 2.55,3.76 0.9,0 1.14,-0.76 1.14,-1.7 0,-0.39 -0.07,-0.84 -0.11,-1.05 z"
           inkscape:connector-curvature="0"
           style="fill:#000000;stroke-width:0" /></g>    </g>
    <flowRoot
       xml:space="preserve"
       id="flowRoot6234"
       style="font-size:20px;font-style:normal;font-variant:normal;font-weight:normal;font-stretch:normal;line-height:125%;letter-spacing:0px;word-spacing:0px;fill:#000000;fill-opacity:1;stroke:none;font-family:Latin Modern Math;-inkscape-font-specification:Latin Modern Math"
       transform="translate(0,308.2677)"><flowRegion
         id="flowRegion6236"><rect
           id="rect6238"
           width="118.57143"
           height="107.14285"
           x="212.85715"
           y="43.380199" /></flowRegion><flowPara
         id="flowPara6240"></flowPara></flowRoot>    <flowRoot
       xml:space="preserve"
       id="flowRoot6242"
       style="font-size:20px;font-style:normal;font-variant:normal;font-weight:normal;font-stretch:normal;line-height:125%;letter-spacing:0px;word-spacing:0px;fill:#000000;fill-opacity:1;stroke:none;font-family:Latin Modern Math;-inkscape-font-specification:Latin Modern Math"
       transform="matrix(0.73108219,0,0,0.73108219,-2.57181,310.32666)"><flowRegion
         id="flowRegion6244"><rect
           id="rect6246"
           width="146.07143"
           height="50.357143"
           x="561.07141"
           y="425.52304" /></flowRegion><flowPara
         id="flowPara6248">Parameters</flowPara></flowRoot>    <rect
       style="fill:#ffffff;fill-opacity:1;stroke:#000000;stroke-width:0;stroke-linecap:butt;stroke-linejoin:round;stroke-miterlimit:4;stroke-opacity:1;stroke-dasharray:none;stroke-dashoffset:0"
       id="rect6250"
       width="110.86716"
       height="13.537035"
       x="312.05072"
       y="544.91296" />
    <flowRoot
       transform="matrix(0.62255923,0,0,0.62255923,7.83236,373.69203)"
       style="font-size:20px;font-style:normal;font-variant:normal;font-weight:normal;font-stretch:normal;line-height:125%;letter-spacing:0px;word-spacing:0px;fill:#000000;fill-opacity:1;stroke:none;font-family:Latin Modern Math;-inkscape-font-specification:Latin Modern Math"
       id="flowRoot6252"
       xml:space="preserve"><flowRegion
         id="flowRegion6254"><rect
           y="271.84818"
           x="468.71078"
           height="33.732765"
           width="327.73654"
           id="rect6256" /></flowRegion><flowPara
         style="font-style:normal;font-variant:normal;font-weight:normal;font-stretch:normal;font-family:Latin Modern Mono;-inkscape-font-specification:Latin Modern Mono"
         id="flowPara6258"> reducedSolverKernel</flowPara></flowRoot>  </g>
</svg>
