<?xml version="1.0" encoding="UTF-8" standalone="no"?>
<!-- Created with Inkscape (http://www.inkscape.org/) -->

<svg
   xmlns:dc="http://purl.org/dc/elements/1.1/"
   xmlns:cc="http://creativecommons.org/ns#"
   xmlns:rdf="http://www.w3.org/1999/02/22-rdf-syntax-ns#"
   xmlns:svg="http://www.w3.org/2000/svg"
   xmlns="http://www.w3.org/2000/svg"
   xmlns:sodipodi="http://sodipodi.sourceforge.net/DTD/sodipodi-0.dtd"
   xmlns:inkscape="http://www.inkscape.org/namespaces/inkscape"
   width="1052.3622"
   height="744.09448"
   id="svg6326"
   version="1.1"
   inkscape:version="0.48.4 r9939"
   sodipodi:docname="constructing-reduced-system.eps">
  <sodipodi:namedview
     id="base"
     pagecolor="#ffffff"
     bordercolor="#666666"
     borderopacity="1.0"
     inkscape:pageopacity="0.0"
     inkscape:pageshadow="2"
     inkscape:zoom="0.49497475"
     inkscape:cx="456.84427"
     inkscape:cy="367.15196"
     inkscape:document-units="px"
     inkscape:current-layer="layer1"
     showgrid="false"
     inkscape:window-width="1366"
     inkscape:window-height="713"
     inkscape:window-x="0"
     inkscape:window-y="30"
     inkscape:window-maximized="1">
    <inkscape:grid
       type="xygrid"
       id="grid7689"
       empspacing="5"
       visible="true"
       enabled="true"
       snapvisiblegridlinesonly="true" />
  </sodipodi:namedview>
  <defs
     id="defs6328">
    <inkscape:path-effect
       effect="construct_grid"
       id="path-effect8720"
       is_visible="true"
       nr_x="6"
       nr_y="8" />
    <inkscape:path-effect
       effect="construct_grid"
       id="path-effect8716"
       is_visible="true"
       nr_x="8"
       nr_y="8" />
    <inkscape:path-effect
       effect="construct_grid"
       id="path-effect8712"
       is_visible="true"
       nr_x="6"
       nr_y="8" />
    <inkscape:path-effect
       nr_y="8"
       nr_x="8"
       is_visible="true"
       id="path-effect7775"
       effect="construct_grid" />
    <inkscape:path-effect
       nr_y="8"
       nr_x="8"
       is_visible="true"
       id="path-effect7773"
       effect="construct_grid" />
    <inkscape:path-effect
       nr_y="8"
       nr_x="8"
       is_visible="true"
       id="path-effect7771"
       effect="construct_grid" />
    <inkscape:path-effect
       effect="construct_grid"
       id="path-effect7682"
       is_visible="true"
       nr_x="8"
       nr_y="8" />
    <inkscape:path-effect
       effect="construct_grid"
       id="path-effect7677"
       is_visible="true"
       nr_x="8"
       nr_y="8" />
    <inkscape:path-effect
       effect="construct_grid"
       id="path-effect7674"
       is_visible="true"
       nr_x="8"
       nr_y="8" />
    <inkscape:path-effect
       nr_y="8"
       nr_x="8"
       is_visible="true"
       id="path-effect7537"
       effect="construct_grid" />
    <inkscape:path-effect
       nr_y="8"
       nr_x="8"
       is_visible="true"
       id="path-effect7534"
       effect="construct_grid" />
    <inkscape:path-effect
       nr_y="8"
       nr_x="8"
       is_visible="true"
       id="path-effect7531"
       effect="construct_grid" />
    <inkscape:path-effect
       nr_y="8"
       nr_x="8"
       is_visible="true"
       id="path-effect7528"
       effect="construct_grid" />
    <inkscape:path-effect
       nr_y="8"
       nr_x="8"
       is_visible="true"
       id="path-effect7525"
       effect="construct_grid" />
    <inkscape:path-effect
       nr_y="8"
       nr_x="8"
       is_visible="true"
       id="path-effect7522"
       effect="construct_grid" />
    <inkscape:path-effect
       nr_y="8"
       nr_x="8"
       is_visible="true"
       id="path-effect7519"
       effect="construct_grid" />
    <inkscape:path-effect
       nr_y="8"
       nr_x="8"
       is_visible="true"
       id="path-effect7516"
       effect="construct_grid" />
    <inkscape:path-effect
       nr_y="8"
       nr_x="8"
       is_visible="true"
       id="path-effect7513"
       effect="construct_grid" />
    <inkscape:path-effect
       nr_y="8"
       nr_x="8"
       is_visible="true"
       id="path-effect7510"
       effect="construct_grid" />
    <inkscape:path-effect
       nr_y="8"
       nr_x="8"
       is_visible="true"
       id="path-effect7507"
       effect="construct_grid" />
    <inkscape:path-effect
       nr_y="8"
       nr_x="8"
       is_visible="true"
       id="path-effect7504"
       effect="construct_grid" />
    <inkscape:path-effect
       nr_y="8"
       nr_x="8"
       is_visible="true"
       id="path-effect7501"
       effect="construct_grid" />
    <inkscape:path-effect
       nr_y="8"
       nr_x="8"
       is_visible="true"
       id="path-effect7498"
       effect="construct_grid" />
    <inkscape:path-effect
       nr_y="8"
       nr_x="8"
       is_visible="true"
       id="path-effect7495"
       effect="construct_grid" />
    <inkscape:path-effect
       nr_y="8"
       nr_x="8"
       is_visible="true"
       id="path-effect7492"
       effect="construct_grid" />
    <inkscape:path-effect
       nr_y="8"
       nr_x="8"
       is_visible="true"
       id="path-effect7489"
       effect="construct_grid" />
    <inkscape:path-effect
       nr_y="8"
       nr_x="8"
       is_visible="true"
       id="path-effect7486"
       effect="construct_grid" />
    <inkscape:path-effect
       nr_y="8"
       nr_x="8"
       is_visible="true"
       id="path-effect7483"
       effect="construct_grid" />
    <inkscape:path-effect
       nr_y="8"
       nr_x="8"
       is_visible="true"
       id="path-effect7480"
       effect="construct_grid" />
    <inkscape:path-effect
       nr_y="8"
       nr_x="8"
       is_visible="true"
       id="path-effect7477"
       effect="construct_grid" />
    <inkscape:path-effect
       nr_y="8"
       nr_x="8"
       is_visible="true"
       id="path-effect7228"
       effect="construct_grid" />
    <inkscape:path-effect
       nr_y="8"
       nr_x="8"
       is_visible="true"
       id="path-effect7225"
       effect="construct_grid" />
    <inkscape:path-effect
       nr_y="8"
       nr_x="8"
       is_visible="true"
       id="path-effect7222"
       effect="construct_grid" />
    <inkscape:path-effect
       effect="construct_grid"
       id="path-effect3046"
       is_visible="true"
       nr_x="8"
       nr_y="8" />
    <inkscape:path-effect
       effect="construct_grid"
       id="path-effect3042"
       is_visible="true"
       nr_x="8"
       nr_y="8" />
    <inkscape:path-effect
       effect="construct_grid"
       id="path-effect3038"
       is_visible="true"
       nr_x="8"
       nr_y="8" />
    <inkscape:path-effect
       effect="construct_grid"
       id="path-effect3046-2"
       is_visible="true"
       nr_x="8"
       nr_y="8" />
    <inkscape:path-effect
       effect="construct_grid"
       id="path-effect3042-3"
       is_visible="true"
       nr_x="8"
       nr_y="8" />
    <inkscape:path-effect
       effect="construct_grid"
       id="path-effect3038-0"
       is_visible="true"
       nr_x="8"
       nr_y="8" />
  </defs>
  <metadata
     id="metadata6331">
    <rdf:RDF>
      <cc:Work
         rdf:about="">
        <dc:format>image/svg+xml</dc:format>
        <dc:type
           rdf:resource="http://purl.org/dc/dcmitype/StillImage" />
        <dc:title></dc:title>
      </cc:Work>
    </rdf:RDF>
  </metadata>
  <g
     inkscape:label="Layer 1"
     inkscape:groupmode="layer"
     id="layer1"
     transform="translate(0,-308.2677)">
    <path
       style="fill:none;stroke:#000000;stroke-width:2;stroke-linecap:butt;stroke-linejoin:miter;stroke-miterlimit:4;stroke-opacity:1;stroke-dasharray:none"
       d="m 62.16158,856.19426 0,-160 m 20,160 0,-160 m 20,160 0,-160 m 20,160 0,-160 m 20,160 0,-160 m 20,160 0,-160 m 20,160 0,-160 m 20,160 0,-160 m 20,160 0,-160 m -160,160 160,0 m -160,-20 160,0 m -160,-20 160,0 m -160,-20 160,0 m -160,-20 160,0 m -160,-20 160,0 m -160,-20 160,0 m -160,-20 160,0 m -160,-20 160,0"
       id="path3036"
       inkscape:connector-curvature="0"
       inkscape:path-effect="#path-effect3038-0"
       inkscape:original-d="m 62.16158,836.19426 0,20 20,0 0,-20 -20,0" />
    <path
       style="fill:none;stroke:#000000;stroke-width:2;stroke-linecap:butt;stroke-linejoin:miter;stroke-miterlimit:4;stroke-opacity:1;stroke-dasharray:none"
       d="m 262.13227,656.1542 -40,40 m 40,-20 -40,40 m 40,-20 -40,40 m 40,-20 -40,40 m 40,-20 -40,40 m 40,-20 -40,40 m 40,-20 -40,40 m 40,-20 -40,40 m 40,-20 -40,40 m 40,-200 0,160 m -5,-155 0,160 m -5,-155 0,160 m -5,-155 0,160 m -5,-155 0,160 m -5,-155 0,160 m -5,-155 0,160 m -5,-155 0,160 m -5,-155 0,160"
       id="path3040"
       inkscape:connector-curvature="0"
       inkscape:path-effect="#path-effect3042-3"
       inkscape:original-d="m 257.13227,661.1542 5,-5 0,20 -5,5" />
    <path
       style="fill:none;stroke:#000000;stroke-width:2;stroke-linecap:butt;stroke-linejoin:miter;stroke-miterlimit:4;stroke-opacity:1;stroke-dasharray:none"
       d="m 102.24473,656.18292 160,0 m -165,5 160,0 m -165,5 160,0 m -165,5 160,0 m -165,5 160,0 m -165,5 160,0 m -165,5 160,0 m -165,5 160,0 m -165,5 160,0 m -120,-40 -40,40 m 60,-40 -40,40 m 60,-40 -40,40 m 60,-40 -40,40 m 60,-40 -40,40 m 60,-40 -40,40 m 60,-40 -40,40 m 60,-40 -40,40 m 60,-40 -40,40"
       id="path3044"
       inkscape:connector-curvature="0"
       inkscape:path-effect="#path-effect3046-2"
       inkscape:original-d="m 122.24473,656.18292 -20,0 -5,5 20,0 z" />
    <path
       style="opacity:0.5;fill:#000080;stroke:#000000;stroke-width:0.97814232px;stroke-linecap:butt;stroke-linejoin:miter;stroke-opacity:1"
       d="m 203.63444,695.58412 19.17363,0 0,159.67959 -19.17363,0 0,-159.67959"
       id="path7726"
       inkscape:connector-curvature="0" />
    <path
       style="opacity:0.5;fill:#000080;stroke:#000000;stroke-width:1px;stroke-linecap:butt;stroke-linejoin:miter;stroke-opacity:1"
       d="m 262.79715,655.82766 -40,40 0,160 40,-40 0,-160"
       id="path7730"
       inkscape:connector-curvature="0" />
    <path
       style="opacity:0.5;fill:#000080;stroke:#000000;stroke-width:1px;stroke-linecap:butt;stroke-linejoin:miter;stroke-opacity:1"
       d="m 263,655.36218 -20,0 -40,40 20,0 z"
       id="path7750"
       inkscape:connector-curvature="0" />
    <g
       id="g7829"
       transform="translate(6,260)">
      <path
         style="fill:none;stroke:#000000;stroke-width:2;stroke-linecap:butt;stroke-linejoin:miter;stroke-miterlimit:4;stroke-opacity:1;stroke-dasharray:none"
         d="m 296.29262,596.2019 -2.4e-4,-160 m 20.00024,160.00002 -2.4e-4,-160 m 20.00024,160.00002 -2.4e-4,-160 m 20.00024,160.00002 -2.4e-4,-160 m 20.00024,160.00002 -2.4e-4,-160 m 20.00024,160.00002 -2.4e-4,-160 m 20.00024,160.00002 -2.4e-4,-160 m 20.00024,160.00002 -2.4e-4,-160 m 20.00024,160.00002 -2.4e-4,-160 m -159.99976,159.99984 160,1.6e-4 m -160.00003,-20.00016 160,1.6e-4 m -160.00003,-20.00016 160,1.6e-4 m -160.00003,-20.00016 160,1.6e-4 M 296.2925,516.2019 l 160,1.6e-4 m -160.00003,-20.00016 160,1.6e-4 m -160.00003,-20.00016 160,1.6e-4 m -160.00003,-20.00016 160,1.6e-4 m -160.00003,-20.00016 160,1.6e-4"
         id="path7757"
         inkscape:connector-curvature="0"
         inkscape:path-effect="#path-effect7771"
         inkscape:original-d="m 296.29259,576.2019 3e-5,20 20,2e-5 0,-20.00003 -20.00003,10e-6" />
      <path
         style="fill:none;stroke:#000000;stroke-width:2;stroke-linecap:butt;stroke-linejoin:miter;stroke-miterlimit:4;stroke-opacity:1;stroke-dasharray:none"
         d="m 496.26328,396.16185 -39.99992,40.00008 m 39.99991,-20.00008 -39.99992,40.00008 m 39.99991,-20.00008 -39.99992,40.00008 m 39.99991,-20.00008 -39.99992,40.00008 m 39.99991,-20.00008 -39.99992,40.00008 m 39.99991,-20.00008 -39.99992,40.00008 m 39.99991,-20.00008 -39.99992,40.00008 m 39.99991,-20.00008 -39.99992,40.00008 m 39.99991,-20.00008 -39.99992,40.00008 m 40,-200.00008 -8e-5,160 m -4.99991,-154.99999 -8e-5,160 m -4.99991,-154.99999 -8e-5,160 m -4.99991,-154.99999 -8e-5,160 m -4.99991,-154.99999 -8e-5,160 m -4.99991,-154.99999 -8e-5,160 m -4.99991,-154.99999 -8e-5,160 m -4.99991,-154.99999 -8e-5,160 m -4.99991,-154.99999 -8e-5,160"
         id="path7759"
         inkscape:connector-curvature="0"
         inkscape:path-effect="#path-effect7773"
         inkscape:original-d="m 491.26329,401.16186 4.99999,-5.00001 -1e-5,20 -4.99996,5" />
      <path
         style="fill:none;stroke:#000000;stroke-width:2;stroke-linecap:butt;stroke-linejoin:miter;stroke-miterlimit:4;stroke-opacity:1;stroke-dasharray:none"
         d="m 336.37576,396.19056 159.99992,2.4e-4 m -164.99992,4.99978 159.99992,2.4e-4 m -164.99992,4.99978 159.99992,2.4e-4 m -164.99992,4.99978 159.99992,2.4e-4 m -164.99992,4.99978 159.99992,2.4e-4 m -164.99992,4.99978 159.99992,2.4e-4 m -164.99992,4.99978 159.99992,2.4e-4 m -164.99992,4.99978 159.99992,2.4e-4 m -164.99992,4.99978 159.99992,2.4e-4 m -119.99992,-40.0004 -40,40.00016 m 59.99999,-40.00013 -40,40.00016 m 59.99999,-40.00013 -40,40.00016 m 59.99999,-40.00013 -40,40.00016 m 59.99999,-40.00013 -40,40.00016 m 59.99999,-40.00013 -40,40.00016 m 59.99999,-40.00013 -40,40.00016 m 59.99999,-40.00013 -40,40.00016 m 59.99999,-40.00013 -40,40.00016"
         id="path7761"
         inkscape:connector-curvature="0"
         inkscape:path-effect="#path-effect7775"
         inkscape:original-d="m 356.37575,396.19059 -19.99999,-3e-5 -5,5.00002 20,-4e-5 z" />
    </g>
    <g
       id="g7780"
       transform="translate(-314,260)">
      <path
         style="opacity:0.5;fill:#000080;stroke:#000000;stroke-width:0.97814232px;stroke-linecap:butt;stroke-linejoin:miter;stroke-opacity:1"
         d="m 617.76534,437.59162 19.17363,0 0,159.67959 -19.17363,0 0,-159.67959"
         id="path7765"
         inkscape:connector-curvature="0" />
      <path
         style="opacity:0.5;fill:#000080;stroke:#000000;stroke-width:1px;stroke-linecap:butt;stroke-linejoin:miter;stroke-opacity:1"
         d="m 677.1309,397.36968 -20,0 -40,40 20,0 z"
         id="path7769"
         inkscape:connector-curvature="0" />
    </g>
    <g
       id="g7834"
       transform="translate(486,260)">
      <path
         inkscape:original-d="m 296.29259,576.2019 3e-5,20 20,2e-5 0,-20.00003 -20.00003,10e-6"
         inkscape:path-effect="#path-effect7771"
         inkscape:connector-curvature="0"
         id="path7836"
         d="m 296.29262,596.2019 -2.4e-4,-160 m 20.00024,160.00002 -2.4e-4,-160 m 20.00024,160.00002 -2.4e-4,-160 m 20.00024,160.00002 -2.4e-4,-160 m 20.00024,160.00002 -2.4e-4,-160 m 20.00024,160.00002 -2.4e-4,-160 m 20.00024,160.00002 -2.4e-4,-160 m 20.00024,160.00002 -2.4e-4,-160 m 20.00024,160.00002 -2.4e-4,-160 m -159.99976,159.99984 160,1.6e-4 m -160.00003,-20.00016 160,1.6e-4 m -160.00003,-20.00016 160,1.6e-4 m -160.00003,-20.00016 160,1.6e-4 M 296.2925,516.2019 l 160,1.6e-4 m -160.00003,-20.00016 160,1.6e-4 m -160.00003,-20.00016 160,1.6e-4 m -160.00003,-20.00016 160,1.6e-4 m -160.00003,-20.00016 160,1.6e-4"
         style="fill:none;stroke:#000000;stroke-width:2;stroke-linecap:butt;stroke-linejoin:miter;stroke-miterlimit:4;stroke-opacity:1;stroke-dasharray:none" />
      <path
         inkscape:original-d="m 491.26329,401.16186 4.99999,-5.00001 -1e-5,20 -4.99996,5"
         inkscape:path-effect="#path-effect7773"
         inkscape:connector-curvature="0"
         id="path7838"
         d="m 496.26328,396.16185 -39.99992,40.00008 m 39.99991,-20.00008 -39.99992,40.00008 m 39.99991,-20.00008 -39.99992,40.00008 m 39.99991,-20.00008 -39.99992,40.00008 m 39.99991,-20.00008 -39.99992,40.00008 m 39.99991,-20.00008 -39.99992,40.00008 m 39.99991,-20.00008 -39.99992,40.00008 m 39.99991,-20.00008 -39.99992,40.00008 m 39.99991,-20.00008 -39.99992,40.00008 m 40,-200.00008 -8e-5,160 m -4.99991,-154.99999 -8e-5,160 m -4.99991,-154.99999 -8e-5,160 m -4.99991,-154.99999 -8e-5,160 m -4.99991,-154.99999 -8e-5,160 m -4.99991,-154.99999 -8e-5,160 m -4.99991,-154.99999 -8e-5,160 m -4.99991,-154.99999 -8e-5,160 m -4.99991,-154.99999 -8e-5,160"
         style="fill:none;stroke:#000000;stroke-width:2;stroke-linecap:butt;stroke-linejoin:miter;stroke-miterlimit:4;stroke-opacity:1;stroke-dasharray:none" />
      <path
         inkscape:original-d="m 356.37575,396.19059 -19.99999,-3e-5 -5,5.00002 20,-4e-5 z"
         inkscape:path-effect="#path-effect7775"
         inkscape:connector-curvature="0"
         id="path7840"
         d="m 336.37576,396.19056 159.99992,2.4e-4 m -164.99992,4.99978 159.99992,2.4e-4 m -164.99992,4.99978 159.99992,2.4e-4 m -164.99992,4.99978 159.99992,2.4e-4 m -164.99992,4.99978 159.99992,2.4e-4 m -164.99992,4.99978 159.99992,2.4e-4 m -164.99992,4.99978 159.99992,2.4e-4 m -164.99992,4.99978 159.99992,2.4e-4 m -164.99992,4.99978 159.99992,2.4e-4 m -119.99992,-40.0004 -40,40.00016 m 59.99999,-40.00013 -40,40.00016 m 59.99999,-40.00013 -40,40.00016 m 59.99999,-40.00013 -40,40.00016 m 59.99999,-40.00013 -40,40.00016 m 59.99999,-40.00013 -40,40.00016 m 59.99999,-40.00013 -40,40.00016 m 59.99999,-40.00013 -40,40.00016 m 59.99999,-40.00013 -40,40.00016"
         style="fill:none;stroke:#000000;stroke-width:2;stroke-linecap:butt;stroke-linejoin:miter;stroke-miterlimit:4;stroke-opacity:1;stroke-dasharray:none" />
    </g>
    <g
       transform="translate(166,260)"
       id="g7842">
      <path
         inkscape:connector-curvature="0"
         id="path7844"
         d="m 617.76534,437.59162 19.17363,0 0,159.67959 -19.17363,0 0,-159.67959"
         style="opacity:0.5;fill:#000080;stroke:#000000;stroke-width:0.97814232px;stroke-linecap:butt;stroke-linejoin:miter;stroke-opacity:1" />
      <path
         inkscape:connector-curvature="0"
         id="path7846"
         d="m 677.1309,397.36968 -20,0 -40,40 20,0 z"
         style="opacity:0.5;fill:#000080;stroke:#000000;stroke-width:1px;stroke-linecap:butt;stroke-linejoin:miter;stroke-opacity:1" />
    </g>
    <g
       transform="translate(246,260)"
       id="g7848">
      <path
         inkscape:original-d="m 296.29259,576.2019 3e-5,20 20,2e-5 0,-20.00003 -20.00003,10e-6"
         inkscape:path-effect="#path-effect7771"
         inkscape:connector-curvature="0"
         id="path7850"
         d="m 296.29262,596.2019 -2.4e-4,-160 m 20.00024,160.00002 -2.4e-4,-160 m 20.00024,160.00002 -2.4e-4,-160 m 20.00024,160.00002 -2.4e-4,-160 m 20.00024,160.00002 -2.4e-4,-160 m 20.00024,160.00002 -2.4e-4,-160 m 20.00024,160.00002 -2.4e-4,-160 m 20.00024,160.00002 -2.4e-4,-160 m 20.00024,160.00002 -2.4e-4,-160 m -159.99976,159.99984 160,1.6e-4 m -160.00003,-20.00016 160,1.6e-4 m -160.00003,-20.00016 160,1.6e-4 m -160.00003,-20.00016 160,1.6e-4 M 296.2925,516.2019 l 160,1.6e-4 m -160.00003,-20.00016 160,1.6e-4 m -160.00003,-20.00016 160,1.6e-4 m -160.00003,-20.00016 160,1.6e-4 m -160.00003,-20.00016 160,1.6e-4"
         style="fill:none;stroke:#000000;stroke-width:2;stroke-linecap:butt;stroke-linejoin:miter;stroke-miterlimit:4;stroke-opacity:1;stroke-dasharray:none" />
      <path
         inkscape:original-d="m 491.26329,401.16186 4.99999,-5.00001 -1e-5,20 -4.99996,5"
         inkscape:path-effect="#path-effect7773"
         inkscape:connector-curvature="0"
         id="path7852"
         d="m 496.26328,396.16185 -39.99992,40.00008 m 39.99991,-20.00008 -39.99992,40.00008 m 39.99991,-20.00008 -39.99992,40.00008 m 39.99991,-20.00008 -39.99992,40.00008 m 39.99991,-20.00008 -39.99992,40.00008 m 39.99991,-20.00008 -39.99992,40.00008 m 39.99991,-20.00008 -39.99992,40.00008 m 39.99991,-20.00008 -39.99992,40.00008 m 39.99991,-20.00008 -39.99992,40.00008 m 40,-200.00008 -8e-5,160 m -4.99991,-154.99999 -8e-5,160 m -4.99991,-154.99999 -8e-5,160 m -4.99991,-154.99999 -8e-5,160 m -4.99991,-154.99999 -8e-5,160 m -4.99991,-154.99999 -8e-5,160 m -4.99991,-154.99999 -8e-5,160 m -4.99991,-154.99999 -8e-5,160 m -4.99991,-154.99999 -8e-5,160"
         style="fill:none;stroke:#000000;stroke-width:2;stroke-linecap:butt;stroke-linejoin:miter;stroke-miterlimit:4;stroke-opacity:1;stroke-dasharray:none" />
      <path
         inkscape:original-d="m 356.37575,396.19059 -19.99999,-3e-5 -5,5.00002 20,-4e-5 z"
         inkscape:path-effect="#path-effect7775"
         inkscape:connector-curvature="0"
         id="path7854"
         d="m 336.37576,396.19056 159.99992,2.4e-4 m -164.99992,4.99978 159.99992,2.4e-4 m -164.99992,4.99978 159.99992,2.4e-4 m -164.99992,4.99978 159.99992,2.4e-4 m -164.99992,4.99978 159.99992,2.4e-4 m -164.99992,4.99978 159.99992,2.4e-4 m -164.99992,4.99978 159.99992,2.4e-4 m -164.99992,4.99978 159.99992,2.4e-4 m -164.99992,4.99978 159.99992,2.4e-4 m -119.99992,-40.0004 -40,40.00016 m 59.99999,-40.00013 -40,40.00016 m 59.99999,-40.00013 -40,40.00016 m 59.99999,-40.00013 -40,40.00016 m 59.99999,-40.00013 -40,40.00016 m 59.99999,-40.00013 -40,40.00016 m 59.99999,-40.00013 -40,40.00016 m 59.99999,-40.00013 -40,40.00016 m 59.99999,-40.00013 -40,40.00016"
         style="fill:none;stroke:#000000;stroke-width:2;stroke-linecap:butt;stroke-linejoin:miter;stroke-miterlimit:4;stroke-opacity:1;stroke-dasharray:none" />
    </g>
    <g
       transform="translate(-74,260)"
       id="g7856">
      <path
         inkscape:connector-curvature="0"
         id="path7858"
         d="m 617.76534,437.59162 19.17363,0 0,159.67959 -19.17363,0 0,-159.67959"
         style="opacity:0.5;fill:#000080;stroke:#000000;stroke-width:0.97814232px;stroke-linecap:butt;stroke-linejoin:miter;stroke-opacity:1" />
      <path
         inkscape:connector-curvature="0"
         id="path7860"
         d="m 677.1309,397.36968 -20,0 -40,40 20,0 z"
         style="opacity:0.5;fill:#000080;stroke:#000000;stroke-width:1px;stroke-linecap:butt;stroke-linejoin:miter;stroke-opacity:1" />
    </g>
    <g
       transform="translate(486,260)"
       id="g7862">
      <g
         transform="translate(-228,-2)"
         id="g7864">
        <path
           style="opacity:0.5;fill:#000080;stroke:#000000;stroke-width:0.97814232px;stroke-linecap:butt;stroke-linejoin:miter;stroke-opacity:1"
           d="m 425.63444,437.58412 19.17363,0 0,159.67959 -19.17363,0 0,-159.67959"
           id="path7866"
           inkscape:connector-curvature="0" />
        <path
           style="opacity:0.5;fill:#000080;stroke:#000000;stroke-width:1px;stroke-linecap:butt;stroke-linejoin:miter;stroke-opacity:1"
           d="m 484.79715,397.82766 -40,40 0,160 40,-40 0,-160"
           id="path7868"
           inkscape:connector-curvature="0" />
        <path
           style="opacity:0.5;fill:#000080;stroke:#000000;stroke-width:1px;stroke-linecap:butt;stroke-linejoin:miter;stroke-opacity:1"
           d="m 485,397.36218 -20,0 -40,40 20,0 z"
           id="path7870"
           inkscape:connector-curvature="0" />
      </g>
    </g>
    <g
       id="g7953"
       transform="translate(-214,554)">
      <g
         id="content"
         transform="matrix(1.0629921,0,0,-1.0629921,-186.02362,789.27165)"
         xml:space="preserve"
         stroke-miterlimit="10.433"
         font-style="normal"
         font-variant="normal"
         font-weight="normal"
         font-stretch="normal"
         font-size-adjust="none"
         letter-spacing="normal"
         word-spacing="normal"
         style="font-style:normal;font-variant:normal;font-weight:normal;font-stretch:normal;letter-spacing:normal;word-spacing:normal;text-anchor:start;fill:none;stroke:#000000;stroke-linecap:butt;stroke-linejoin:miter;stroke-miterlimit:10.43299961;stroke-opacity:1;stroke-dasharray:none;stroke-dashoffset:0"><path
           d="m 457.75,400.12 -0.03,-0.15 -0.04,-0.15 -0.03,-0.14 -0.03,-0.13 -0.04,-0.13 -0.03,-0.11 -0.04,-0.12 -0.03,-0.1 -0.04,-0.1 -0.04,-0.09 -0.04,-0.09 -0.05,-0.08 -0.05,-0.07 -0.05,-0.07 -0.06,-0.07 -0.06,-0.06 -0.07,-0.05 -0.07,-0.05 -0.08,-0.04 -0.09,-0.04 -0.09,-0.04 -0.1,-0.03 -0.11,-0.03 -0.12,-0.02 -0.13,-0.02 -0.06,-0.01 -0.07,-0.01 -0.07,-0.01 -0.08,-0.01 -0.07,0 -0.08,-0.01 -0.08,0 -0.09,-0.01 -0.08,0 -0.09,0 -0.1,0 -0.09,0 -0.1,-0.01 -0.1,0 c -0.6,0 -1.14,0 -1.14,-0.93 0,-0.41 0.25,-0.61 0.64,-0.61 1.36,0 2.79,0.15 4.18,0.15 1.64,0 3.35,-0.15 4.94,-0.15 0.25,0 0.89,0 0.89,1 0,0.54 -0.5,0.54 -1.19,0.54 -2.5,0 -2.5,0.36 -2.5,0.8 0,0.61 2.1,8.72 2.46,9.97 0.64,-1.44 2.03,-3.19 4.58,-3.19 l -0.05,1.1 c -3.3,0 -3.94,4.14 -3.94,4.43 0,0.1 0,0.21 0.14,0.8 l 2.46,9.77 c 0.34,1.34 1.68,2.73 2.57,3.48 1.75,1.55 3.21,1.89 4.05,1.89 1.98,0 3.19,-1.73 3.19,-4.69 0,-2.93 -1.64,-8.65 -2.55,-10.56 -1.69,-3.48 -4.08,-5.12 -5.92,-5.12 l 0.05,-1.1 c 5.78,0 12,7.27 12,14.6 0,4.68 -2.83,7.96 -6.63,7.96 -2.48,0 -4.87,-1.78 -6.51,-3.73 -0.5,2.69 -2.65,3.73 -4.49,3.73 -2.3,0 -3.25,-1.93 -3.69,-2.82 -0.9,-1.71 -1.54,-4.69 -1.54,-4.85 0,-0.5 0.5,-0.5 0.59,-0.5 0.5,0 0.55,0.07 0.84,1.16 0.86,3.53 1.85,5.92 3.64,5.92 0.85,0 1.55,-0.39 1.55,-2.28 0,-1.16 -0.15,-1.7 -0.34,-2.55 z"
           id="path7956"
           inkscape:connector-curvature="0"
           style="fill:#000000;stroke-width:0" /><path
           d="m 528.75,422.5 0.14,0 0.15,0 0.14,0 0.07,0.01 0.08,0 0.07,0.01 0.07,0.01 0.07,0.01 0.07,0.01 0.07,0.01 0.06,0.02 0.07,0.02 0.06,0.02 0.06,0.02 0.06,0.03 0.06,0.03 0.05,0.04 0.05,0.03 0.05,0.05 0.04,0.04 0.04,0.05 0.02,0.03 0.02,0.03 0.01,0.02 0.02,0.03 0.01,0.03 0.02,0.04 0.01,0.03 0.01,0.04 0.01,0.03 0.01,0.04 0,0.04 0.01,0.04 0,0.04 0.01,0.04 0,0.04 0,0.05 c 0,1 -0.95,1 -1.64,1 h -29.84 c -0.71,0 -1.64,0 -1.64,-1 0,-0.98 0.93,-0.98 1.68,-0.98 z"
           id="path7958"
           inkscape:connector-curvature="0"
           style="fill:#000000;stroke-width:0" /><path
           d="m 528.8,412.82 0.07,0 0.06,0 0.14,0.01 0.14,0 0.07,0 0.07,0.01 0.07,0.01 0.07,0 0.06,0.01 0.07,0.02 0.07,0.01 0.06,0.02 0.07,0.02 0.06,0.02 0.06,0.02 0.06,0.03 0.05,0.03 0.05,0.04 0.05,0.04 0.05,0.04 0.04,0.05 0.02,0.02 0.02,0.03 0.02,0.02 0.02,0.03 0.01,0.03 0.02,0.03 0.01,0.03 0.02,0.03 0.01,0.04 0.01,0.03 0.01,0.04 0.01,0.04 0,0.04 0.01,0.04 0,0.04 0.01,0.04 0,0.05 0,0.04 c 0,1 -0.95,1 -1.69,1 H 499 c -0.75,0 -1.68,0 -1.68,-1 0,-1 0.93,-1 1.64,-1 z"
           id="path7960"
           inkscape:connector-curvature="0"
           style="fill:#000000;stroke-width:0" /><path
           d="m 570,422.14 -0.01,0.74 -0.01,0.75 -0.02,0.75 -0.03,0.74 -0.05,0.75 -0.06,0.74 -0.07,0.74 -0.1,0.73 -0.11,0.73 -0.14,0.73 -0.16,0.72 -0.19,0.72 -0.22,0.72 -0.25,0.7 -0.27,0.7 -0.15,0.35 -0.16,0.34 c -2.28,4.8 -6.38,5.6 -8.47,5.6 -2.99,0 -6.63,-1.3 -8.68,-5.94 -1.59,-3.44 -1.84,-7.33 -1.84,-11.31 0,-3.74 0.21,-8.22 2.25,-12 2.14,-4.03 5.78,-5.03 8.22,-5.03 v 1.09 c -1.94,0 -4.89,1.25 -5.78,6.03 -0.55,2.98 -0.55,7.56 -0.55,10.52 0,3.18 0,6.46 0.41,9.15 0.94,5.94 4.67,6.38 5.92,6.38 1.64,0 4.94,-0.89 5.87,-5.83 0.5,-2.78 0.5,-6.58 0.5,-9.7 0,-3.75 0,-7.13 -0.54,-10.32 -0.75,-4.73 -3.59,-6.23 -5.83,-6.23 h 0 v -1.09 c 2.69,0 6.47,1.04 8.67,5.78 1.6,3.43 1.85,7.31 1.85,11.25 z"
           id="path7962"
           inkscape:connector-curvature="0"
           style="fill:#000000;stroke-width:0" /></g>    </g>
    <g
       id="g8136"
       transform="translate(30,554)">
      <g
         word-spacing="normal"
         letter-spacing="normal"
         font-size-adjust="none"
         font-stretch="normal"
         font-weight="normal"
         font-variant="normal"
         font-style="normal"
         stroke-miterlimit="10.433"
         xml:space="preserve"
         transform="matrix(1.0629921,0,0,-1.0629921,-186.02362,789.27165)"
         id="g8138"
         style="font-style:normal;font-variant:normal;font-weight:normal;font-stretch:normal;letter-spacing:normal;word-spacing:normal;text-anchor:start;fill:none;stroke:#000000;stroke-linecap:butt;stroke-linejoin:miter;stroke-miterlimit:10.43299961;stroke-opacity:1;stroke-dasharray:none;stroke-dashoffset:0"><path
           id="path8140"
           d="m 457.75,400.12 -0.03,-0.15 -0.04,-0.15 -0.03,-0.14 -0.03,-0.13 -0.04,-0.13 -0.03,-0.11 -0.04,-0.12 -0.03,-0.1 -0.04,-0.1 -0.04,-0.09 -0.04,-0.09 -0.05,-0.08 -0.05,-0.07 -0.05,-0.07 -0.06,-0.07 -0.06,-0.06 -0.07,-0.05 -0.07,-0.05 -0.08,-0.04 -0.09,-0.04 -0.09,-0.04 -0.1,-0.03 -0.11,-0.03 -0.12,-0.02 -0.13,-0.02 -0.06,-0.01 -0.07,-0.01 -0.07,-0.01 -0.08,-0.01 -0.07,0 -0.08,-0.01 -0.08,0 -0.09,-0.01 -0.08,0 -0.09,0 -0.1,0 -0.09,0 -0.1,-0.01 -0.1,0 c -0.6,0 -1.14,0 -1.14,-0.93 0,-0.41 0.25,-0.61 0.64,-0.61 1.36,0 2.79,0.15 4.18,0.15 1.64,0 3.35,-0.15 4.94,-0.15 0.25,0 0.89,0 0.89,1 0,0.54 -0.5,0.54 -1.19,0.54 -2.5,0 -2.5,0.36 -2.5,0.8 0,0.61 2.1,8.72 2.46,9.97 0.64,-1.44 2.03,-3.19 4.58,-3.19 l -0.05,1.1 c -3.3,0 -3.94,4.14 -3.94,4.43 0,0.1 0,0.21 0.14,0.8 l 2.46,9.77 c 0.34,1.34 1.68,2.73 2.57,3.48 1.75,1.55 3.21,1.89 4.05,1.89 1.98,0 3.19,-1.73 3.19,-4.69 0,-2.93 -1.64,-8.65 -2.55,-10.56 -1.69,-3.48 -4.08,-5.12 -5.92,-5.12 l 0.05,-1.1 c 5.78,0 12,7.27 12,14.6 0,4.68 -2.83,7.96 -6.63,7.96 -2.48,0 -4.87,-1.78 -6.51,-3.73 -0.5,2.69 -2.65,3.73 -4.49,3.73 -2.3,0 -3.25,-1.93 -3.69,-2.82 -0.9,-1.71 -1.54,-4.69 -1.54,-4.85 0,-0.5 0.5,-0.5 0.59,-0.5 0.5,0 0.55,0.07 0.84,1.16 0.86,3.53 1.85,5.92 3.64,5.92 0.85,0 1.55,-0.39 1.55,-2.28 0,-1.16 -0.15,-1.7 -0.34,-2.55 z"
           inkscape:connector-curvature="0"
           style="fill:#000000;stroke-width:0" /><path
           id="path8142"
           d="m 528.75,422.5 0.14,0 0.15,0 0.14,0 0.07,0.01 0.08,0 0.07,0.01 0.07,0.01 0.07,0.01 0.07,0.01 0.07,0.01 0.06,0.02 0.07,0.02 0.06,0.02 0.06,0.02 0.06,0.03 0.06,0.03 0.05,0.04 0.05,0.03 0.05,0.05 0.04,0.04 0.04,0.05 0.02,0.03 0.02,0.03 0.01,0.02 0.02,0.03 0.01,0.03 0.02,0.04 0.01,0.03 0.01,0.04 0.01,0.03 0.01,0.04 0,0.04 0.01,0.04 0,0.04 0.01,0.04 0,0.04 0,0.05 c 0,1 -0.95,1 -1.64,1 h -29.84 c -0.71,0 -1.64,0 -1.64,-1 0,-0.98 0.93,-0.98 1.68,-0.98 z"
           inkscape:connector-curvature="0"
           style="fill:#000000;stroke-width:0" /><path
           id="path8144"
           d="m 528.8,412.82 0.07,0 0.06,0 0.14,0.01 0.14,0 0.07,0 0.07,0.01 0.07,0.01 0.07,0 0.06,0.01 0.07,0.02 0.07,0.01 0.06,0.02 0.07,0.02 0.06,0.02 0.06,0.02 0.06,0.03 0.05,0.03 0.05,0.04 0.05,0.04 0.05,0.04 0.04,0.05 0.02,0.02 0.02,0.03 0.02,0.02 0.02,0.03 0.01,0.03 0.02,0.03 0.01,0.03 0.02,0.03 0.01,0.04 0.01,0.03 0.01,0.04 0.01,0.04 0,0.04 0.01,0.04 0,0.04 0.01,0.04 0,0.05 0,0.04 c 0,1 -0.95,1 -1.69,1 H 499 c -0.75,0 -1.68,0 -1.68,-1 0,-1 0.93,-1 1.64,-1 z"
           inkscape:connector-curvature="0"
           style="fill:#000000;stroke-width:0" /><path
           id="path8146"
           d="m 561.72,438.09 0,0.05 -0.01,0.06 0,0.05 0,0.05 0,0.05 0,0.05 0,0.04 0,0.05 0,0.04 0,0.04 0,0.04 0,0.04 0,0.04 -0.01,0.03 0,0.04 0,0.03 -0.01,0.07 -0.01,0.06 -0.01,0.05 -0.02,0.05 -0.01,0.05 -0.02,0.04 -0.02,0.04 -0.03,0.03 -0.03,0.03 -0.03,0.03 -0.03,0.03 -0.04,0.02 -0.05,0.02 -0.02,0.01 -0.03,0.01 -0.02,0 -0.03,0.01 -0.03,0.01 -0.03,0 -0.03,0.01 -0.03,0 -0.03,0.01 -0.04,0 -0.03,0 -0.04,0.01 -0.04,0 -0.04,0 -0.04,0 -0.04,0 -0.05,0 -0.05,0.01 -0.04,0 -0.05,0 -0.05,0 -0.06,0 c -3.09,-3.19 -7.47,-3.19 -9.06,-3.19 v -1.55 c 1,0 3.94,0 6.52,1.3 v -25.81 c 0,-1.8 -0.14,-2.39 -4.63,-2.39 h -1.59 v -1.55 c 1.75,0.16 6.08,0.16 8.06,0.16 2,0 6.33,0 8.08,-0.16 v 1.55 h -1.6 c -4.48,0 -4.63,0.54 -4.63,2.39 z"
           inkscape:connector-curvature="0"
           style="fill:#000000;stroke-width:0" /></g>    </g>
    <g
       id="g8332"
       transform="translate(262,554)">
      <g
         id="g8334"
         transform="matrix(1.0629921,0,0,-1.0629921,-186.02362,789.27165)"
         xml:space="preserve"
         stroke-miterlimit="10.433"
         font-style="normal"
         font-variant="normal"
         font-weight="normal"
         font-stretch="normal"
         font-size-adjust="none"
         letter-spacing="normal"
         word-spacing="normal"
         style="font-style:normal;font-variant:normal;font-weight:normal;font-stretch:normal;letter-spacing:normal;word-spacing:normal;text-anchor:start;fill:none;stroke:#000000;stroke-linecap:butt;stroke-linejoin:miter;stroke-miterlimit:10.43299961;stroke-opacity:1;stroke-dasharray:none;stroke-dashoffset:0"><path
           d="m 457.75,400.12 -0.03,-0.15 -0.04,-0.15 -0.03,-0.14 -0.03,-0.13 -0.04,-0.13 -0.03,-0.11 -0.04,-0.12 -0.03,-0.1 -0.04,-0.1 -0.04,-0.09 -0.04,-0.09 -0.05,-0.08 -0.05,-0.07 -0.05,-0.07 -0.06,-0.07 -0.06,-0.06 -0.07,-0.05 -0.07,-0.05 -0.08,-0.04 -0.09,-0.04 -0.09,-0.04 -0.1,-0.03 -0.11,-0.03 -0.12,-0.02 -0.13,-0.02 -0.06,-0.01 -0.07,-0.01 -0.07,-0.01 -0.08,-0.01 -0.07,0 -0.08,-0.01 -0.08,0 -0.09,-0.01 -0.08,0 -0.09,0 -0.1,0 -0.09,0 -0.1,-0.01 -0.1,0 c -0.6,0 -1.14,0 -1.14,-0.93 0,-0.41 0.25,-0.61 0.64,-0.61 1.36,0 2.79,0.15 4.18,0.15 1.64,0 3.35,-0.15 4.94,-0.15 0.25,0 0.89,0 0.89,1 0,0.54 -0.5,0.54 -1.19,0.54 -2.5,0 -2.5,0.36 -2.5,0.8 0,0.61 2.1,8.72 2.46,9.97 0.64,-1.44 2.03,-3.19 4.58,-3.19 l -0.05,1.1 c -3.3,0 -3.94,4.14 -3.94,4.43 0,0.1 0,0.21 0.14,0.8 l 2.46,9.77 c 0.34,1.34 1.68,2.73 2.57,3.48 1.75,1.55 3.21,1.89 4.05,1.89 1.98,0 3.19,-1.73 3.19,-4.69 0,-2.93 -1.64,-8.65 -2.55,-10.56 -1.69,-3.48 -4.08,-5.12 -5.92,-5.12 l 0.05,-1.1 c 5.78,0 12,7.27 12,14.6 0,4.68 -2.83,7.96 -6.63,7.96 -2.48,0 -4.87,-1.78 -6.51,-3.73 -0.5,2.69 -2.65,3.73 -4.49,3.73 -2.3,0 -3.25,-1.93 -3.69,-2.82 -0.9,-1.71 -1.54,-4.69 -1.54,-4.85 0,-0.5 0.5,-0.5 0.59,-0.5 0.5,0 0.55,0.07 0.84,1.16 0.86,3.53 1.85,5.92 3.64,5.92 0.85,0 1.55,-0.39 1.55,-2.28 0,-1.16 -0.15,-1.7 -0.34,-2.55 z"
           id="path8336"
           inkscape:connector-curvature="0"
           style="fill:#000000;stroke-width:0" /><path
           d="m 528.75,422.5 0.14,0 0.15,0 0.14,0 0.07,0.01 0.08,0 0.07,0.01 0.07,0.01 0.07,0.01 0.07,0.01 0.07,0.01 0.06,0.02 0.07,0.02 0.06,0.02 0.06,0.02 0.06,0.03 0.06,0.03 0.05,0.04 0.05,0.03 0.05,0.05 0.04,0.04 0.04,0.05 0.02,0.03 0.02,0.03 0.01,0.02 0.02,0.03 0.01,0.03 0.02,0.04 0.01,0.03 0.01,0.04 0.01,0.03 0.01,0.04 0,0.04 0.01,0.04 0,0.04 0.01,0.04 0,0.04 0,0.05 c 0,1 -0.95,1 -1.64,1 h -29.84 c -0.71,0 -1.64,0 -1.64,-1 0,-0.98 0.93,-0.98 1.68,-0.98 z"
           id="path8338"
           inkscape:connector-curvature="0"
           style="fill:#000000;stroke-width:0" /><path
           d="m 528.8,412.82 0.07,0 0.06,0 0.14,0.01 0.14,0 0.07,0 0.07,0.01 0.07,0.01 0.07,0 0.06,0.01 0.07,0.02 0.07,0.01 0.06,0.02 0.07,0.02 0.06,0.02 0.06,0.02 0.06,0.03 0.05,0.03 0.05,0.04 0.05,0.04 0.05,0.04 0.04,0.05 0.02,0.02 0.02,0.03 0.02,0.02 0.02,0.03 0.01,0.03 0.02,0.03 0.01,0.03 0.02,0.03 0.01,0.04 0.01,0.03 0.01,0.04 0.01,0.04 0,0.04 0.01,0.04 0,0.04 0.01,0.04 0,0.05 0,0.04 c 0,1 -0.95,1 -1.69,1 H 499 c -0.75,0 -1.68,0 -1.68,-1 0,-1 0.93,-1 1.64,-1 z"
           id="path8340"
           inkscape:connector-curvature="0"
           style="fill:#000000;stroke-width:0" /><path
           d="m 553.4,410.04 5.28,5.13 c 7.77,6.87 10.77,9.56 10.77,14.54 0,5.69 -4.48,9.68 -10.56,9.68 -5.64,0 -9.33,-4.6 -9.33,-9.03 0,-2.79 2.5,-2.79 2.64,-2.79 0.86,0 2.59,0.6 2.59,2.64 0,1.3 -0.89,2.6 -2.64,2.6 -0.39,0 -0.5,0 -0.64,-0.05 1.14,3.24 3.83,5.08 6.72,5.08 4.53,0 6.69,-4.05 6.69,-8.13 0,-3.98 -2.5,-7.92 -5.24,-11.01 l -9.56,-10.66 c -0.56,-0.54 -0.56,-0.64 -0.56,-1.84 h 18.48 l 1.41,8.67 h -1.25 c -0.25,-1.5 -0.6,-3.69 -1.1,-4.44 -0.35,-0.39 -3.63,-0.39 -4.73,-0.39 z"
           id="path8342"
           inkscape:connector-curvature="0"
           style="fill:#000000;stroke-width:0" /></g>    </g>
    <g
       id="g8540"
       transform="translate(506,554)">
      <g
         word-spacing="normal"
         letter-spacing="normal"
         font-size-adjust="none"
         font-stretch="normal"
         font-weight="normal"
         font-variant="normal"
         font-style="normal"
         stroke-miterlimit="10.433"
         xml:space="preserve"
         transform="matrix(1.0629921,0,0,-1.0629921,-186.02362,789.27165)"
         id="g8542"
         style="font-style:normal;font-variant:normal;font-weight:normal;font-stretch:normal;letter-spacing:normal;word-spacing:normal;text-anchor:start;fill:none;stroke:#000000;stroke-linecap:butt;stroke-linejoin:miter;stroke-miterlimit:10.43299961;stroke-opacity:1;stroke-dasharray:none;stroke-dashoffset:0"><path
           id="path8544"
           d="m 457.75,400.12 -0.03,-0.15 -0.04,-0.15 -0.03,-0.14 -0.03,-0.13 -0.04,-0.13 -0.03,-0.11 -0.04,-0.12 -0.03,-0.1 -0.04,-0.1 -0.04,-0.09 -0.04,-0.09 -0.05,-0.08 -0.05,-0.07 -0.05,-0.07 -0.06,-0.07 -0.06,-0.06 -0.07,-0.05 -0.07,-0.05 -0.08,-0.04 -0.09,-0.04 -0.09,-0.04 -0.1,-0.03 -0.11,-0.03 -0.12,-0.02 -0.13,-0.02 -0.06,-0.01 -0.07,-0.01 -0.07,-0.01 -0.08,-0.01 -0.07,0 -0.08,-0.01 -0.08,0 -0.09,-0.01 -0.08,0 -0.09,0 -0.1,0 -0.09,0 -0.1,-0.01 -0.1,0 c -0.6,0 -1.14,0 -1.14,-0.93 0,-0.41 0.25,-0.61 0.64,-0.61 1.36,0 2.79,0.15 4.18,0.15 1.64,0 3.35,-0.15 4.94,-0.15 0.25,0 0.89,0 0.89,1 0,0.54 -0.5,0.54 -1.19,0.54 -2.5,0 -2.5,0.36 -2.5,0.8 0,0.61 2.1,8.72 2.46,9.97 0.64,-1.44 2.03,-3.19 4.58,-3.19 l -0.05,1.1 c -3.3,0 -3.94,4.14 -3.94,4.43 0,0.1 0,0.21 0.14,0.8 l 2.46,9.77 c 0.34,1.34 1.68,2.73 2.57,3.48 1.75,1.55 3.21,1.89 4.05,1.89 1.98,0 3.19,-1.73 3.19,-4.69 0,-2.93 -1.64,-8.65 -2.55,-10.56 -1.69,-3.48 -4.08,-5.12 -5.92,-5.12 l 0.05,-1.1 c 5.78,0 12,7.27 12,14.6 0,4.68 -2.83,7.96 -6.63,7.96 -2.48,0 -4.87,-1.78 -6.51,-3.73 -0.5,2.69 -2.65,3.73 -4.49,3.73 -2.3,0 -3.25,-1.93 -3.69,-2.82 -0.9,-1.71 -1.54,-4.69 -1.54,-4.85 0,-0.5 0.5,-0.5 0.59,-0.5 0.5,0 0.55,0.07 0.84,1.16 0.86,3.53 1.85,5.92 3.64,5.92 0.85,0 1.55,-0.39 1.55,-2.28 0,-1.16 -0.15,-1.7 -0.34,-2.55 z"
           inkscape:connector-curvature="0"
           style="fill:#000000;stroke-width:0" /><path
           id="path8546"
           d="m 528.75,422.5 0.14,0 0.15,0 0.14,0 0.07,0.01 0.08,0 0.07,0.01 0.07,0.01 0.07,0.01 0.07,0.01 0.07,0.01 0.06,0.02 0.07,0.02 0.06,0.02 0.06,0.02 0.06,0.03 0.06,0.03 0.05,0.04 0.05,0.03 0.05,0.05 0.04,0.04 0.04,0.05 0.02,0.03 0.02,0.03 0.01,0.02 0.02,0.03 0.01,0.03 0.02,0.04 0.01,0.03 0.01,0.04 0.01,0.03 0.01,0.04 0,0.04 0.01,0.04 0,0.04 0.01,0.04 0,0.04 0,0.05 c 0,1 -0.95,1 -1.64,1 h -29.84 c -0.71,0 -1.64,0 -1.64,-1 0,-0.98 0.93,-0.98 1.68,-0.98 z"
           inkscape:connector-curvature="0"
           style="fill:#000000;stroke-width:0" /><path
           id="path8548"
           d="m 528.8,412.82 0.07,0 0.06,0 0.14,0.01 0.14,0 0.07,0 0.07,0.01 0.07,0.01 0.07,0 0.06,0.01 0.07,0.02 0.07,0.01 0.06,0.02 0.07,0.02 0.06,0.02 0.06,0.02 0.06,0.03 0.05,0.03 0.05,0.04 0.05,0.04 0.05,0.04 0.04,0.05 0.02,0.02 0.02,0.03 0.02,0.02 0.02,0.03 0.01,0.03 0.02,0.03 0.01,0.03 0.02,0.03 0.01,0.04 0.01,0.03 0.01,0.04 0.01,0.04 0,0.04 0.01,0.04 0,0.04 0.01,0.04 0,0.05 0,0.04 c 0,1 -0.95,1 -1.69,1 H 499 c -0.75,0 -1.68,0 -1.68,-1 0,-1 0.93,-1 1.64,-1 z"
           inkscape:connector-curvature="0"
           style="fill:#000000;stroke-width:0" /><path
           id="path8550"
           d="m 561.53,423.73 0.38,0.13 0.37,0.15 0.36,0.15 0.36,0.17 0.35,0.18 0.33,0.19 0.33,0.2 0.33,0.22 0.31,0.22 0.3,0.23 0.29,0.24 0.28,0.25 0.28,0.26 0.26,0.27 0.24,0.27 0.24,0.29 0.23,0.29 0.21,0.3 0.2,0.3 0.19,0.32 0.17,0.32 0.16,0.32 0.15,0.33 0.13,0.34 0.12,0.34 0.1,0.34 0.09,0.35 0.07,0.36 0.06,0.36 0.04,0.36 0.03,0.36 0.01,0.37 c 0,4.08 -4.4,6.88 -9.18,6.88 -5.03,0 -8.81,-3 -8.81,-6.78 0,-1.65 1.09,-2.6 2.55,-2.6 1.53,0 2.53,1.1 2.53,2.55 0,2.48 -2.34,2.48 -3.08,2.48 1.53,2.44 4.83,3.1 6.63,3.1 2.03,0 4.78,-1.1 4.78,-5.58 0,-0.61 -0.11,-3.49 -1.41,-5.69 -1.48,-2.39 -3.19,-2.53 -4.42,-2.59 -0.41,-0.05 -1.59,-0.14 -1.95,-0.14 -0.39,-0.05 -0.75,-0.1 -0.75,-0.6 0,-0.54 0.36,-0.54 1.2,-0.54 h 2.19 c 4.09,0 5.94,-3.39 5.94,-8.29 0,-6.76 -3.44,-8.21 -5.65,-8.21 -2.14,0 -5.87,0.84 -7.6,3.78 1.73,-0.24 3.28,0.86 3.28,2.75 0,1.79 -1.35,2.78 -2.8,2.78 -1.19,0 -2.78,-0.69 -2.78,-2.89 0,-4.53 4.62,-7.81 10.06,-7.81 6.08,0 10.61,4.53 10.61,9.6 0,4.1 -3.14,7.97 -8.31,9.02 z"
           inkscape:connector-curvature="0"
           style="fill:#000000;stroke-width:0" /></g>    </g>
    <path
       inkscape:connector-curvature="0"
       id="path7823"
       d="m 468.87995,423.06425 118.74387,0 0,158.23457 -118.74387,0 0,-158.23457"
       style="opacity:0.5;fill:#000080;stroke:#000000;stroke-width:2.4231565px;stroke-linecap:butt;stroke-linejoin:miter;stroke-opacity:1" />
    <path
       inkscape:connector-curvature="0"
       id="path7825"
       d="m 628.08287,381.82766 -40,40 0,160 40,-40 0,-160"
       style="opacity:0.5;fill:#000080;stroke:#000000;stroke-width:1px;stroke-linecap:butt;stroke-linejoin:miter;stroke-opacity:1" />
    <path
       style="fill:none;stroke:#000000;stroke-width:1px;stroke-linecap:butt;stroke-linejoin:miter;stroke-opacity:1"
       d="m 468,582.36218 0,-160 m 20,160 0,-160 m 20,160 0,-160 m 20,160 0,-160 m 20,160 0,-160 m 20,160 0,-160 m 20,160 0,-160 m -120,160 120,0 m -120,-20 120,0 m -120,-20 120,0 m -120,-20 120,0 m -120,-20 120,0 m -120,-20 120,0 m -120,-20 120,0 m -120,-20 120,0 m -120,-20 120,0"
       id="path8710"
       inkscape:connector-curvature="0"
       inkscape:path-effect="#path-effect8712"
       inkscape:original-d="m 468,562.36218 c 0,20 0,20 0,20 l 20,0 0,-20 z" />
    <path
       style="fill:none;stroke:#000000;stroke-width:1px;stroke-linecap:butt;stroke-linejoin:miter;stroke-opacity:1"
       d="m 627.92858,382.61217 -40,40 m 40,-20 -40,40 m 40,-20 -40,40 m 40,-20 -40,40 m 40,-20 -40,40 m 40,-20 -40,40 m 40,-20 -40,40 m 40,-20 -40,40 m 40,-20 -40,40 m 40,-200 0,160 m -5,-155 0,160 m -5,-155 0,160 m -5,-155 0,160 m -5,-155 0,160 m -5,-155 0,160 m -5,-155 0,160 m -5,-155 0,160 m -5,-155 0,160"
       id="path8714"
       inkscape:connector-curvature="0"
       inkscape:path-effect="#path-effect8716"
       inkscape:original-d="m 622.92858,387.61217 5,-5 0,20 -5,5" />
    <path
       style="fill:none;stroke:#000000;stroke-width:1px;stroke-linecap:butt;stroke-linejoin:miter;stroke-opacity:1"
       d="m 507.87757,382.37999 -40,40 m 60,-40 -40,40 m 60,-40 -40,40 m 60,-40 -40,40 m 60,-40 -40,40 m 60,-40 -40,40 m 60,-40 -40,40 m -80,-40 120,0 m -125,5 120,0 m -125,5 120,0 m -125,5 120,0 m -125,5 120,0 m -125,5 120,0 m -125,5 120,0 m -125,5 120,0 m -125,5 120,0"
       id="path8718"
       inkscape:connector-curvature="0"
       inkscape:path-effect="#path-effect8720"
       inkscape:original-d="m 502.87757,387.37999 5,-5 20,0 -5,5 -20,0" />
    <path
       style="opacity:0.5;fill:#000080;stroke:#000000;stroke-width:1px;stroke-linecap:butt;stroke-linejoin:miter;stroke-opacity:1"
       d="m 628,382.36218 -120,0 -40,40 120,0 z"
       id="path8740"
       inkscape:connector-curvature="0" />
    <path
       style="fill:none;stroke:#000000;stroke-width:0.92884707px;stroke-linecap:butt;stroke-linejoin:miter;stroke-opacity:1"
       d="M 273.65485,634.1946 448.48239,590.68689"
       id="path8750"
       inkscape:connector-curvature="0" />
    <path
       style="fill:none;stroke:#000000;stroke-width:1px;stroke-linecap:butt;stroke-linejoin:miter;stroke-opacity:1"
       d="m 612.09153,594.76308 c 171.72593,40.4061 171.72593,40.4061 171.72593,40.4061"
       id="path8752"
       inkscape:connector-curvature="0" />
    <path
       style="fill:none;stroke:#000000;stroke-width:1px;stroke-linecap:butt;stroke-linejoin:miter;stroke-opacity:1"
       d="M 369.65492,651.33162 C 477.74124,600.82399 477.74124,600.82399 477.74124,600.82399"
       id="path8754"
       inkscape:connector-curvature="0" />
    <path
       style="fill:none;stroke:#000000;stroke-width:1px;stroke-linecap:butt;stroke-linejoin:miter;stroke-opacity:1"
       d="m 590.87832,602.8443 121.21831,45.45686"
       id="path8756"
       inkscape:connector-curvature="0" />
    <path
       style="fill:none;stroke:#000000;stroke-width:1px;stroke-linecap:butt;stroke-linejoin:miter;stroke-opacity:1"
       d="m 515.11688,605.87476 -21.2132,42.4264"
       id="path8758"
       inkscape:connector-curvature="0" />
    <path
       style="fill:none;stroke:#000000;stroke-width:1px;stroke-linecap:butt;stroke-linejoin:miter;stroke-opacity:1"
       d="m 549.46207,602.8443 c 21.2132,44.44671 21.2132,44.44671 21.2132,44.44671"
       id="path8760"
       inkscape:connector-curvature="0" />
    <g
       id="g8762"
       transform="translate(246,260)">
      <g
         id="g8764"
         transform="translate(-228,-2)">
        <path
           inkscape:connector-curvature="0"
           id="path8766"
           d="m 425.63444,437.58412 19.17363,0 0,159.67959 -19.17363,0 0,-159.67959"
           style="opacity:0.5;fill:#000080;stroke:#000000;stroke-width:0.97814232px;stroke-linecap:butt;stroke-linejoin:miter;stroke-opacity:1" />
        <path
           inkscape:connector-curvature="0"
           id="path8768"
           d="m 484.79715,397.82766 -40,40 0,160 40,-40 0,-160"
           style="opacity:0.5;fill:#000080;stroke:#000000;stroke-width:1px;stroke-linecap:butt;stroke-linejoin:miter;stroke-opacity:1" />
        <path
           inkscape:connector-curvature="0"
           id="path8770"
           d="m 485,397.36218 -20,0 -40,40 20,0 z"
           style="opacity:0.5;fill:#000080;stroke:#000000;stroke-width:1px;stroke-linecap:butt;stroke-linejoin:miter;stroke-opacity:1" />
      </g>
    </g>
  </g>
</svg>
