<?xml version="1.0" encoding="UTF-8" standalone="no"?>
<!-- Created with Inkscape (http://www.inkscape.org/) -->

<svg
   xmlns:dc="http://purl.org/dc/elements/1.1/"
   xmlns:cc="http://creativecommons.org/ns#"
   xmlns:rdf="http://www.w3.org/1999/02/22-rdf-syntax-ns#"
   xmlns:svg="http://www.w3.org/2000/svg"
   xmlns="http://www.w3.org/2000/svg"
   xmlns:sodipodi="http://sodipodi.sourceforge.net/DTD/sodipodi-0.dtd"
   xmlns:inkscape="http://www.inkscape.org/namespaces/inkscape"
   width="744.09448819"
   height="1052.3622047"
   id="svg9258"
   version="1.1"
   inkscape:version="0.48.4 r9939"
   sodipodi:docname="subdomains-grid-lines.eps">
  <defs
     id="defs9260">
    <inkscape:path-effect
       effect="construct_grid"
       id="path-effect7771"
       is_visible="true"
       nr_x="8"
       nr_y="8" />
    <inkscape:path-effect
       effect="construct_grid"
       id="path-effect7773"
       is_visible="true"
       nr_x="8"
       nr_y="8" />
    <inkscape:path-effect
       effect="construct_grid"
       id="path-effect7775"
       is_visible="true"
       nr_x="8"
       nr_y="8" />
    <inkscape:path-effect
       effect="construct_grid"
       id="path-effect9206"
       is_visible="true"
       nr_x="8"
       nr_y="8" />
    <inkscape:path-effect
       effect="construct_grid"
       id="path-effect9208"
       is_visible="true"
       nr_x="8"
       nr_y="8" />
    <inkscape:path-effect
       effect="construct_grid"
       id="path-effect9210"
       is_visible="true"
       nr_x="8"
       nr_y="8" />
    <inkscape:path-effect
       effect="construct_grid"
       id="path-effect9212"
       is_visible="true"
       nr_x="8"
       nr_y="8" />
    <inkscape:path-effect
       effect="construct_grid"
       id="path-effect9214"
       is_visible="true"
       nr_x="8"
       nr_y="8" />
    <inkscape:path-effect
       effect="construct_grid"
       id="path-effect9216"
       is_visible="true"
       nr_x="8"
       nr_y="8" />
    <inkscape:path-effect
       nr_y="8"
       nr_x="8"
       is_visible="true"
       id="path-effect3046-2"
       effect="construct_grid" />
    <inkscape:path-effect
       nr_y="8"
       nr_x="8"
       is_visible="true"
       id="path-effect3042-3"
       effect="construct_grid" />
    <inkscape:path-effect
       nr_y="8"
       nr_x="8"
       is_visible="true"
       id="path-effect3038-0"
       effect="construct_grid" />
  </defs>
  <sodipodi:namedview
     id="base"
     pagecolor="#ffffff"
     bordercolor="#666666"
     borderopacity="1.0"
     inkscape:pageopacity="0.0"
     inkscape:pageshadow="2"
     inkscape:zoom="1.4142136"
     inkscape:cx="360.70469"
     inkscape:cy="713.81822"
     inkscape:document-units="px"
     inkscape:current-layer="layer1"
     showgrid="false"
     inkscape:window-width="1366"
     inkscape:window-height="713"
     inkscape:window-x="0"
     inkscape:window-y="30"
     inkscape:window-maximized="1">
    <inkscape:grid
       type="xygrid"
       id="grid9373" />
  </sodipodi:namedview>
  <metadata
     id="metadata9263">
    <rdf:RDF>
      <cc:Work
         rdf:about="">
        <dc:format>image/svg+xml</dc:format>
        <dc:type
           rdf:resource="http://purl.org/dc/dcmitype/StillImage" />
        <dc:title></dc:title>
      </cc:Work>
    </rdf:RDF>
  </metadata>
  <g
     inkscape:label="Layer 1"
     inkscape:groupmode="layer"
     id="layer1">
    <path
       inkscape:original-d="m 170.84055,405.33258 0,7.53933 7.53933,0 0,-7.53933 -7.53933,0"
       inkscape:path-effect="#path-effect3038-0"
       inkscape:connector-curvature="0"
       id="path3036"
       d="m 170.84055,412.87191 0,-60.31464 m 7.53933,60.31464 0,-60.31464 m 7.53933,60.31464 0,-60.31464 m 7.53933,60.31464 0,-60.31464 m 7.53933,60.31464 0,-60.31464 m 7.53933,60.31464 0,-60.31464 m 7.53933,60.31464 0,-60.31464 m 7.53933,60.31464 0,-60.31464 m 7.53933,60.31464 0,-60.31464 m -60.31464,60.31464 60.31464,0 m -60.31464,-7.53933 60.31464,0 m -60.31464,-7.53933 60.31464,0 m -60.31464,-7.53933 60.31464,0 m -60.31464,-7.53933 60.31464,0 m -60.31464,-7.53933 60.31464,0 m -60.31464,-7.53933 60.31464,0 m -60.31464,-7.53933 60.31464,0 m -60.31464,-7.53933 60.31464,0"
       style="fill:none;stroke:#000000;stroke-width:0.75393397;stroke-linecap:butt;stroke-linejoin:miter;stroke-miterlimit:4;stroke-opacity:1;stroke-dasharray:none" />
    <path
       inkscape:original-d="m 244.33806,339.34825 1.88483,-1.88483 0,7.53934 -1.88483,1.88484"
       inkscape:path-effect="#path-effect3042-3"
       inkscape:connector-curvature="0"
       id="path3040"
       d="m 246.22289,337.46342 -15.07864,15.07864 m 15.07864,-7.5393 -15.07864,15.07864 m 15.07864,-7.5393 -15.07864,15.07864 m 15.07864,-7.5393 -15.07864,15.07864 m 15.07864,-7.5393 -15.07864,15.07864 m 15.07864,-7.5393 -15.07864,15.07864 m 15.07864,-7.5393 -15.07864,15.07864 m 15.07864,-7.5393 -15.07864,15.07864 m 15.07864,-7.5393 -15.07864,15.07864 m 15.07864,-75.39336 0,60.31472 m -1.88483,-58.42989 0,60.31472 m -1.88483,-58.42989 0,60.31472 m -1.88483,-58.42989 0,60.31472 m -1.88483,-58.42989 0,60.31472 m -1.88483,-58.42989 0,60.31472 m -1.88483,-58.42989 0,60.31472 m -1.88483,-58.42989 0,60.31472 m -1.88483,-58.42989 0,60.31472"
       style="fill:none;stroke:#000000;stroke-width:0.75393397;stroke-linecap:butt;stroke-linejoin:miter;stroke-miterlimit:4;stroke-opacity:1;stroke-dasharray:none" />
    <path
       inkscape:original-d="m 193.48991,337.47425 -7.53934,0 -1.88484,1.88483 7.53935,0 z"
       inkscape:path-effect="#path-effect3046-2"
       inkscape:connector-curvature="0"
       id="path3044"
       d="m 185.95057,337.47425 60.31472,0 m -62.19956,1.88483 60.31472,0 m -62.19956,1.88483 60.31472,0 m -62.19956,1.88483 60.31472,0 m -62.19956,1.88483 60.31472,0 m -62.19956,1.88483 60.31472,0 m -62.19956,1.88483 60.31472,0 m -62.19956,1.88483 60.31472,0 m -62.19956,1.88483 60.31472,0 m -45.236,-15.07864 -15.07872,15.07864 m 22.61806,-15.07864 -15.07872,15.07864 m 22.61806,-15.07864 -15.07872,15.07864 m 22.61806,-15.07864 -15.07872,15.07864 m 22.61806,-15.07864 -15.07872,15.07864 m 22.61806,-15.07864 -15.07872,15.07864 m 22.61806,-15.07864 -15.07872,15.07864 m 22.61806,-15.07864 -15.07872,15.07864 m 22.61806,-15.07864 -15.07872,15.07864"
       style="fill:none;stroke:#000000;stroke-width:0.75393397;stroke-linecap:butt;stroke-linejoin:miter;stroke-miterlimit:4;stroke-opacity:1;stroke-dasharray:none" />
    <g
       transform="matrix(0.37696698,0,0,0.37696698,149.66948,188.12638)"
       id="g7829">
      <path
         inkscape:original-d="m 296.29259,576.2019 3e-5,20 20,2e-5 0,-20.00003 -20.00003,10e-6"
         inkscape:path-effect="#path-effect7771"
         inkscape:connector-curvature="0"
         id="path7757"
         d="m 296.29262,596.2019 -2.4e-4,-160 m 20.00024,160.00002 -2.4e-4,-160 m 20.00024,160.00002 -2.4e-4,-160 m 20.00024,160.00002 -2.4e-4,-160 m 20.00024,160.00002 -2.4e-4,-160 m 20.00024,160.00002 -2.4e-4,-160 m 20.00024,160.00002 -2.4e-4,-160 m 20.00024,160.00002 -2.4e-4,-160 m 20.00024,160.00002 -2.4e-4,-160 m -159.99976,159.99984 160,1.6e-4 m -160.00003,-20.00016 160,1.6e-4 m -160.00003,-20.00016 160,1.6e-4 m -160.00003,-20.00016 160,1.6e-4 M 296.2925,516.2019 l 160,1.6e-4 m -160.00003,-20.00016 160,1.6e-4 m -160.00003,-20.00016 160,1.6e-4 m -160.00003,-20.00016 160,1.6e-4 m -160.00003,-20.00016 160,1.6e-4"
         style="fill:none;stroke:#000000;stroke-width:2;stroke-linecap:butt;stroke-linejoin:miter;stroke-miterlimit:4;stroke-opacity:1;stroke-dasharray:none" />
      <path
         inkscape:original-d="m 491.26329,401.16186 4.99999,-5.00001 -1e-5,20 -4.99996,5"
         inkscape:path-effect="#path-effect7773"
         inkscape:connector-curvature="0"
         id="path7759"
         d="m 496.26328,396.16185 -39.99992,40.00008 m 39.99991,-20.00008 -39.99992,40.00008 m 39.99991,-20.00008 -39.99992,40.00008 m 39.99991,-20.00008 -39.99992,40.00008 m 39.99991,-20.00008 -39.99992,40.00008 m 39.99991,-20.00008 -39.99992,40.00008 m 39.99991,-20.00008 -39.99992,40.00008 m 39.99991,-20.00008 -39.99992,40.00008 m 39.99991,-20.00008 -39.99992,40.00008 m 40,-200.00008 -8e-5,160 m -4.99991,-154.99999 -8e-5,160 m -4.99991,-154.99999 -8e-5,160 m -4.99991,-154.99999 -8e-5,160 m -4.99991,-154.99999 -8e-5,160 m -4.99991,-154.99999 -8e-5,160 m -4.99991,-154.99999 -8e-5,160 m -4.99991,-154.99999 -8e-5,160 m -4.99991,-154.99999 -8e-5,160"
         style="fill:none;stroke:#000000;stroke-width:2;stroke-linecap:butt;stroke-linejoin:miter;stroke-miterlimit:4;stroke-opacity:1;stroke-dasharray:none" />
      <path
         inkscape:original-d="m 356.37575,396.19059 -19.99999,-3e-5 -5,5.00002 20,-4e-5 z"
         inkscape:path-effect="#path-effect7775"
         inkscape:connector-curvature="0"
         id="path7761"
         d="m 336.37576,396.19056 159.99992,2.4e-4 m -164.99992,4.99978 159.99992,2.4e-4 m -164.99992,4.99978 159.99992,2.4e-4 m -164.99992,4.99978 159.99992,2.4e-4 m -164.99992,4.99978 159.99992,2.4e-4 m -164.99992,4.99978 159.99992,2.4e-4 m -164.99992,4.99978 159.99992,2.4e-4 m -164.99992,4.99978 159.99992,2.4e-4 m -164.99992,4.99978 159.99992,2.4e-4 m -119.99992,-40.0004 -40,40.00016 m 59.99999,-40.00013 -40,40.00016 m 59.99999,-40.00013 -40,40.00016 m 59.99999,-40.00013 -40,40.00016 m 59.99999,-40.00013 -40,40.00016 m 59.99999,-40.00013 -40,40.00016 m 59.99999,-40.00013 -40,40.00016 m 59.99999,-40.00013 -40,40.00016 m 59.99999,-40.00013 -40,40.00016"
         style="fill:none;stroke:#000000;stroke-width:2;stroke-linecap:butt;stroke-linejoin:miter;stroke-miterlimit:4;stroke-opacity:1;stroke-dasharray:none" />
    </g>
    <g
       transform="matrix(0.37696698,0,0,0.37696698,330.61363,188.12638)"
       id="g7834">
      <path
         style="fill:none;stroke:#000000;stroke-width:2;stroke-linecap:butt;stroke-linejoin:miter;stroke-miterlimit:4;stroke-opacity:1;stroke-dasharray:none"
         d="m 296.29262,596.2019 -2.4e-4,-160 m 20.00024,160.00002 -2.4e-4,-160 m 20.00024,160.00002 -2.4e-4,-160 m 20.00024,160.00002 -2.4e-4,-160 m 20.00024,160.00002 -2.4e-4,-160 m 20.00024,160.00002 -2.4e-4,-160 m 20.00024,160.00002 -2.4e-4,-160 m 20.00024,160.00002 -2.4e-4,-160 m 20.00024,160.00002 -2.4e-4,-160 m -159.99976,159.99984 160,1.6e-4 m -160.00003,-20.00016 160,1.6e-4 m -160.00003,-20.00016 160,1.6e-4 m -160.00003,-20.00016 160,1.6e-4 M 296.2925,516.2019 l 160,1.6e-4 m -160.00003,-20.00016 160,1.6e-4 m -160.00003,-20.00016 160,1.6e-4 m -160.00003,-20.00016 160,1.6e-4 m -160.00003,-20.00016 160,1.6e-4"
         id="path7836"
         inkscape:connector-curvature="0"
         inkscape:path-effect="#path-effect7771"
         inkscape:original-d="m 296.29259,576.2019 3e-5,20 20,2e-5 0,-20.00003 -20.00003,10e-6" />
      <path
         style="fill:none;stroke:#000000;stroke-width:2;stroke-linecap:butt;stroke-linejoin:miter;stroke-miterlimit:4;stroke-opacity:1;stroke-dasharray:none"
         d="m 496.26328,396.16185 -39.99992,40.00008 m 39.99991,-20.00008 -39.99992,40.00008 m 39.99991,-20.00008 -39.99992,40.00008 m 39.99991,-20.00008 -39.99992,40.00008 m 39.99991,-20.00008 -39.99992,40.00008 m 39.99991,-20.00008 -39.99992,40.00008 m 39.99991,-20.00008 -39.99992,40.00008 m 39.99991,-20.00008 -39.99992,40.00008 m 39.99991,-20.00008 -39.99992,40.00008 m 40,-200.00008 -8e-5,160 m -4.99991,-154.99999 -8e-5,160 m -4.99991,-154.99999 -8e-5,160 m -4.99991,-154.99999 -8e-5,160 m -4.99991,-154.99999 -8e-5,160 m -4.99991,-154.99999 -8e-5,160 m -4.99991,-154.99999 -8e-5,160 m -4.99991,-154.99999 -8e-5,160 m -4.99991,-154.99999 -8e-5,160"
         id="path7838"
         inkscape:connector-curvature="0"
         inkscape:path-effect="#path-effect7773"
         inkscape:original-d="m 491.26329,401.16186 4.99999,-5.00001 -1e-5,20 -4.99996,5" />
      <path
         style="fill:none;stroke:#000000;stroke-width:2;stroke-linecap:butt;stroke-linejoin:miter;stroke-miterlimit:4;stroke-opacity:1;stroke-dasharray:none"
         d="m 336.37576,396.19056 159.99992,2.4e-4 m -164.99992,4.99978 159.99992,2.4e-4 m -164.99992,4.99978 159.99992,2.4e-4 m -164.99992,4.99978 159.99992,2.4e-4 m -164.99992,4.99978 159.99992,2.4e-4 m -164.99992,4.99978 159.99992,2.4e-4 m -164.99992,4.99978 159.99992,2.4e-4 m -164.99992,4.99978 159.99992,2.4e-4 m -164.99992,4.99978 159.99992,2.4e-4 m -119.99992,-40.0004 -40,40.00016 m 59.99999,-40.00013 -40,40.00016 m 59.99999,-40.00013 -40,40.00016 m 59.99999,-40.00013 -40,40.00016 m 59.99999,-40.00013 -40,40.00016 m 59.99999,-40.00013 -40,40.00016 m 59.99999,-40.00013 -40,40.00016 m 59.99999,-40.00013 -40,40.00016 m 59.99999,-40.00013 -40,40.00016"
         id="path7840"
         inkscape:connector-curvature="0"
         inkscape:path-effect="#path-effect7775"
         inkscape:original-d="m 356.37575,396.19059 -19.99999,-3e-5 -5,5.00002 20,-4e-5 z" />
    </g>
    <g
       id="g7848"
       transform="matrix(0.37696698,0,0,0.37696698,240.14156,188.12638)">
      <path
         style="fill:none;stroke:#000000;stroke-width:2;stroke-linecap:butt;stroke-linejoin:miter;stroke-miterlimit:4;stroke-opacity:1;stroke-dasharray:none"
         d="m 296.29262,596.2019 -2.4e-4,-160 m 20.00024,160.00002 -2.4e-4,-160 m 20.00024,160.00002 -2.4e-4,-160 m 20.00024,160.00002 -2.4e-4,-160 m 20.00024,160.00002 -2.4e-4,-160 m 20.00024,160.00002 -2.4e-4,-160 m 20.00024,160.00002 -2.4e-4,-160 m 20.00024,160.00002 -2.4e-4,-160 m 20.00024,160.00002 -2.4e-4,-160 m -159.99976,159.99984 160,1.6e-4 m -160.00003,-20.00016 160,1.6e-4 m -160.00003,-20.00016 160,1.6e-4 m -160.00003,-20.00016 160,1.6e-4 M 296.2925,516.2019 l 160,1.6e-4 m -160.00003,-20.00016 160,1.6e-4 m -160.00003,-20.00016 160,1.6e-4 m -160.00003,-20.00016 160,1.6e-4 m -160.00003,-20.00016 160,1.6e-4"
         id="path7850"
         inkscape:connector-curvature="0"
         inkscape:path-effect="#path-effect7771"
         inkscape:original-d="m 296.29259,576.2019 3e-5,20 20,2e-5 0,-20.00003 -20.00003,10e-6" />
      <path
         style="fill:none;stroke:#000000;stroke-width:2;stroke-linecap:butt;stroke-linejoin:miter;stroke-miterlimit:4;stroke-opacity:1;stroke-dasharray:none"
         d="m 496.26328,396.16185 -39.99992,40.00008 m 39.99991,-20.00008 -39.99992,40.00008 m 39.99991,-20.00008 -39.99992,40.00008 m 39.99991,-20.00008 -39.99992,40.00008 m 39.99991,-20.00008 -39.99992,40.00008 m 39.99991,-20.00008 -39.99992,40.00008 m 39.99991,-20.00008 -39.99992,40.00008 m 39.99991,-20.00008 -39.99992,40.00008 m 39.99991,-20.00008 -39.99992,40.00008 m 40,-200.00008 -8e-5,160 m -4.99991,-154.99999 -8e-5,160 m -4.99991,-154.99999 -8e-5,160 m -4.99991,-154.99999 -8e-5,160 m -4.99991,-154.99999 -8e-5,160 m -4.99991,-154.99999 -8e-5,160 m -4.99991,-154.99999 -8e-5,160 m -4.99991,-154.99999 -8e-5,160 m -4.99991,-154.99999 -8e-5,160"
         id="path7852"
         inkscape:connector-curvature="0"
         inkscape:path-effect="#path-effect7773"
         inkscape:original-d="m 491.26329,401.16186 4.99999,-5.00001 -1e-5,20 -4.99996,5" />
      <path
         style="fill:none;stroke:#000000;stroke-width:2;stroke-linecap:butt;stroke-linejoin:miter;stroke-miterlimit:4;stroke-opacity:1;stroke-dasharray:none"
         d="m 336.37576,396.19056 159.99992,2.4e-4 m -164.99992,4.99978 159.99992,2.4e-4 m -164.99992,4.99978 159.99992,2.4e-4 m -164.99992,4.99978 159.99992,2.4e-4 m -164.99992,4.99978 159.99992,2.4e-4 m -164.99992,4.99978 159.99992,2.4e-4 m -164.99992,4.99978 159.99992,2.4e-4 m -164.99992,4.99978 159.99992,2.4e-4 m -164.99992,4.99978 159.99992,2.4e-4 m -119.99992,-40.0004 -40,40.00016 m 59.99999,-40.00013 -40,40.00016 m 59.99999,-40.00013 -40,40.00016 m 59.99999,-40.00013 -40,40.00016 m 59.99999,-40.00013 -40,40.00016 m 59.99999,-40.00013 -40,40.00016 m 59.99999,-40.00013 -40,40.00016 m 59.99999,-40.00013 -40,40.00016 m 59.99999,-40.00013 -40,40.00016"
         id="path7854"
         inkscape:connector-curvature="0"
         inkscape:path-effect="#path-effect7775"
         inkscape:original-d="m 356.37575,396.19059 -19.99999,-3e-5 -5,5.00002 20,-4e-5 z" />
    </g>
    <path
       style="fill:none;stroke:#000000;stroke-width:1px;stroke-linecap:butt;stroke-linejoin:miter;stroke-opacity:1"
       d="m 169,446.59438 2,-2 7,0 -2,2"
       id="path9377"
       inkscape:connector-curvature="0" />
    <path
       inkscape:connector-curvature="0"
       id="path9379"
       d="m 169,446.59438 0,8 7,0 0,-8 -7,0"
       style="fill:none;stroke:#000000;stroke-width:1px;stroke-linecap:butt;stroke-linejoin:miter;stroke-opacity:1" />
    <path
       inkscape:connector-curvature="0"
       id="path9383"
       d="m 176.1072,446.59438 2,-2 7,0 -2,2"
       style="fill:none;stroke:#000000;stroke-width:1px;stroke-linecap:butt;stroke-linejoin:miter;stroke-opacity:1" />
    <path
       style="fill:none;stroke:#000000;stroke-width:1px;stroke-linecap:butt;stroke-linejoin:miter;stroke-opacity:1"
       d="m 176.1072,446.59438 0,8 7,0 0,-8 -7,0"
       id="path9385"
       inkscape:connector-curvature="0" />
    <path
       inkscape:connector-curvature="0"
       id="path9387"
       d="m 183,446.59438 2,-2 7,0 -2,2"
       style="fill:none;stroke:#000000;stroke-width:1px;stroke-linecap:butt;stroke-linejoin:miter;stroke-opacity:1" />
    <path
       style="fill:none;stroke:#000000;stroke-width:1px;stroke-linecap:butt;stroke-linejoin:miter;stroke-opacity:1"
       d="m 183,446.59438 0,8 7,0 0,-8 -7,0"
       id="path9389"
       inkscape:connector-curvature="0" />
    <path
       style="fill:none;stroke:#000000;stroke-width:1px;stroke-linecap:butt;stroke-linejoin:miter;stroke-opacity:1"
       d="m 190.1072,446.59438 2,-2 7,0 -2,2"
       id="path9391"
       inkscape:connector-curvature="0" />
    <path
       inkscape:connector-curvature="0"
       id="path9393"
       d="m 190.1072,446.59438 0,8 7,0 0,-8 -7,0"
       style="fill:none;stroke:#000000;stroke-width:1px;stroke-linecap:butt;stroke-linejoin:miter;stroke-opacity:1" />
    <path
       inkscape:connector-curvature="0"
       id="path9395"
       d="m 197,446.59438 2,-2 7,0 -2,2"
       style="fill:none;stroke:#000000;stroke-width:1px;stroke-linecap:butt;stroke-linejoin:miter;stroke-opacity:1" />
    <path
       style="fill:none;stroke:#000000;stroke-width:1px;stroke-linecap:butt;stroke-linejoin:miter;stroke-opacity:1"
       d="m 197,446.59438 0,8 7,0 0,-8 -7,0"
       id="path9397"
       inkscape:connector-curvature="0" />
    <path
       style="fill:none;stroke:#000000;stroke-width:1px;stroke-linecap:butt;stroke-linejoin:miter;stroke-opacity:1"
       d="m 204.1072,446.59438 2,-2 7,0 -2,2"
       id="path9399"
       inkscape:connector-curvature="0" />
    <path
       inkscape:connector-curvature="0"
       id="path9401"
       d="m 204.1072,446.59438 0,8 7,0 0,-8 -7,0"
       style="fill:none;stroke:#000000;stroke-width:1px;stroke-linecap:butt;stroke-linejoin:miter;stroke-opacity:1" />
    <path
       style="fill:none;stroke:#000000;stroke-width:1px;stroke-linecap:butt;stroke-linejoin:miter;stroke-opacity:1"
       d="m 211,446.59438 2,-2 7,0 -2,2"
       id="path9403"
       inkscape:connector-curvature="0" />
    <path
       inkscape:connector-curvature="0"
       id="path9405"
       d="m 211,446.59438 0,8 7,0 0,-8 -7,0"
       style="fill:none;stroke:#000000;stroke-width:1px;stroke-linecap:butt;stroke-linejoin:miter;stroke-opacity:1" />
    <path
       inkscape:connector-curvature="0"
       id="path9407"
       d="m 218.1072,446.59438 2,-2 7,0 -2,2"
       style="fill:none;stroke:#000000;stroke-width:1px;stroke-linecap:butt;stroke-linejoin:miter;stroke-opacity:1" />
    <path
       style="fill:none;stroke:#000000;stroke-width:1px;stroke-linecap:butt;stroke-linejoin:miter;stroke-opacity:1"
       d="m 218.1072,446.59438 0,8 7,0 0,-8 -7,0"
       id="path9409"
       inkscape:connector-curvature="0" />
    <path
       style="fill:none;stroke:#000000;stroke-width:1px;stroke-linecap:butt;stroke-linejoin:miter;stroke-opacity:1"
       d="m 228,444.36218 c 0,8 0,8 0,8"
       id="path9430"
       inkscape:connector-curvature="0" />
    <path
       style="fill:none;stroke:#000000;stroke-width:1px;stroke-linecap:butt;stroke-linejoin:miter;stroke-opacity:1"
       d="m 225.18744,454.79954 3,-3"
       id="path9447"
       inkscape:connector-curvature="0" />
    <path
       inkscape:connector-curvature="0"
       id="path9449"
       d="m 259,446.59438 2,-2 7,0 -2,2"
       style="fill:none;stroke:#000000;stroke-width:1px;stroke-linecap:butt;stroke-linejoin:miter;stroke-opacity:1" />
    <path
       style="fill:none;stroke:#000000;stroke-width:1px;stroke-linecap:butt;stroke-linejoin:miter;stroke-opacity:1"
       d="m 259,446.59438 0,8 7,0 0,-8 -7,0"
       id="path9451"
       inkscape:connector-curvature="0" />
    <path
       style="fill:none;stroke:#000000;stroke-width:1px;stroke-linecap:butt;stroke-linejoin:miter;stroke-opacity:1"
       d="m 266.1072,446.59438 2,-2 7,0 -2,2"
       id="path9453"
       inkscape:connector-curvature="0" />
    <path
       inkscape:connector-curvature="0"
       id="path9455"
       d="m 266.1072,446.59438 0,8 7,0 0,-8 -7,0"
       style="fill:none;stroke:#000000;stroke-width:1px;stroke-linecap:butt;stroke-linejoin:miter;stroke-opacity:1" />
    <path
       style="fill:none;stroke:#000000;stroke-width:1px;stroke-linecap:butt;stroke-linejoin:miter;stroke-opacity:1"
       d="m 273,446.59438 2,-2 7,0 -2,2"
       id="path9457"
       inkscape:connector-curvature="0" />
    <path
       inkscape:connector-curvature="0"
       id="path9459"
       d="m 273,446.59438 0,8 7,0 0,-8 -7,0"
       style="fill:none;stroke:#000000;stroke-width:1px;stroke-linecap:butt;stroke-linejoin:miter;stroke-opacity:1" />
    <path
       inkscape:connector-curvature="0"
       id="path9461"
       d="m 280.1072,446.59438 2,-2 7,0 -2,2"
       style="fill:none;stroke:#000000;stroke-width:1px;stroke-linecap:butt;stroke-linejoin:miter;stroke-opacity:1" />
    <path
       style="fill:none;stroke:#000000;stroke-width:1px;stroke-linecap:butt;stroke-linejoin:miter;stroke-opacity:1"
       d="m 280.1072,446.59438 0,8 7,0 0,-8 -7,0"
       id="path9463"
       inkscape:connector-curvature="0" />
    <path
       style="fill:none;stroke:#000000;stroke-width:1px;stroke-linecap:butt;stroke-linejoin:miter;stroke-opacity:1"
       d="m 287,446.59438 2,-2 7,0 -2,2"
       id="path9465"
       inkscape:connector-curvature="0" />
    <path
       inkscape:connector-curvature="0"
       id="path9467"
       d="m 287,446.59438 0,8 7,0 0,-8 -7,0"
       style="fill:none;stroke:#000000;stroke-width:1px;stroke-linecap:butt;stroke-linejoin:miter;stroke-opacity:1" />
    <path
       inkscape:connector-curvature="0"
       id="path9469"
       d="m 294.1072,446.59438 2,-2 7,0 -2,2"
       style="fill:none;stroke:#000000;stroke-width:1px;stroke-linecap:butt;stroke-linejoin:miter;stroke-opacity:1" />
    <path
       style="fill:none;stroke:#000000;stroke-width:1px;stroke-linecap:butt;stroke-linejoin:miter;stroke-opacity:1"
       d="m 294.1072,446.59438 0,8 7,0 0,-8 -7,0"
       id="path9471"
       inkscape:connector-curvature="0" />
    <path
       inkscape:connector-curvature="0"
       id="path9473"
       d="m 301,446.59438 2,-2 7,0 -2,2"
       style="fill:none;stroke:#000000;stroke-width:1px;stroke-linecap:butt;stroke-linejoin:miter;stroke-opacity:1" />
    <path
       style="fill:none;stroke:#000000;stroke-width:1px;stroke-linecap:butt;stroke-linejoin:miter;stroke-opacity:1"
       d="m 301,446.59438 0,8 7,0 0,-8 -7,0"
       id="path9475"
       inkscape:connector-curvature="0" />
    <path
       style="fill:none;stroke:#000000;stroke-width:1px;stroke-linecap:butt;stroke-linejoin:miter;stroke-opacity:1"
       d="m 308.1072,446.59438 2,-2 7,0 -2,2"
       id="path9477"
       inkscape:connector-curvature="0" />
    <path
       inkscape:connector-curvature="0"
       id="path9479"
       d="m 308.1072,446.59438 0,8 7,0 0,-8 -7,0"
       style="fill:none;stroke:#000000;stroke-width:1px;stroke-linecap:butt;stroke-linejoin:miter;stroke-opacity:1" />
    <path
       inkscape:connector-curvature="0"
       id="path9481"
       d="m 318,444.36218 c 0,8 0,8 0,8"
       style="fill:none;stroke:#000000;stroke-width:1px;stroke-linecap:butt;stroke-linejoin:miter;stroke-opacity:1" />
    <path
       inkscape:connector-curvature="0"
       id="path9483"
       d="m 315.18744,454.79954 3,-3"
       style="fill:none;stroke:#000000;stroke-width:1px;stroke-linecap:butt;stroke-linejoin:miter;stroke-opacity:1" />
    <path
       style="fill:none;stroke:#000000;stroke-width:1px;stroke-linecap:butt;stroke-linejoin:miter;stroke-opacity:1"
       d="m 349,446.59438 2,-2 7,0 -2,2"
       id="path9485"
       inkscape:connector-curvature="0" />
    <path
       inkscape:connector-curvature="0"
       id="path9487"
       d="m 349,446.59438 0,8 7,0 0,-8 -7,0"
       style="fill:none;stroke:#000000;stroke-width:1px;stroke-linecap:butt;stroke-linejoin:miter;stroke-opacity:1" />
    <path
       inkscape:connector-curvature="0"
       id="path9489"
       d="m 356.1072,446.59438 2,-2 7,0 -2,2"
       style="fill:none;stroke:#000000;stroke-width:1px;stroke-linecap:butt;stroke-linejoin:miter;stroke-opacity:1" />
    <path
       style="fill:none;stroke:#000000;stroke-width:1px;stroke-linecap:butt;stroke-linejoin:miter;stroke-opacity:1"
       d="m 356.1072,446.59438 0,8 7,0 0,-8 -7,0"
       id="path9491"
       inkscape:connector-curvature="0" />
    <path
       inkscape:connector-curvature="0"
       id="path9493"
       d="m 363,446.59438 2,-2 7,0 -2,2"
       style="fill:none;stroke:#000000;stroke-width:1px;stroke-linecap:butt;stroke-linejoin:miter;stroke-opacity:1" />
    <path
       style="fill:none;stroke:#000000;stroke-width:1px;stroke-linecap:butt;stroke-linejoin:miter;stroke-opacity:1"
       d="m 363,446.59438 0,8 7,0 0,-8 -7,0"
       id="path9495"
       inkscape:connector-curvature="0" />
    <path
       style="fill:none;stroke:#000000;stroke-width:1px;stroke-linecap:butt;stroke-linejoin:miter;stroke-opacity:1"
       d="m 370.1072,446.59438 2,-2 7,0 -2,2"
       id="path9497"
       inkscape:connector-curvature="0" />
    <path
       inkscape:connector-curvature="0"
       id="path9499"
       d="m 370.1072,446.59438 0,8 7,0 0,-8 -7,0"
       style="fill:none;stroke:#000000;stroke-width:1px;stroke-linecap:butt;stroke-linejoin:miter;stroke-opacity:1" />
    <path
       inkscape:connector-curvature="0"
       id="path9501"
       d="m 377,446.59438 2,-2 7,0 -2,2"
       style="fill:none;stroke:#000000;stroke-width:1px;stroke-linecap:butt;stroke-linejoin:miter;stroke-opacity:1" />
    <path
       style="fill:none;stroke:#000000;stroke-width:1px;stroke-linecap:butt;stroke-linejoin:miter;stroke-opacity:1"
       d="m 377,446.59438 0,8 7,0 0,-8 -7,0"
       id="path9503"
       inkscape:connector-curvature="0" />
    <path
       style="fill:none;stroke:#000000;stroke-width:1px;stroke-linecap:butt;stroke-linejoin:miter;stroke-opacity:1"
       d="m 384.1072,446.59438 2,-2 7,0 -2,2"
       id="path9505"
       inkscape:connector-curvature="0" />
    <path
       inkscape:connector-curvature="0"
       id="path9507"
       d="m 384.1072,446.59438 0,8 7,0 0,-8 -7,0"
       style="fill:none;stroke:#000000;stroke-width:1px;stroke-linecap:butt;stroke-linejoin:miter;stroke-opacity:1" />
    <path
       style="fill:none;stroke:#000000;stroke-width:1px;stroke-linecap:butt;stroke-linejoin:miter;stroke-opacity:1"
       d="m 391,446.59438 2,-2 7,0 -2,2"
       id="path9509"
       inkscape:connector-curvature="0" />
    <path
       inkscape:connector-curvature="0"
       id="path9511"
       d="m 391,446.59438 0,8 7,0 0,-8 -7,0"
       style="fill:none;stroke:#000000;stroke-width:1px;stroke-linecap:butt;stroke-linejoin:miter;stroke-opacity:1" />
    <path
       inkscape:connector-curvature="0"
       id="path9513"
       d="m 398.1072,446.59438 2,-2 7,0 -2,2"
       style="fill:none;stroke:#000000;stroke-width:1px;stroke-linecap:butt;stroke-linejoin:miter;stroke-opacity:1" />
    <path
       style="fill:none;stroke:#000000;stroke-width:1px;stroke-linecap:butt;stroke-linejoin:miter;stroke-opacity:1"
       d="m 398.1072,446.59438 0,8 7,0 0,-8 -7,0"
       id="path9515"
       inkscape:connector-curvature="0" />
    <path
       style="fill:none;stroke:#000000;stroke-width:1px;stroke-linecap:butt;stroke-linejoin:miter;stroke-opacity:1"
       d="m 408,444.36218 c 0,8 0,8 0,8"
       id="path9517"
       inkscape:connector-curvature="0" />
    <path
       style="fill:none;stroke:#000000;stroke-width:1px;stroke-linecap:butt;stroke-linejoin:miter;stroke-opacity:1"
       d="m 405.18744,454.79954 3,-3"
       id="path9519"
       inkscape:connector-curvature="0" />
    <path
       inkscape:connector-curvature="0"
       id="path9521"
       d="m 439,446.59438 2,-2 7,0 -2,2"
       style="fill:none;stroke:#000000;stroke-width:1px;stroke-linecap:butt;stroke-linejoin:miter;stroke-opacity:1" />
    <path
       style="fill:none;stroke:#000000;stroke-width:1px;stroke-linecap:butt;stroke-linejoin:miter;stroke-opacity:1"
       d="m 439,446.59438 0,8 7,0 0,-8 -7,0"
       id="path9523"
       inkscape:connector-curvature="0" />
    <path
       style="fill:none;stroke:#000000;stroke-width:1px;stroke-linecap:butt;stroke-linejoin:miter;stroke-opacity:1"
       d="m 446.1072,446.59438 2,-2 7,0 -2,2"
       id="path9525"
       inkscape:connector-curvature="0" />
    <path
       inkscape:connector-curvature="0"
       id="path9527"
       d="m 446.1072,446.59438 0,8 7,0 0,-8 -7,0"
       style="fill:none;stroke:#000000;stroke-width:1px;stroke-linecap:butt;stroke-linejoin:miter;stroke-opacity:1" />
    <path
       style="fill:none;stroke:#000000;stroke-width:1px;stroke-linecap:butt;stroke-linejoin:miter;stroke-opacity:1"
       d="m 453,446.59438 2,-2 7,0 -2,2"
       id="path9529"
       inkscape:connector-curvature="0" />
    <path
       inkscape:connector-curvature="0"
       id="path9531"
       d="m 453,446.59438 0,8 7,0 0,-8 -7,0"
       style="fill:none;stroke:#000000;stroke-width:1px;stroke-linecap:butt;stroke-linejoin:miter;stroke-opacity:1" />
    <path
       inkscape:connector-curvature="0"
       id="path9533"
       d="m 460.1072,446.59438 2,-2 7,0 -2,2"
       style="fill:none;stroke:#000000;stroke-width:1px;stroke-linecap:butt;stroke-linejoin:miter;stroke-opacity:1" />
    <path
       style="fill:none;stroke:#000000;stroke-width:1px;stroke-linecap:butt;stroke-linejoin:miter;stroke-opacity:1"
       d="m 460.1072,446.59438 0,8 7,0 0,-8 -7,0"
       id="path9535"
       inkscape:connector-curvature="0" />
    <path
       style="fill:none;stroke:#000000;stroke-width:1px;stroke-linecap:butt;stroke-linejoin:miter;stroke-opacity:1"
       d="m 467,446.59438 2,-2 7,0 -2,2"
       id="path9537"
       inkscape:connector-curvature="0" />
    <path
       inkscape:connector-curvature="0"
       id="path9539"
       d="m 467,446.59438 0,8 7,0 0,-8 -7,0"
       style="fill:none;stroke:#000000;stroke-width:1px;stroke-linecap:butt;stroke-linejoin:miter;stroke-opacity:1" />
    <path
       inkscape:connector-curvature="0"
       id="path9541"
       d="m 474.1072,446.59438 2,-2 7,0 -2,2"
       style="fill:none;stroke:#000000;stroke-width:1px;stroke-linecap:butt;stroke-linejoin:miter;stroke-opacity:1" />
    <path
       style="fill:none;stroke:#000000;stroke-width:1px;stroke-linecap:butt;stroke-linejoin:miter;stroke-opacity:1"
       d="m 474.1072,446.59438 0,8 7,0 0,-8 -7,0"
       id="path9543"
       inkscape:connector-curvature="0" />
    <path
       inkscape:connector-curvature="0"
       id="path9545"
       d="m 481,446.59438 2,-2 7,0 -2,2"
       style="fill:none;stroke:#000000;stroke-width:1px;stroke-linecap:butt;stroke-linejoin:miter;stroke-opacity:1" />
    <path
       style="fill:none;stroke:#000000;stroke-width:1px;stroke-linecap:butt;stroke-linejoin:miter;stroke-opacity:1"
       d="m 481,446.59438 0,8 7,0 0,-8 -7,0"
       id="path9547"
       inkscape:connector-curvature="0" />
    <path
       style="fill:none;stroke:#000000;stroke-width:1px;stroke-linecap:butt;stroke-linejoin:miter;stroke-opacity:1"
       d="m 488.1072,446.59438 2,-2 7,0 -2,2"
       id="path9549"
       inkscape:connector-curvature="0" />
    <path
       inkscape:connector-curvature="0"
       id="path9551"
       d="m 488.1072,446.59438 0,8 7,0 0,-8 -7,0"
       style="fill:none;stroke:#000000;stroke-width:1px;stroke-linecap:butt;stroke-linejoin:miter;stroke-opacity:1" />
    <path
       inkscape:connector-curvature="0"
       id="path9553"
       d="m 498,444.36218 c 0,8 0,8 0,8"
       style="fill:none;stroke:#000000;stroke-width:1px;stroke-linecap:butt;stroke-linejoin:miter;stroke-opacity:1" />
    <path
       inkscape:connector-curvature="0"
       id="path9555"
       d="m 495.18744,454.79954 3,-3"
       style="fill:none;stroke:#000000;stroke-width:1px;stroke-linecap:butt;stroke-linejoin:miter;stroke-opacity:1" />
    <flowRoot
       xml:space="preserve"
       id="flowRoot9557"
       style="font-size:20px;font-style:normal;font-variant:normal;font-weight:normal;font-stretch:normal;line-height:125%;letter-spacing:0px;word-spacing:0px;fill:#000000;fill-opacity:1;stroke:none;font-family:Latin Modern Math;-inkscape-font-specification:Latin Modern Math"
       transform="matrix(0.58036623,0,0,0.58036623,232.87256,147.9059)"><flowRegion
         id="flowRegion9559"><rect
           id="rect9561"
           width="273.48724"
           height="124.88444"
           x="536.5"
           y="356.86218" /></flowRegion><flowPara
         id="flowPara9565">A line of subdomains,</flowPara><flowPara
         id="flowPara11078">each subdomain mapped to</flowPara><flowPara
         id="flowPara11080">a <flowSpan
   style="font-style:italic"
   id="flowSpan11082">process</flowSpan></flowPara><flowPara
         id="flowPara9567" /></flowRoot>    <flowRoot
       xml:space="preserve"
       id="flowRoot9569"
       style="font-size:20px;font-style:normal;font-variant:normal;font-weight:normal;font-stretch:normal;line-height:125%;letter-spacing:0px;word-spacing:0px;fill:#000000;fill-opacity:1;stroke:none;font-family:Latin Modern Math;-inkscape-font-specification:Latin Modern Math"
       transform="matrix(0.56616052,0,0,0.56616052,253.31846,185.63071)"><flowRegion
         id="flowRegion9571"><rect
           id="rect9573"
           width="266.19861"
           height="124.7007"
           x="511"
           y="447.36218" /></flowRegion><flowPara
         id="flowPara9575">A single grid line</flowPara><flowPara
         id="flowPara11072">distributed among processes</flowPara></flowRoot>    <g
       transform="matrix(0.37696698,0,0,0.37696698,75.5524,185.73138)"
       id="g7953">
      <g
         style="font-style:normal;font-variant:normal;font-weight:normal;font-stretch:normal;letter-spacing:normal;word-spacing:normal;text-anchor:start;fill:none;stroke:#000000;stroke-linecap:butt;stroke-linejoin:miter;stroke-miterlimit:10.43299961;stroke-opacity:1;stroke-dasharray:none;stroke-dashoffset:0"
         word-spacing="normal"
         letter-spacing="normal"
         font-size-adjust="none"
         font-stretch="normal"
         font-weight="normal"
         font-variant="normal"
         font-style="normal"
         stroke-miterlimit="10.433"
         xml:space="preserve"
         transform="matrix(1.0629921,0,0,-1.0629921,-186.02362,789.27165)"
         id="content"><path
           style="fill:#000000;stroke-width:0"
           inkscape:connector-curvature="0"
           id="path7956"
           d="m 457.75,400.12 -0.03,-0.15 -0.04,-0.15 -0.03,-0.14 -0.03,-0.13 -0.04,-0.13 -0.03,-0.11 -0.04,-0.12 -0.03,-0.1 -0.04,-0.1 -0.04,-0.09 -0.04,-0.09 -0.05,-0.08 -0.05,-0.07 -0.05,-0.07 -0.06,-0.07 -0.06,-0.06 -0.07,-0.05 -0.07,-0.05 -0.08,-0.04 -0.09,-0.04 -0.09,-0.04 -0.1,-0.03 -0.11,-0.03 -0.12,-0.02 -0.13,-0.02 -0.06,-0.01 -0.07,-0.01 -0.07,-0.01 -0.08,-0.01 -0.07,0 -0.08,-0.01 -0.08,0 -0.09,-0.01 -0.08,0 -0.09,0 -0.1,0 -0.09,0 -0.1,-0.01 -0.1,0 c -0.6,0 -1.14,0 -1.14,-0.93 0,-0.41 0.25,-0.61 0.64,-0.61 1.36,0 2.79,0.15 4.18,0.15 1.64,0 3.35,-0.15 4.94,-0.15 0.25,0 0.89,0 0.89,1 0,0.54 -0.5,0.54 -1.19,0.54 -2.5,0 -2.5,0.36 -2.5,0.8 0,0.61 2.1,8.72 2.46,9.97 0.64,-1.44 2.03,-3.19 4.58,-3.19 l -0.05,1.1 c -3.3,0 -3.94,4.14 -3.94,4.43 0,0.1 0,0.21 0.14,0.8 l 2.46,9.77 c 0.34,1.34 1.68,2.73 2.57,3.48 1.75,1.55 3.21,1.89 4.05,1.89 1.98,0 3.19,-1.73 3.19,-4.69 0,-2.93 -1.64,-8.65 -2.55,-10.56 -1.69,-3.48 -4.08,-5.12 -5.92,-5.12 l 0.05,-1.1 c 5.78,0 12,7.27 12,14.6 0,4.68 -2.83,7.96 -6.63,7.96 -2.48,0 -4.87,-1.78 -6.51,-3.73 -0.5,2.69 -2.65,3.73 -4.49,3.73 -2.3,0 -3.25,-1.93 -3.69,-2.82 -0.9,-1.71 -1.54,-4.69 -1.54,-4.85 0,-0.5 0.5,-0.5 0.59,-0.5 0.5,0 0.55,0.07 0.84,1.16 0.86,3.53 1.85,5.92 3.64,5.92 0.85,0 1.55,-0.39 1.55,-2.28 0,-1.16 -0.15,-1.7 -0.34,-2.55 z" /><path
           style="fill:#000000;stroke-width:0"
           inkscape:connector-curvature="0"
           id="path7958"
           d="m 528.75,422.5 0.14,0 0.15,0 0.14,0 0.07,0.01 0.08,0 0.07,0.01 0.07,0.01 0.07,0.01 0.07,0.01 0.07,0.01 0.06,0.02 0.07,0.02 0.06,0.02 0.06,0.02 0.06,0.03 0.06,0.03 0.05,0.04 0.05,0.03 0.05,0.05 0.04,0.04 0.04,0.05 0.02,0.03 0.02,0.03 0.01,0.02 0.02,0.03 0.01,0.03 0.02,0.04 0.01,0.03 0.01,0.04 0.01,0.03 0.01,0.04 0,0.04 0.01,0.04 0,0.04 0.01,0.04 0,0.04 0,0.05 c 0,1 -0.95,1 -1.64,1 h -29.84 c -0.71,0 -1.64,0 -1.64,-1 0,-0.98 0.93,-0.98 1.68,-0.98 z" /><path
           style="fill:#000000;stroke-width:0"
           inkscape:connector-curvature="0"
           id="path7960"
           d="m 528.8,412.82 0.07,0 0.06,0 0.14,0.01 0.14,0 0.07,0 0.07,0.01 0.07,0.01 0.07,0 0.06,0.01 0.07,0.02 0.07,0.01 0.06,0.02 0.07,0.02 0.06,0.02 0.06,0.02 0.06,0.03 0.05,0.03 0.05,0.04 0.05,0.04 0.05,0.04 0.04,0.05 0.02,0.02 0.02,0.03 0.02,0.02 0.02,0.03 0.01,0.03 0.02,0.03 0.01,0.03 0.02,0.03 0.01,0.04 0.01,0.03 0.01,0.04 0.01,0.04 0,0.04 0.01,0.04 0,0.04 0.01,0.04 0,0.05 0,0.04 c 0,1 -0.95,1 -1.69,1 H 499 c -0.75,0 -1.68,0 -1.68,-1 0,-1 0.93,-1 1.64,-1 z" /><path
           style="fill:#000000;stroke-width:0"
           inkscape:connector-curvature="0"
           id="path7962"
           d="m 570,422.14 -0.01,0.74 -0.01,0.75 -0.02,0.75 -0.03,0.74 -0.05,0.75 -0.06,0.74 -0.07,0.74 -0.1,0.73 -0.11,0.73 -0.14,0.73 -0.16,0.72 -0.19,0.72 -0.22,0.72 -0.25,0.7 -0.27,0.7 -0.15,0.35 -0.16,0.34 c -2.28,4.8 -6.38,5.6 -8.47,5.6 -2.99,0 -6.63,-1.3 -8.68,-5.94 -1.59,-3.44 -1.84,-7.33 -1.84,-11.31 0,-3.74 0.21,-8.22 2.25,-12 2.14,-4.03 5.78,-5.03 8.22,-5.03 v 1.09 c -1.94,0 -4.89,1.25 -5.78,6.03 -0.55,2.98 -0.55,7.56 -0.55,10.52 0,3.18 0,6.46 0.41,9.15 0.94,5.94 4.67,6.38 5.92,6.38 1.64,0 4.94,-0.89 5.87,-5.83 0.5,-2.78 0.5,-6.58 0.5,-9.7 0,-3.75 0,-7.13 -0.54,-10.32 -0.75,-4.73 -3.59,-6.23 -5.83,-6.23 h 0 v -1.09 c 2.69,0 6.47,1.04 8.67,5.78 1.6,3.43 1.85,7.31 1.85,11.25 z" /></g>    </g>
    <g
       transform="matrix(0.37696698,0,0,0.37696698,172.01204,185.73138)"
       id="g8136">
      <g
         style="font-style:normal;font-variant:normal;font-weight:normal;font-stretch:normal;letter-spacing:normal;word-spacing:normal;text-anchor:start;fill:none;stroke:#000000;stroke-linecap:butt;stroke-linejoin:miter;stroke-miterlimit:10.43299961;stroke-opacity:1;stroke-dasharray:none;stroke-dashoffset:0"
         id="g8138"
         transform="matrix(1.0629921,0,0,-1.0629921,-186.02362,789.27165)"
         xml:space="preserve"
         stroke-miterlimit="10.433"
         font-style="normal"
         font-variant="normal"
         font-weight="normal"
         font-stretch="normal"
         font-size-adjust="none"
         letter-spacing="normal"
         word-spacing="normal"><path
           style="fill:#000000;stroke-width:0"
           inkscape:connector-curvature="0"
           d="m 457.75,400.12 -0.03,-0.15 -0.04,-0.15 -0.03,-0.14 -0.03,-0.13 -0.04,-0.13 -0.03,-0.11 -0.04,-0.12 -0.03,-0.1 -0.04,-0.1 -0.04,-0.09 -0.04,-0.09 -0.05,-0.08 -0.05,-0.07 -0.05,-0.07 -0.06,-0.07 -0.06,-0.06 -0.07,-0.05 -0.07,-0.05 -0.08,-0.04 -0.09,-0.04 -0.09,-0.04 -0.1,-0.03 -0.11,-0.03 -0.12,-0.02 -0.13,-0.02 -0.06,-0.01 -0.07,-0.01 -0.07,-0.01 -0.08,-0.01 -0.07,0 -0.08,-0.01 -0.08,0 -0.09,-0.01 -0.08,0 -0.09,0 -0.1,0 -0.09,0 -0.1,-0.01 -0.1,0 c -0.6,0 -1.14,0 -1.14,-0.93 0,-0.41 0.25,-0.61 0.64,-0.61 1.36,0 2.79,0.15 4.18,0.15 1.64,0 3.35,-0.15 4.94,-0.15 0.25,0 0.89,0 0.89,1 0,0.54 -0.5,0.54 -1.19,0.54 -2.5,0 -2.5,0.36 -2.5,0.8 0,0.61 2.1,8.72 2.46,9.97 0.64,-1.44 2.03,-3.19 4.58,-3.19 l -0.05,1.1 c -3.3,0 -3.94,4.14 -3.94,4.43 0,0.1 0,0.21 0.14,0.8 l 2.46,9.77 c 0.34,1.34 1.68,2.73 2.57,3.48 1.75,1.55 3.21,1.89 4.05,1.89 1.98,0 3.19,-1.73 3.19,-4.69 0,-2.93 -1.64,-8.65 -2.55,-10.56 -1.69,-3.48 -4.08,-5.12 -5.92,-5.12 l 0.05,-1.1 c 5.78,0 12,7.27 12,14.6 0,4.68 -2.83,7.96 -6.63,7.96 -2.48,0 -4.87,-1.78 -6.51,-3.73 -0.5,2.69 -2.65,3.73 -4.49,3.73 -2.3,0 -3.25,-1.93 -3.69,-2.82 -0.9,-1.71 -1.54,-4.69 -1.54,-4.85 0,-0.5 0.5,-0.5 0.59,-0.5 0.5,0 0.55,0.07 0.84,1.16 0.86,3.53 1.85,5.92 3.64,5.92 0.85,0 1.55,-0.39 1.55,-2.28 0,-1.16 -0.15,-1.7 -0.34,-2.55 z"
           id="path8140" /><path
           style="fill:#000000;stroke-width:0"
           inkscape:connector-curvature="0"
           d="m 528.75,422.5 0.14,0 0.15,0 0.14,0 0.07,0.01 0.08,0 0.07,0.01 0.07,0.01 0.07,0.01 0.07,0.01 0.07,0.01 0.06,0.02 0.07,0.02 0.06,0.02 0.06,0.02 0.06,0.03 0.06,0.03 0.05,0.04 0.05,0.03 0.05,0.05 0.04,0.04 0.04,0.05 0.02,0.03 0.02,0.03 0.01,0.02 0.02,0.03 0.01,0.03 0.02,0.04 0.01,0.03 0.01,0.04 0.01,0.03 0.01,0.04 0,0.04 0.01,0.04 0,0.04 0.01,0.04 0,0.04 0,0.05 c 0,1 -0.95,1 -1.64,1 h -29.84 c -0.71,0 -1.64,0 -1.64,-1 0,-0.98 0.93,-0.98 1.68,-0.98 z"
           id="path8142" /><path
           style="fill:#000000;stroke-width:0"
           inkscape:connector-curvature="0"
           d="m 528.8,412.82 0.07,0 0.06,0 0.14,0.01 0.14,0 0.07,0 0.07,0.01 0.07,0.01 0.07,0 0.06,0.01 0.07,0.02 0.07,0.01 0.06,0.02 0.07,0.02 0.06,0.02 0.06,0.02 0.06,0.03 0.05,0.03 0.05,0.04 0.05,0.04 0.05,0.04 0.04,0.05 0.02,0.02 0.02,0.03 0.02,0.02 0.02,0.03 0.01,0.03 0.02,0.03 0.01,0.03 0.02,0.03 0.01,0.04 0.01,0.03 0.01,0.04 0.01,0.04 0,0.04 0.01,0.04 0,0.04 0.01,0.04 0,0.05 0,0.04 c 0,1 -0.95,1 -1.69,1 H 499 c -0.75,0 -1.68,0 -1.68,-1 0,-1 0.93,-1 1.64,-1 z"
           id="path8144" /><path
           style="fill:#000000;stroke-width:0"
           inkscape:connector-curvature="0"
           d="m 561.72,438.09 0,0.05 -0.01,0.06 0,0.05 0,0.05 0,0.05 0,0.05 0,0.04 0,0.05 0,0.04 0,0.04 0,0.04 0,0.04 0,0.04 -0.01,0.03 0,0.04 0,0.03 -0.01,0.07 -0.01,0.06 -0.01,0.05 -0.02,0.05 -0.01,0.05 -0.02,0.04 -0.02,0.04 -0.03,0.03 -0.03,0.03 -0.03,0.03 -0.03,0.03 -0.04,0.02 -0.05,0.02 -0.02,0.01 -0.03,0.01 -0.02,0 -0.03,0.01 -0.03,0.01 -0.03,0 -0.03,0.01 -0.03,0 -0.03,0.01 -0.04,0 -0.03,0 -0.04,0.01 -0.04,0 -0.04,0 -0.04,0 -0.04,0 -0.05,0 -0.05,0.01 -0.04,0 -0.05,0 -0.05,0 -0.06,0 c -3.09,-3.19 -7.47,-3.19 -9.06,-3.19 v -1.55 c 1,0 3.94,0 6.52,1.3 v -25.81 c 0,-1.8 -0.14,-2.39 -4.63,-2.39 h -1.59 v -1.55 c 1.75,0.16 6.08,0.16 8.06,0.16 2,0 6.33,0 8.08,-0.16 v 1.55 h -1.6 c -4.48,0 -4.63,0.54 -4.63,2.39 z"
           id="path8146" /></g>    </g>
    <g
       transform="matrix(0.37696698,0,0,0.37696698,257.97515,185.73138)"
       id="g8332">
      <g
         style="font-style:normal;font-variant:normal;font-weight:normal;font-stretch:normal;letter-spacing:normal;word-spacing:normal;text-anchor:start;fill:none;stroke:#000000;stroke-linecap:butt;stroke-linejoin:miter;stroke-miterlimit:10.43299961;stroke-opacity:1;stroke-dasharray:none;stroke-dashoffset:0"
         word-spacing="normal"
         letter-spacing="normal"
         font-size-adjust="none"
         font-stretch="normal"
         font-weight="normal"
         font-variant="normal"
         font-style="normal"
         stroke-miterlimit="10.433"
         xml:space="preserve"
         transform="matrix(1.0629921,0,0,-1.0629921,-186.02362,789.27165)"
         id="g8334"><path
           style="fill:#000000;stroke-width:0"
           inkscape:connector-curvature="0"
           id="path8336"
           d="m 457.75,400.12 -0.03,-0.15 -0.04,-0.15 -0.03,-0.14 -0.03,-0.13 -0.04,-0.13 -0.03,-0.11 -0.04,-0.12 -0.03,-0.1 -0.04,-0.1 -0.04,-0.09 -0.04,-0.09 -0.05,-0.08 -0.05,-0.07 -0.05,-0.07 -0.06,-0.07 -0.06,-0.06 -0.07,-0.05 -0.07,-0.05 -0.08,-0.04 -0.09,-0.04 -0.09,-0.04 -0.1,-0.03 -0.11,-0.03 -0.12,-0.02 -0.13,-0.02 -0.06,-0.01 -0.07,-0.01 -0.07,-0.01 -0.08,-0.01 -0.07,0 -0.08,-0.01 -0.08,0 -0.09,-0.01 -0.08,0 -0.09,0 -0.1,0 -0.09,0 -0.1,-0.01 -0.1,0 c -0.6,0 -1.14,0 -1.14,-0.93 0,-0.41 0.25,-0.61 0.64,-0.61 1.36,0 2.79,0.15 4.18,0.15 1.64,0 3.35,-0.15 4.94,-0.15 0.25,0 0.89,0 0.89,1 0,0.54 -0.5,0.54 -1.19,0.54 -2.5,0 -2.5,0.36 -2.5,0.8 0,0.61 2.1,8.72 2.46,9.97 0.64,-1.44 2.03,-3.19 4.58,-3.19 l -0.05,1.1 c -3.3,0 -3.94,4.14 -3.94,4.43 0,0.1 0,0.21 0.14,0.8 l 2.46,9.77 c 0.34,1.34 1.68,2.73 2.57,3.48 1.75,1.55 3.21,1.89 4.05,1.89 1.98,0 3.19,-1.73 3.19,-4.69 0,-2.93 -1.64,-8.65 -2.55,-10.56 -1.69,-3.48 -4.08,-5.12 -5.92,-5.12 l 0.05,-1.1 c 5.78,0 12,7.27 12,14.6 0,4.68 -2.83,7.96 -6.63,7.96 -2.48,0 -4.87,-1.78 -6.51,-3.73 -0.5,2.69 -2.65,3.73 -4.49,3.73 -2.3,0 -3.25,-1.93 -3.69,-2.82 -0.9,-1.71 -1.54,-4.69 -1.54,-4.85 0,-0.5 0.5,-0.5 0.59,-0.5 0.5,0 0.55,0.07 0.84,1.16 0.86,3.53 1.85,5.92 3.64,5.92 0.85,0 1.55,-0.39 1.55,-2.28 0,-1.16 -0.15,-1.7 -0.34,-2.55 z" /><path
           style="fill:#000000;stroke-width:0"
           inkscape:connector-curvature="0"
           id="path8338"
           d="m 528.75,422.5 0.14,0 0.15,0 0.14,0 0.07,0.01 0.08,0 0.07,0.01 0.07,0.01 0.07,0.01 0.07,0.01 0.07,0.01 0.06,0.02 0.07,0.02 0.06,0.02 0.06,0.02 0.06,0.03 0.06,0.03 0.05,0.04 0.05,0.03 0.05,0.05 0.04,0.04 0.04,0.05 0.02,0.03 0.02,0.03 0.01,0.02 0.02,0.03 0.01,0.03 0.02,0.04 0.01,0.03 0.01,0.04 0.01,0.03 0.01,0.04 0,0.04 0.01,0.04 0,0.04 0.01,0.04 0,0.04 0,0.05 c 0,1 -0.95,1 -1.64,1 h -29.84 c -0.71,0 -1.64,0 -1.64,-1 0,-0.98 0.93,-0.98 1.68,-0.98 z" /><path
           style="fill:#000000;stroke-width:0"
           inkscape:connector-curvature="0"
           id="path8340"
           d="m 528.8,412.82 0.07,0 0.06,0 0.14,0.01 0.14,0 0.07,0 0.07,0.01 0.07,0.01 0.07,0 0.06,0.01 0.07,0.02 0.07,0.01 0.06,0.02 0.07,0.02 0.06,0.02 0.06,0.02 0.06,0.03 0.05,0.03 0.05,0.04 0.05,0.04 0.05,0.04 0.04,0.05 0.02,0.02 0.02,0.03 0.02,0.02 0.02,0.03 0.01,0.03 0.02,0.03 0.01,0.03 0.02,0.03 0.01,0.04 0.01,0.03 0.01,0.04 0.01,0.04 0,0.04 0.01,0.04 0,0.04 0.01,0.04 0,0.05 0,0.04 c 0,1 -0.95,1 -1.69,1 H 499 c -0.75,0 -1.68,0 -1.68,-1 0,-1 0.93,-1 1.64,-1 z" /><path
           style="fill:#000000;stroke-width:0"
           inkscape:connector-curvature="0"
           id="path8342"
           d="m 553.4,410.04 5.28,5.13 c 7.77,6.87 10.77,9.56 10.77,14.54 0,5.69 -4.48,9.68 -10.56,9.68 -5.64,0 -9.33,-4.6 -9.33,-9.03 0,-2.79 2.5,-2.79 2.64,-2.79 0.86,0 2.59,0.6 2.59,2.64 0,1.3 -0.89,2.6 -2.64,2.6 -0.39,0 -0.5,0 -0.64,-0.05 1.14,3.24 3.83,5.08 6.72,5.08 4.53,0 6.69,-4.05 6.69,-8.13 0,-3.98 -2.5,-7.92 -5.24,-11.01 l -9.56,-10.66 c -0.56,-0.54 -0.56,-0.64 -0.56,-1.84 h 18.48 l 1.41,8.67 h -1.25 c -0.25,-1.5 -0.6,-3.69 -1.1,-4.44 -0.35,-0.39 -3.63,-0.39 -4.73,-0.39 z" /></g>    </g>
    <g
       transform="matrix(0.37696698,0,0,0.37696698,352.94158,185.73138)"
       id="g8540">
      <g
         style="font-style:normal;font-variant:normal;font-weight:normal;font-stretch:normal;letter-spacing:normal;word-spacing:normal;text-anchor:start;fill:none;stroke:#000000;stroke-linecap:butt;stroke-linejoin:miter;stroke-miterlimit:10.43299961;stroke-opacity:1;stroke-dasharray:none;stroke-dashoffset:0"
         id="g8542"
         transform="matrix(1.0629921,0,0,-1.0629921,-186.02362,789.27165)"
         xml:space="preserve"
         stroke-miterlimit="10.433"
         font-style="normal"
         font-variant="normal"
         font-weight="normal"
         font-stretch="normal"
         font-size-adjust="none"
         letter-spacing="normal"
         word-spacing="normal"><path
           style="fill:#000000;stroke-width:0"
           inkscape:connector-curvature="0"
           d="m 457.75,400.12 -0.03,-0.15 -0.04,-0.15 -0.03,-0.14 -0.03,-0.13 -0.04,-0.13 -0.03,-0.11 -0.04,-0.12 -0.03,-0.1 -0.04,-0.1 -0.04,-0.09 -0.04,-0.09 -0.05,-0.08 -0.05,-0.07 -0.05,-0.07 -0.06,-0.07 -0.06,-0.06 -0.07,-0.05 -0.07,-0.05 -0.08,-0.04 -0.09,-0.04 -0.09,-0.04 -0.1,-0.03 -0.11,-0.03 -0.12,-0.02 -0.13,-0.02 -0.06,-0.01 -0.07,-0.01 -0.07,-0.01 -0.08,-0.01 -0.07,0 -0.08,-0.01 -0.08,0 -0.09,-0.01 -0.08,0 -0.09,0 -0.1,0 -0.09,0 -0.1,-0.01 -0.1,0 c -0.6,0 -1.14,0 -1.14,-0.93 0,-0.41 0.25,-0.61 0.64,-0.61 1.36,0 2.79,0.15 4.18,0.15 1.64,0 3.35,-0.15 4.94,-0.15 0.25,0 0.89,0 0.89,1 0,0.54 -0.5,0.54 -1.19,0.54 -2.5,0 -2.5,0.36 -2.5,0.8 0,0.61 2.1,8.72 2.46,9.97 0.64,-1.44 2.03,-3.19 4.58,-3.19 l -0.05,1.1 c -3.3,0 -3.94,4.14 -3.94,4.43 0,0.1 0,0.21 0.14,0.8 l 2.46,9.77 c 0.34,1.34 1.68,2.73 2.57,3.48 1.75,1.55 3.21,1.89 4.05,1.89 1.98,0 3.19,-1.73 3.19,-4.69 0,-2.93 -1.64,-8.65 -2.55,-10.56 -1.69,-3.48 -4.08,-5.12 -5.92,-5.12 l 0.05,-1.1 c 5.78,0 12,7.27 12,14.6 0,4.68 -2.83,7.96 -6.63,7.96 -2.48,0 -4.87,-1.78 -6.51,-3.73 -0.5,2.69 -2.65,3.73 -4.49,3.73 -2.3,0 -3.25,-1.93 -3.69,-2.82 -0.9,-1.71 -1.54,-4.69 -1.54,-4.85 0,-0.5 0.5,-0.5 0.59,-0.5 0.5,0 0.55,0.07 0.84,1.16 0.86,3.53 1.85,5.92 3.64,5.92 0.85,0 1.55,-0.39 1.55,-2.28 0,-1.16 -0.15,-1.7 -0.34,-2.55 z"
           id="path8544" /><path
           style="fill:#000000;stroke-width:0"
           inkscape:connector-curvature="0"
           d="m 528.75,422.5 0.14,0 0.15,0 0.14,0 0.07,0.01 0.08,0 0.07,0.01 0.07,0.01 0.07,0.01 0.07,0.01 0.07,0.01 0.06,0.02 0.07,0.02 0.06,0.02 0.06,0.02 0.06,0.03 0.06,0.03 0.05,0.04 0.05,0.03 0.05,0.05 0.04,0.04 0.04,0.05 0.02,0.03 0.02,0.03 0.01,0.02 0.02,0.03 0.01,0.03 0.02,0.04 0.01,0.03 0.01,0.04 0.01,0.03 0.01,0.04 0,0.04 0.01,0.04 0,0.04 0.01,0.04 0,0.04 0,0.05 c 0,1 -0.95,1 -1.64,1 h -29.84 c -0.71,0 -1.64,0 -1.64,-1 0,-0.98 0.93,-0.98 1.68,-0.98 z"
           id="path8546" /><path
           style="fill:#000000;stroke-width:0"
           inkscape:connector-curvature="0"
           d="m 528.8,412.82 0.07,0 0.06,0 0.14,0.01 0.14,0 0.07,0 0.07,0.01 0.07,0.01 0.07,0 0.06,0.01 0.07,0.02 0.07,0.01 0.06,0.02 0.07,0.02 0.06,0.02 0.06,0.02 0.06,0.03 0.05,0.03 0.05,0.04 0.05,0.04 0.05,0.04 0.04,0.05 0.02,0.02 0.02,0.03 0.02,0.02 0.02,0.03 0.01,0.03 0.02,0.03 0.01,0.03 0.02,0.03 0.01,0.04 0.01,0.03 0.01,0.04 0.01,0.04 0,0.04 0.01,0.04 0,0.04 0.01,0.04 0,0.05 0,0.04 c 0,1 -0.95,1 -1.69,1 H 499 c -0.75,0 -1.68,0 -1.68,-1 0,-1 0.93,-1 1.64,-1 z"
           id="path8548" /><path
           style="fill:#000000;stroke-width:0"
           inkscape:connector-curvature="0"
           d="m 561.53,423.73 0.38,0.13 0.37,0.15 0.36,0.15 0.36,0.17 0.35,0.18 0.33,0.19 0.33,0.2 0.33,0.22 0.31,0.22 0.3,0.23 0.29,0.24 0.28,0.25 0.28,0.26 0.26,0.27 0.24,0.27 0.24,0.29 0.23,0.29 0.21,0.3 0.2,0.3 0.19,0.32 0.17,0.32 0.16,0.32 0.15,0.33 0.13,0.34 0.12,0.34 0.1,0.34 0.09,0.35 0.07,0.36 0.06,0.36 0.04,0.36 0.03,0.36 0.01,0.37 c 0,4.08 -4.4,6.88 -9.18,6.88 -5.03,0 -8.81,-3 -8.81,-6.78 0,-1.65 1.09,-2.6 2.55,-2.6 1.53,0 2.53,1.1 2.53,2.55 0,2.48 -2.34,2.48 -3.08,2.48 1.53,2.44 4.83,3.1 6.63,3.1 2.03,0 4.78,-1.1 4.78,-5.58 0,-0.61 -0.11,-3.49 -1.41,-5.69 -1.48,-2.39 -3.19,-2.53 -4.42,-2.59 -0.41,-0.05 -1.59,-0.14 -1.95,-0.14 -0.39,-0.05 -0.75,-0.1 -0.75,-0.6 0,-0.54 0.36,-0.54 1.2,-0.54 h 2.19 c 4.09,0 5.94,-3.39 5.94,-8.29 0,-6.76 -3.44,-8.21 -5.65,-8.21 -2.14,0 -5.87,0.84 -7.6,3.78 1.73,-0.24 3.28,0.86 3.28,2.75 0,1.79 -1.35,2.78 -2.8,2.78 -1.19,0 -2.78,-0.69 -2.78,-2.89 0,-4.53 4.62,-7.81 10.06,-7.81 6.08,0 10.61,4.53 10.61,9.6 0,4.1 -3.14,7.97 -8.31,9.02 z"
           id="path8550" /></g>    </g>
  </g>
</svg>
