<?xml version="1.0" encoding="UTF-8" standalone="no"?>
<!-- Created with Inkscape (http://www.inkscape.org/) -->

<svg
   xmlns:dc="http://purl.org/dc/elements/1.1/"
   xmlns:cc="http://creativecommons.org/ns#"
   xmlns:rdf="http://www.w3.org/1999/02/22-rdf-syntax-ns#"
   xmlns:svg="http://www.w3.org/2000/svg"
   xmlns="http://www.w3.org/2000/svg"
   xmlns:sodipodi="http://sodipodi.sourceforge.net/DTD/sodipodi-0.dtd"
   xmlns:inkscape="http://www.inkscape.org/namespaces/inkscape"
   width="744.09448819"
   height="1052.3622047"
   id="svg5834"
   version="1.1"
   inkscape:version="0.48.4 r9939"
   sodipodi:docname="compact-distributed-restricted.eps">
  <defs
     id="defs5836">
    <inkscape:path-effect
       nr_y="4"
       nr_x="4"
       is_visible="true"
       id="path-effect3108"
       effect="construct_grid" />
    <inkscape:path-effect
       effect="construct_grid"
       id="path-effect3110"
       is_visible="true"
       nr_x="4"
       nr_y="4" />
    <inkscape:path-effect
       effect="construct_grid"
       id="path-effect3118"
       is_visible="true"
       nr_x="4"
       nr_y="4" />
    <inkscape:path-effect
       nr_y="4"
       nr_x="4"
       is_visible="true"
       id="path-effect3120"
       effect="construct_grid" />
    <inkscape:path-effect
       nr_y="4"
       nr_x="4"
       is_visible="true"
       id="path-effect3128"
       effect="construct_grid" />
    <inkscape:path-effect
       effect="construct_grid"
       id="path-effect3130"
       is_visible="true"
       nr_x="4"
       nr_y="4" />
    <inkscape:path-effect
       effect="construct_grid"
       id="path-effect3138"
       is_visible="true"
       nr_x="4"
       nr_y="4" />
    <inkscape:path-effect
       nr_y="4"
       nr_x="4"
       is_visible="true"
       id="path-effect3140"
       effect="construct_grid" />
  </defs>
  <sodipodi:namedview
     id="base"
     pagecolor="#ffffff"
     bordercolor="#666666"
     borderopacity="1.0"
     inkscape:pageopacity="0.0"
     inkscape:pageshadow="2"
     inkscape:zoom="0.49497475"
     inkscape:cx="358.21954"
     inkscape:cy="518.25201"
     inkscape:document-units="px"
     inkscape:current-layer="layer1"
     showgrid="false"
     inkscape:window-width="1366"
     inkscape:window-height="713"
     inkscape:window-x="0"
     inkscape:window-y="30"
     inkscape:window-maximized="1" />
  <metadata
     id="metadata5839">
    <rdf:RDF>
      <cc:Work
         rdf:about="">
        <dc:format>image/svg+xml</dc:format>
        <dc:type
           rdf:resource="http://purl.org/dc/dcmitype/StillImage" />
        <dc:title></dc:title>
      </cc:Work>
    </rdf:RDF>
  </metadata>
  <g
     inkscape:label="Layer 1"
     inkscape:groupmode="layer"
     id="layer1">
    <flowRoot
       transform="translate(258.6671,204.8525)"
       style="font-size:20px;font-style:normal;font-variant:normal;font-weight:normal;font-stretch:normal;line-height:125%;letter-spacing:0px;word-spacing:0px;fill:#000000;fill-opacity:1;stroke:none;font-family:Latin Modern Math;-inkscape-font-specification:Latin Modern Math"
       id="flowRoot4666"
       xml:space="preserve"><flowRegion
         id="flowRegion4668"><rect
           y="539.20471"
           x="287.89346"
           height="57.578693"
           width="166.67517"
           id="rect4670" /></flowRegion><flowPara
         id="flowPara4672">GPU 4</flowPara></flowRoot>    <g
       transform="matrix(0,1.663702,-1.663702,0,1143.2014,-96.434152)"
       id="g5820">
      <rect
         style="fill:#ffffff;fill-opacity:1;stroke:#241f1c;stroke-width:3.54330707;stroke-linecap:butt;stroke-linejoin:round;stroke-miterlimit:4;stroke-opacity:1;stroke-dasharray:none;stroke-dashoffset:0"
         id="rect3102"
         width="80"
         height="160"
         x="170"
         y="388.36218" />
      <path
         style="fill:none;stroke:#000000;stroke-width:1px;stroke-linecap:butt;stroke-linejoin:miter;stroke-opacity:1"
         d="m 170,468.36218 0,-80 m 20,80 0,-80 m 20,80 0,-80 m 20,80 0,-80 m 20,80 0,-80 m -80,80 80,0 m -80,-20 80,0 m -80,-20 80,0 m -80,-20 80,0 m -80,-20 80,0"
         id="path3104"
         inkscape:connector-curvature="0"
         inkscape:path-effect="#path-effect3108"
         inkscape:original-d="m 170,448.36218 0,20 20,0 0,-20 z" />
      <path
         inkscape:original-d="m 170,528.36218 0,20 20,0 0,-20 z"
         inkscape:path-effect="#path-effect3110"
         inkscape:connector-curvature="0"
         id="path3106"
         d="m 170,548.36218 0,-80 m 20,80 0,-80 m 20,80 0,-80 m 20,80 0,-80 m 20,80 0,-80 m -80,80 80,0 m -80,-20 80,0 m -80,-20 80,0 m -80,-20 80,0 m -80,-20 80,0"
         style="fill:none;stroke:#000000;stroke-width:1px;stroke-linecap:butt;stroke-linejoin:miter;stroke-opacity:1" />
      <rect
         y="388.36218"
         x="270"
         height="160"
         width="80"
         id="rect3112"
         style="fill:#ffffff;fill-opacity:1;stroke:#241f1c;stroke-width:3.54330707;stroke-linecap:butt;stroke-linejoin:round;stroke-miterlimit:4;stroke-opacity:1;stroke-dasharray:none;stroke-dashoffset:0" />
      <path
         inkscape:original-d="m 270,448.36218 0,20 20,0 0,-20 z"
         inkscape:path-effect="#path-effect3118"
         inkscape:connector-curvature="0"
         id="path3114"
         d="m 270,468.36218 0,-80 m 20,80 0,-80 m 20,80 0,-80 m 20,80 0,-80 m 20,80 0,-80 m -80,80 80,0 m -80,-20 80,0 m -80,-20 80,0 m -80,-20 80,0 m -80,-20 80,0"
         style="fill:none;stroke:#000000;stroke-width:1px;stroke-linecap:butt;stroke-linejoin:miter;stroke-opacity:1" />
      <path
         style="fill:none;stroke:#000000;stroke-width:1px;stroke-linecap:butt;stroke-linejoin:miter;stroke-opacity:1"
         d="m 270,548.36218 0,-80 m 20,80 0,-80 m 20,80 0,-80 m 20,80 0,-80 m 20,80 0,-80 m -80,80 80,0 m -80,-20 80,0 m -80,-20 80,0 m -80,-20 80,0 m -80,-20 80,0"
         id="path3116"
         inkscape:connector-curvature="0"
         inkscape:path-effect="#path-effect3120"
         inkscape:original-d="m 270,528.36218 0,20 20,0 0,-20 z" />
      <rect
         style="fill:#ffffff;fill-opacity:1;stroke:#241f1c;stroke-width:3.54330707;stroke-linecap:butt;stroke-linejoin:round;stroke-miterlimit:4;stroke-opacity:1;stroke-dasharray:none;stroke-dashoffset:0"
         id="rect3122"
         width="80"
         height="160"
         x="370"
         y="388.36218" />
      <path
         style="fill:none;stroke:#000000;stroke-width:1px;stroke-linecap:butt;stroke-linejoin:miter;stroke-opacity:1"
         d="m 370,468.36218 0,-80 m 20,80 0,-80 m 20,80 0,-80 m 20,80 0,-80 m 20,80 0,-80 m -80,80 80,0 m -80,-20 80,0 m -80,-20 80,0 m -80,-20 80,0 m -80,-20 80,0"
         id="path3124"
         inkscape:connector-curvature="0"
         inkscape:path-effect="#path-effect3128"
         inkscape:original-d="m 370,448.36218 0,20 20,0 0,-20 z" />
      <path
         inkscape:original-d="m 370,528.36218 0,20 20,0 0,-20 z"
         inkscape:path-effect="#path-effect3130"
         inkscape:connector-curvature="0"
         id="path3126"
         d="m 370,548.36218 0,-80 m 20,80 0,-80 m 20,80 0,-80 m 20,80 0,-80 m 20,80 0,-80 m -80,80 80,0 m -80,-20 80,0 m -80,-20 80,0 m -80,-20 80,0 m -80,-20 80,0"
         style="fill:none;stroke:#000000;stroke-width:1px;stroke-linecap:butt;stroke-linejoin:miter;stroke-opacity:1" />
      <rect
         y="388.36218"
         x="470"
         height="160"
         width="80"
         id="rect3132"
         style="fill:#ffffff;fill-opacity:1;stroke:#241f1c;stroke-width:3.54330707;stroke-linecap:butt;stroke-linejoin:round;stroke-miterlimit:4;stroke-opacity:1;stroke-dasharray:none;stroke-dashoffset:0" />
      <path
         inkscape:original-d="m 470,448.36218 0,20 20,0 0,-20 z"
         inkscape:path-effect="#path-effect3138"
         inkscape:connector-curvature="0"
         id="path3134"
         d="m 470,468.36218 0,-80 m 20,80 0,-80 m 20,80 0,-80 m 20,80 0,-80 m 20,80 0,-80 m -80,80 80,0 m -80,-20 80,0 m -80,-20 80,0 m -80,-20 80,0 m -80,-20 80,0"
         style="fill:none;stroke:#000000;stroke-width:1px;stroke-linecap:butt;stroke-linejoin:miter;stroke-opacity:1" />
      <path
         style="fill:none;stroke:#000000;stroke-width:1px;stroke-linecap:butt;stroke-linejoin:miter;stroke-opacity:1"
         d="m 470,548.36218 0,-80 m 20,80 0,-80 m 20,80 0,-80 m 20,80 0,-80 m 20,80 0,-80 m -80,80 80,0 m -80,-20 80,0 m -80,-20 80,0 m -80,-20 80,0 m -80,-20 80,0"
         id="path3136"
         inkscape:connector-curvature="0"
         inkscape:path-effect="#path-effect3140"
         inkscape:original-d="m 470,528.36218 0,20 20,0 0,-20 z" />
    </g>
    <path
       style="fill:none;stroke:#000000;stroke-width:1px;stroke-linecap:butt;stroke-linejoin:miter;stroke-opacity:1"
       d="m 145.71429,150.38103 440,0 -10,-10"
       id="path3245"
       inkscape:connector-curvature="0" />
    <path
       style="fill:none;stroke:#000000;stroke-width:1px;stroke-linecap:butt;stroke-linejoin:miter;stroke-opacity:1"
       d="m 585.71429,150.38103 -10,10"
       id="path3247"
       inkscape:connector-curvature="0" />
    <flowRoot
       xml:space="preserve"
       id="flowRoot3249"
       style="font-size:20px;font-style:normal;font-variant:normal;font-weight:normal;font-stretch:normal;line-height:125%;letter-spacing:0px;word-spacing:0px;fill:#000000;fill-opacity:1;stroke:none;font-family:Latin Modern Math;-inkscape-font-specification:Latin Modern Math"
       transform="translate(-34.28571,-141.98116)"><flowRegion
         id="flowRegion3251"><rect
           id="rect3253"
           width="380"
           height="51.428566"
           x="260"
           y="252.36218" /></flowRegion><flowPara
         id="flowPara3255">Direction of derivative evalutaion</flowPara></flowRoot>    <flowRoot
       xml:space="preserve"
       id="flowRoot3362"
       style="font-size:20px;font-style:normal;font-variant:normal;font-weight:normal;font-stretch:normal;line-height:125%;letter-spacing:0px;word-spacing:0px;fill:#000000;fill-opacity:1;stroke:none;font-family:Latin Modern Math;-inkscape-font-specification:Latin Modern Math"
       transform="translate(258.6671,-291.1475)"><flowRegion
         id="flowRegion3364"><rect
           id="rect3366"
           width="166.67517"
           height="57.578693"
           x="287.89346"
           y="539.20471" /></flowRegion><flowPara
         id="flowPara3368">GPU 1 </flowPara></flowRoot>    <flowRoot
       transform="translate(258.6671,-125.81418)"
       style="font-size:20px;font-style:normal;font-variant:normal;font-weight:normal;font-stretch:normal;line-height:125%;letter-spacing:0px;word-spacing:0px;fill:#000000;fill-opacity:1;stroke:none;font-family:Latin Modern Math;-inkscape-font-specification:Latin Modern Math"
       id="flowRoot4650"
       xml:space="preserve"><flowRegion
         id="flowRegion4652"><rect
           y="539.20471"
           x="287.89346"
           height="57.578693"
           width="166.67517"
           id="rect4654" /></flowRegion><flowPara
         id="flowPara4656">GPU 2 </flowPara></flowRoot>    <flowRoot
       xml:space="preserve"
       id="flowRoot4658"
       style="font-size:20px;font-style:normal;font-variant:normal;font-weight:normal;font-stretch:normal;line-height:125%;letter-spacing:0px;word-spacing:0px;fill:#000000;fill-opacity:1;stroke:none;font-family:Latin Modern Math;-inkscape-font-specification:Latin Modern Math"
       transform="translate(258.6671,37.51916)"><flowRegion
         id="flowRegion4660"><rect
           id="rect4662"
           width="166.67517"
           height="57.578693"
           x="287.89346"
           y="539.20471" /></flowRegion><flowPara
         id="flowPara4664">GPU 3 </flowPara></flowRoot>    <flowRoot
       xml:space="preserve"
       id="flowRoot5779"
       style="font-size:20px;font-style:normal;font-variant:normal;font-weight:normal;font-stretch:normal;line-height:125%;letter-spacing:0px;word-spacing:0px;fill:#000000;fill-opacity:1;stroke:none;font-family:Latin Modern Math;-inkscape-font-specification:Latin Modern Math"
       transform="translate(-25.63664,31.354807)"><flowRegion
         id="flowRegion5781"><rect
           id="rect5783"
           width="377.14285"
           height="101.42857"
           x="258.57144"
           y="832.36218" /></flowRegion><flowPara
         id="flowPara5797">No inter-GPU communication</flowPara><flowPara
         id="flowPara4496">required</flowPara></flowRoot>  </g>
</svg>
